<svg xmlns="http://www.w3.org/2000/svg" xmlns:xlink="http://www.w3.org/1999/xlink" width="154" height="89" viewBox="0 0 154 89">
  <defs>
    <clipPath id="clip-path">
      <rect id="長方形_681" data-name="長方形 681" width="154" height="89" transform="translate(182.03 2081.232)" fill="#fff"/>
    </clipPath>
  </defs>
  <g id="マスクグループ_47" data-name="マスクグループ 47" transform="translate(-182.03 -2081.232)" clip-path="url(#clip-path)">
    <g id="レイヤー_2" data-name="レイヤー 2" transform="translate(220.49 2082.31)">
      <g id="レイヤー_1" data-name="レイヤー 1">
        <path id="パス_4328" data-name="パス 4328" d="M72.93,7.944c-.924,0-11.681,1.421-17.877.213,0,0-6.878-1.236-9.862-3.467L38.483,0a28.663,28.663,0,0,1-5.912,4.448A46.6,46.6,0,0,1,23.732,7.66a96.465,96.465,0,0,1-12.065.725,41.908,41.908,0,0,1-8.441-.441S.227,7.915,0,9.152c0,0,0,11.61.682,22.737s3.2,24.258,10.985,35.882c7.574,13.856,26.546,19.071,26.546,19.071S50.6,82.579,54.967,78.174a54,54,0,0,0,15.149-19.5c2.942-6.651,5.087-14.751,6.167-27.754l.8-22.737S73.9,7.944,72.93,7.944Zm-.881,16.044C71.821,27.413,70.912,38.2,70.9,38.327c-1.208,9.237-2.686,15.632-7.105,23.121C58.946,69.633,50.32,75.9,50.235,75.971a28.521,28.521,0,0,1-12.193,5.684h0s-4.263-1.421-6.878-2.544A49.653,49.653,0,0,1,20.421,71.58c-3.723-3.3-8.683-13.5-8.725-13.6a74.663,74.663,0,0,1-5.613-19.4C4.945,31.846,4.931,12.065,4.931,11.866h0l5.812.256,6.651.242c1.123,0,6.352-.981,6.409-.995a57.468,57.468,0,0,0,9.152-2.956,29.544,29.544,0,0,0,5.94-3.482h0L43.755,8.2c3.624,2.43,10.914,3.439,10.985,3.453a58.662,58.662,0,0,0,17.181,0h.085v.071C72.049,11.71,72.276,20.563,72.049,23.988Z" fill="#fff"/>
        <path id="パス_4329" data-name="パス 4329" d="M45.738,54.491l-8.7-4.86-.412-3.141,1.265-.057-2.43-4.349L47.358,49.83Z" transform="translate(-13.621 -16.165)" fill="#fff"/>
        <path id="パス_4330" data-name="パス 4330" d="M72.593,54.653l8.711-4.86.4-3.141L80.437,46.6l2.43-4.349L70.973,49.992Z" transform="translate(-27.261 -16.227)" fill="#fff"/>
        <path id="パス_4331" data-name="パス 4331" d="M67.957,74.348l11.937-3.382-6.679,7.39L67.048,74.6l-2.629.057L64.3,99.416l5.528-.057.711-.711-.057-17.863,4.348,2.373,3.3-1.876L75.8,94.2l5.514-4.917,1.066-5.67L78.942,86,79.3,84.58l3.6-3.638.142-1.322-3.993,2.785.3-1.464,4.306-4.405L86.786,58.56,68.923,68.692Z" transform="translate(-24.699 -22.493)" fill="#fff"/>
        <path id="パス_4332" data-name="パス 4332" d="M43.287,74.316l-11.951-3.4,6.679,7.39L44.2,74.572l2.629.043.1,24.755-5.514-.057L40.7,98.6l.057-17.863-4.363,2.373-3.283-1.862,2.331,12.9-5.514-4.917-1.066-5.67L32.3,85.955l-.355-1.421-3.6-3.638-.156-1.322L32.2,82.359,31.9,80.9,27.6,76.49,24.458,58.514,42.321,68.646Z" transform="translate(-9.394 -22.475)" fill="#fff"/>
        <path id="パス_4333" data-name="パス 4333" d="M45.5,112.606l-2.828-2.43L40.493,98.622l1.762,1.023,3.24-1.677Z" transform="translate(-15.553 -37.629)" fill="#fff"/>
        <path id="パス_4334" data-name="パス 4334" d="M76.718,112.56l2.842-2.43L81.735,98.59,79.958,99.6l-3.24-1.677Z" transform="translate(-29.467 -37.612)" fill="#fff"/>
        <path id="パス_4335" data-name="パス 4335" d="M64.76,58.324l-2.828.014-1.9-5.286L58.01,58.338l-2.657-.014,2.728-6.779,4.007.043Z" transform="translate(-21.261 -19.798)" fill="#fff"/>
        <path id="パス_4336" data-name="パス 4336" d="M56.4,67.437l-1.236,3.439-.782-4.633Z" transform="translate(-20.889 -25.444)" fill="#fff"/>
        <path id="パス_4337" data-name="パス 4337" d="M67.812,67.044l1.236,3.439.782-4.633Z" transform="translate(-26.046 -25.293)" fill="#fff"/>
        <path id="パス_4338" data-name="パス 4338" d="M63.333,78.771l-6.494.043-.909-5.3,4.121-2.771L64.214,73.5Z" transform="translate(-21.482 -27.172)" fill="#fff"/>
        <path id="パス_4339" data-name="パス 4339" d="M39.544,53.706l.909,4.86L22.647,48.59l-2.274-12.8L26.9,44.071h2.43l.909,4.064Z" transform="translate(-7.825 -13.745)" fill="#fff"/>
        <path id="パス_4340" data-name="パス 4340" d="M73.105,53.868l-.91,4.86,17.792-9.99,2.288-12.79-6.537,8.271h-2.43l-.91,4.064Z" transform="translate(-27.73 -13.808)" fill="#fff"/>
        <path id="パス_4341" data-name="パス 4341" d="M37.332,22.69l-.3.4a2.174,2.174,0,0,0,.54.469,2.117,2.117,0,0,0,1.307.455,1.108,1.108,0,0,0,.853-.355l.242.27L37.46,26.314a3.78,3.78,0,0,1,1.791.853,3.538,3.538,0,0,1,.739.938l.156.341a2.97,2.97,0,0,1,.213,1.165,3.822,3.822,0,0,1-.2,1.208,3.283,3.283,0,0,1-.938,1.307,5.571,5.571,0,0,1-3.055,1.421,2.927,2.927,0,0,1-.81-.128,2.174,2.174,0,0,1-.384-.156,5.286,5.286,0,0,1-.7-.355,5.1,5.1,0,0,0-2.061-.867,1.521,1.521,0,0,0-.583.128,3.24,3.24,0,0,0-1.108,1.421l-.313-.114a2.755,2.755,0,0,1,0-.284,7.006,7.006,0,0,1,.767-1.421,6.892,6.892,0,0,1,.441-.568,9.322,9.322,0,0,0,.81-1.009c.114-.171.171-.313.2-.355a3.624,3.624,0,0,0,.1-1.037l-1.165-.355v-.27l1.208-.838V25.632a1.85,1.85,0,0,0-.156-.583l-.611.5-.384.341-.3-.284-.227-.242-.27-.227c-.156-.142-.426-.369-.568-.369a.313.313,0,0,0-.2.1l-.185-.2.512-.54.313-.27c.256-.242.369-.426.5-.426s.128.071.2.114a8.526,8.526,0,0,1,1.421,1.137c.156-.142.313-.242.441-.384a3.041,3.041,0,0,0,.767-1.123h.185a8.526,8.526,0,0,1,.327,2.458v3.695a.625.625,0,0,1-.156.526,1.691,1.691,0,0,1-.441.27l-.455.242a4.688,4.688,0,0,0-.455.256l-.284.2h.5A5.883,5.883,0,0,1,34.9,31.3V25.9a9.652,9.652,0,0,0-.1-1.677c-.1-.568-.142-.981-.242-1.421l.384-.1q.1.455.171.853a7.5,7.5,0,0,0,.128.966l.4-.4.483-.526.341-.355.682-.725Zm-2.117,2.316v2.743l.54-.426c.27-.227.512-.455.739-.668s.256-.242.4-.369.54-.5.838-.8a3.013,3.013,0,0,1-.583-.171,3.936,3.936,0,0,1-1.421-.924Zm0,6.452.952.426.924.441a1.137,1.137,0,0,0,.483.142,1.052,1.052,0,0,0,.568-.227,2.075,2.075,0,0,0,.7-1.634,3.183,3.183,0,0,0-1.307-2.5,2.345,2.345,0,0,0-1.18-.412,1.691,1.691,0,0,0-1.137.554Z" transform="translate(-11.397 -8.65)" fill="#fff"/>
        <path id="パス_4342" data-name="パス 4342" d="M51.433,28c-.128.128-.171.171-.171.227a1.242,1.242,0,0,0,.412.441,4.505,4.505,0,0,0,1.265.611L51.9,30.317c-.2.2-.426.412-.583.6a.668.668,0,0,0-.142.142l-.426.441-.54.568v.81a1.9,1.9,0,0,0,.1.682.966.966,0,0,0,.725.412c.313,0,.583-.227,1.08-.767l.526-.568.256.227-2.444,2.7c-.384-.227-.767-.455-1.165-.668l-.995-.483c0-.128.171-.27.227-.412a3.922,3.922,0,0,0,.156-1.506v-2.16a6.879,6.879,0,0,0-.128-.924l2.686-1.72Zm-1.208,3.51.355-.369a.327.327,0,0,0,.1-.1c.1-.085.213-.227.3-.313l.512-.526-1.265-.767Z" transform="translate(-18.549 -10.635)" fill="#fff"/>
        <path id="パス_4343" data-name="パス 4343" d="M61.746,29.109c-.3.128-.441.313-.455.782V33.4a2.747,2.747,0,0,0,0,.341s.1.327.313.327a.6.6,0,0,0,.327-.185l.5-.526.27.213-1.62,2.018-.6-.313a1.421,1.421,0,0,1-.767-1.35L58.293,35.6a6.423,6.423,0,0,0-1.648-1.009c0-.128.114-.27.156-.4a4.89,4.89,0,0,0,.071-.639V31.78l1.251-.512a1.705,1.705,0,0,1-.995-.526,1.123,1.123,0,0,1,0-1.421,2.615,2.615,0,0,1,1.009-.753l.625-.327a5.5,5.5,0,0,0,.8-.554l.568.4a6.253,6.253,0,0,0,1.62.7Zm-2,1.208a1.009,1.009,0,0,0-.441-.995,1.677,1.677,0,0,0-.838-.213,1.322,1.322,0,0,0-.767.227.9.9,0,0,0-.384.7.839.839,0,0,0,.242.568.469.469,0,0,0,.2.142,1.421,1.421,0,0,0,.753.185,2.842,2.842,0,0,0,1.236-.27Zm0,.767-.838.256c-.256.1-.469.213-.526.355a2.2,2.2,0,0,0-.071.725,4.434,4.434,0,0,0,.085,1.222.554.554,0,0,0,.512.341.668.668,0,0,0,.469-.2,1.123,1.123,0,0,0,.369-.952Z" transform="translate(-21.757 -10.635)" fill="#fff"/>
        <path id="パス_4344" data-name="パス 4344" d="M68.852,32.988a.788.788,0,0,0,.441.853.981.981,0,0,0,.426.142.568.568,0,0,0,.3-.1,5.357,5.357,0,0,0,.867-.782l.327.27L69.164,35.6c-.327-.213-.668-.412-.995-.6s-.782-.4-1.165-.583a1.975,1.975,0,0,0,.384-1.293V29.308a13.686,13.686,0,0,0,1.99-1.62,6.294,6.294,0,0,0,1.08.5.861.861,0,0,1,.554.1.142.142,0,0,1,.085.142c0,.156-.114.256-.284.5s-.213.313-.313.455a2.842,2.842,0,0,1-.171.27s-.071.156-.156.156a6.849,6.849,0,0,1-.711-.227l-.611-.227Z" transform="translate(-25.736 -10.635)" fill="#fff"/>
        <path id="パス_4345" data-name="パス 4345" d="M79.3,34.068,76.8,35.49l-2.714-1.663c0-.128.185-.256.242-.384a3.538,3.538,0,0,0,.171-1.165V29.436a.582.582,0,0,1,0-.171c.085-.171.256-.227.4-.313l.426-.27,1.577-.995.711.284c.568.227,1.123.469,1.691.753Zm-3.283-.838.668.455.313.2c.27.156.384.242.54.242s.128,0,.242-.142V29.493L77.5,29.35l-.725-.242a1.506,1.506,0,0,0-.526-.171.4.4,0,0,0-.256.142Z" transform="translate(-28.457 -10.635)" fill="#fff"/>
        <path id="パス_4346" data-name="パス 4346" d="M90.134,28.9c-.639.27-.639.611-.639.9v4.036a.282.282,0,0,0,.3.3.625.625,0,0,0,.256-.071s.4-.341.639-.568l.242.27c-.171.171-.369.341-.526.512l-.2.2c-.156.171-.341.341-.5.526s-.341.384-.5.568a4.265,4.265,0,0,1-.654-.341c-.441-.3-.568-.483-.611-1.236V30.274a1.99,1.99,0,0,0-.114-.6c-.071-.114-.327-.441-.625-.441a.782.782,0,0,0-.284.071,1.421,1.421,0,0,0-.7.711,4.861,4.861,0,0,0,0,.739v2.615c0,.369,0,.7.313.7a.483.483,0,0,0,.284-.142l.171.27-.611.5a9.534,9.534,0,0,0-.9.838,3.524,3.524,0,0,0-1.336-1.108c.554-.512.54-.625.554-1.179V29.862a1.734,1.734,0,0,0,0-.469.313.313,0,0,0-.242-.142c-.156,0-.313.142-.611.369l-.213-.227c.54-.568,1.123-1.123,1.677-1.677a1.535,1.535,0,0,1,.568.284c.441.3.4.469.4,1.137a2,2,0,0,0,0,.284L86.909,29a11.964,11.964,0,0,0,1.421-1.307,2.927,2.927,0,0,0,1.336.909,1.038,1.038,0,0,0,.426,0Z" transform="translate(-32.126 -10.635)" fill="#fff"/>
      </g>
    </g>
  </g>
</svg>
