<svg xmlns="http://www.w3.org/2000/svg" xmlns:xlink="http://www.w3.org/1999/xlink" width="87.809" height="43.905" viewBox="0 0 87.809 43.905">
  <defs>
    <clipPath id="clip-path">
      <rect id="長方形_678" data-name="長方形 678" width="87.809" height="43.905" transform="translate(203 1344)" fill="#fff"/>
    </clipPath>
  </defs>
  <g id="マスクグループ_44" data-name="マスクグループ 44" transform="translate(-203 -1344)" clip-path="url(#clip-path)">
    <g id="レイヤー_2" data-name="レイヤー 2" transform="translate(203 1346.641)">
      <g id="レイヤー_1" data-name="レイヤー 1" transform="translate(0)">
        <path id="パス_4276" data-name="パス 4276" d="M22.01,18.711c0,8.082-3.731,11.182-11.171,11.182S0,25.719,0,19.353V15.3H8.182v3.322c0,2.214,0,4.362,2.447,4.362s2.214-2.879,2.214-4.152V0h9.145V18.711Z" transform="translate(0)" fill="#fff" fill-rule="evenodd"/>
        <path id="パス_4277" data-name="パス 4277" d="M59.587,25.66c.31-2.214,1.594-3.5,3.72-3.5a3.321,3.321,0,0,1,3.321,3.5Zm14.094,4.263c0-8.3-3.4-12.976-11.072-12.976-6.167,0-10.208,4.993-10.208,11.16,0,7.119,4.683,11.16,10.85,11.16,4.429,0,8.5-2.126,9.964-6.7H66.385a3.753,3.753,0,0,1-3.078,1.495c-2.336,0-3.62-1.705-3.831-4.141Z" transform="translate(-29.395 -9.506)" fill="#fff" fill-rule="evenodd"/>
        <path id="パス_4278" data-name="パス 4278" d="M109.4,25.66c.321-2.214,1.594-3.5,3.72-3.5a3.322,3.322,0,0,1,3.321,3.5Zm14.139,4.263c0-8.3-3.4-12.976-11.072-12.976-6.167,0-10.208,4.993-10.208,11.16,0,7.119,4.672,11.16,10.839,11.16,4.362,0,8.514-2.126,9.965-6.7h-6.909a3.775,3.775,0,0,1-3.089,1.495c-2.336,0-3.609-1.705-3.82-4.141Z" transform="translate(-57.361 -9.506)" fill="#fff" fill-rule="evenodd"/>
        <path id="パス_4279" data-name="パス 4279" d="M159.419,28.106c0-2.546.531-5.2,3.189-5.2s3.322,2.657,3.322,5.2-.631,5.215-3.322,5.215S159.419,30.542,159.419,28.106Zm-7.13,17.438h7.318V36.4h.111a6.045,6.045,0,0,0,5.314,2.868c6.477,0,8.182-6.056,8.182-11.072.022-5.292-2.535-11.249-8.071-11.249-3.609,0-4.783,1.484-5.735,2.868h0V17.478h-7.119Z" transform="translate(-85.427 -9.506)" fill="#fff" fill-rule="evenodd"/>
        <path id="パス_4280" data-name="パス 4280" d="M191.948,71.29a1.495,1.495,0,1,1,1.489,1.366A1.495,1.495,0,0,1,191.948,71.29Zm-.421,0a1.893,1.893,0,0,0,1.915,1.8,1.86,1.86,0,0,0,1.8-1.8,1.8,1.8,0,0,0-1.8-1.816,1.827,1.827,0,0,0-1.86,1.816Zm1.107,1.107h.332v-.963h.421l.531.963h.421l-.543-1.008c.31,0,.531-.21.531-.631s-.221-.531-.753-.531h-.886v2.126Zm.332-1.915h.52c.221,0,.432.1.432.321s-.321.421-.531.421h-.365v-.742Z" transform="translate(-107.438 -38.971)" fill="#fff" fill-rule="evenodd"/>
        <path id="パス_4281" data-name="パス 4281" d="M53.571,75.975a1.107,1.107,0,0,0,.221.631,1.251,1.251,0,0,0,.985.388c.653,0,1.041-.288,1.041-.753a.631.631,0,0,0-.354-.6,7.252,7.252,0,0,0-1.273-.365,3.321,3.321,0,0,1-1.362-.487,1.915,1.915,0,0,1-.819-1.628c0-1.3,1.107-2.115,2.713-2.115a2.757,2.757,0,0,1,2.358.963,2.358,2.358,0,0,1,.421,1.008l-1.794.2c-.1-.554-.41-.775-1.052-.775s-.9.277-.9.664a.6.6,0,0,0,.4.543,7.417,7.417,0,0,0,1.174.277,4.064,4.064,0,0,1,1.362.476,1.9,1.9,0,0,1,.919,1.727,2.214,2.214,0,0,1-.6,1.561A3.122,3.122,0,0,1,54.8,78.4a4.008,4.008,0,0,1-1.882-.41,1.971,1.971,0,0,1-.908-1.107,2.8,2.8,0,0,1-.188-.786Z" transform="translate(-29.07 -39.848)" fill="#fff"/>
        <path id="パス_4282" data-name="パス 4282" d="M72.256,78.478a10.652,10.652,0,0,0-1.4,0H66.952a7.021,7.021,0,0,0,.078-1.229V72.6a8.105,8.105,0,0,0-.078-1.229h3.942a8.357,8.357,0,0,0,1.262-.055v1.572a10.127,10.127,0,0,0-1.262,0H68.68v1.24H70.5a11.6,11.6,0,0,0,1.273-.055v1.561a10.219,10.219,0,0,0-1.273,0H68.7V77.05h2.214a10.692,10.692,0,0,0,1.373-.066Z" transform="translate(-37.557 -40.004)" fill="#fff"/>
        <path id="パス_4283" data-name="パス 4283" d="M85.28,78.508a6.876,6.876,0,0,0-.41-1.318c-.266-.742-.376-.93-.587-1.107a.941.941,0,0,0-.653-.233h-.864v1.4a9.962,9.962,0,0,0,.066,1.273h-1.86a9.345,9.345,0,0,0,.066-1.273V72.706a9.968,9.968,0,0,0-.066-1.24H84.45c1.373,0,2.214.709,2.214,1.926a1.827,1.827,0,0,1-.509,1.384,1.782,1.782,0,0,1-.8.421c.432.133.631.332.9.93.122.277.244.565.62,1.473.1.233.2.443.41.9Zm-1.24-4.1a.742.742,0,0,0,.808-.786c0-.476-.277-.72-.8-.72H82.723v1.506Z" transform="translate(-45.422 -40.089)" fill="#fff"/>
        <path id="パス_4284" data-name="パス 4284" d="M99.021,76.463l.166.587.155-.587,1.229-4.063a4.284,4.284,0,0,0,.188-.908h1.993a9.578,9.578,0,0,0-.41,1.03L100.549,77.6a6.169,6.169,0,0,0-.266.919H98.068A5.537,5.537,0,0,0,97.8,77.6L96,72.521c-.166-.487-.255-.7-.4-1.03h1.982a6.458,6.458,0,0,0,.2.908Z" transform="translate(-53.627 -40.103)" fill="#fff"/>
        <path id="パス_4285" data-name="パス 4285" d="M115.112,71.492a7.3,7.3,0,0,0-.066,1.251v4.528a7.608,7.608,0,0,0,.066,1.251h-1.86a7.605,7.605,0,0,0,.1-1.251V72.743a7.376,7.376,0,0,0-.066-1.251Z" transform="translate(-63.529 -40.103)" fill="#fff"/>
        <path id="パス_4286" data-name="パス 4286" d="M124.079,73.734a1.273,1.273,0,0,0-1.34-1.107c-1.03,0-1.628.819-1.628,2.214s.631,2.214,1.672,2.214a1.329,1.329,0,0,0,1.107-.543,1.44,1.44,0,0,0,.255-.72l1.76.255a3.255,3.255,0,0,1-.709,1.55,3.022,3.022,0,0,1-2.358.919,3.421,3.421,0,0,1-2.5-.974,4.307,4.307,0,0,1,0-5.536,3.4,3.4,0,0,1,2.425-.875,2.967,2.967,0,0,1,2.491,1.107,2.669,2.669,0,0,1,.52,1.163Z" transform="translate(-66.938 -39.899)" fill="#fff"/>
        <path id="パス_4287" data-name="パス 4287" d="M141.4,78.478a10.652,10.652,0,0,0-1.4,0H136.1a7.019,7.019,0,0,0,.033-1.262V72.6a8.106,8.106,0,0,0,0-1.229h3.942a8.357,8.357,0,0,0,1.262-.055v1.572a10.126,10.126,0,0,0-1.262,0h-2.214v1.24h1.816a11.528,11.528,0,0,0,1.262-.055v1.561a10.132,10.132,0,0,0-1.262,0h-1.827V77.05h2.214a10.692,10.692,0,0,0,1.373-.066Z" transform="translate(-76.345 -40.004)" fill="#fff"/>
      </g>
    </g>
  </g>
</svg>
