<svg xmlns="http://www.w3.org/2000/svg" xmlns:xlink="http://www.w3.org/1999/xlink" width="82" height="74" viewBox="0 0 82 74">
  <defs>
    <clipPath id="clip-path">
      <rect id="長方形_680" data-name="長方形 680" width="82" height="74" transform="translate(218.978 1179.136)" fill="#fff"/>
    </clipPath>
  </defs>
  <g id="マスクグループ_46" data-name="マスクグループ 46" transform="translate(-218.978 -1179.136)" clip-path="url(#clip-path)">
    <g id="レイヤー_2" data-name="レイヤー 2" transform="translate(222.91 1179)">
      <g id="レイヤー_1" data-name="レイヤー 1">
        <path id="パス_4308" data-name="パス 4308" d="M71.168,74.15H3.01A4.53,4.53,0,0,1,0,71.183V3.025C.781.724,2.414,0,4.728,0H69.408c2.329,0,3.947.724,4.728,2.968V71.126a4.53,4.53,0,0,1-2.968,3.025ZM.909,37.061V69.947c0,2.258,1.037,3.294,3.266,3.294H69.962a2.84,2.84,0,0,0,3.28-3.294V4.26c0-2.315-1.022-3.337-3.323-3.337H4.26C1.917.909.909,1.931.909,4.26Z" fill="#fff"/>
        <path id="パス_4309" data-name="パス 4309" d="M21.668,57.2V55.259h-1.42c-4.16.114-8.321.241-12.5.312A11.076,11.076,0,0,1,5.822,55.2a3.294,3.294,0,0,1,2.7-1.037c4-.156,8.023-.241,12.027-.355h1.122c.284-.852.1-2,1.42-2.059s1.108,1.15,1.42,1.96c2.655.085,5.3.142,7.952.256,1.718.071,3.451.185,5.169.369.426,0,.824.469,1.235.71a3.891,3.891,0,0,1-1.292.511c-3.365,0-6.731-.156-10.1-.227h-3.01V57.2c1.8.1,3.593.1,5.367.3a20.647,20.647,0,0,1,4.033.88,2.613,2.613,0,0,1,1.775,2.655c0,1.846.1,3.692.114,5.552a2.84,2.84,0,0,1-2.13,2.911,12.382,12.382,0,0,1-3.422.667c-4.87,0-9.741,0-14.626-.142a9.514,9.514,0,0,1-2.939-.738,2.4,2.4,0,0,1-1.69-2.4c0-2,0-4.018,0-6.021a2.457,2.457,0,0,1,1.676-2.442,19.6,19.6,0,0,1,3.834-.923C18.189,57.3,19.879,57.3,21.668,57.2ZM33.1,64.843V63.523c.085-.724-.142-1.022-.951-1.022H14.4a2.758,2.758,0,0,0-.824.085v2.258ZM13.6,66.363a1.42,1.42,0,0,0,1.065,1.789,9.769,9.769,0,0,0,2.968.6c3.947,0,7.895.071,11.842,0a8.15,8.15,0,0,0,2.741-.71,1.25,1.25,0,0,0,.753-1.676Zm19.382-5.424.256-.241c-.3-.355-.54-.838-.909-1.022a4.984,4.984,0,0,0-1.945-.511c-4.16-.142-8.307-.284-12.467-.3a13.135,13.135,0,0,0-3.422.653,1.079,1.079,0,0,0-.909,1.42Z" transform="translate(-2.982 -26.504)" fill="#fff"/>
        <path id="パス_4310" data-name="パス 4310" d="M87.38,68.529c.611,1.732,1.179,3.38,1.747,5.027a6.8,6.8,0,0,1,.454,1.306c0,.369,0,.994-.27,1.093a1.42,1.42,0,0,1-1.235-.114,3.252,3.252,0,0,1-1.065-1.42c-.7-1.7-1.292-3.451-1.974-5.169a1.42,1.42,0,0,0-.682-.781c-.639-.185-.582.454-.724.824-.6,1.633-1.164,3.309-1.818,4.927a3.834,3.834,0,0,1-1.065,1.42c-.312.256-.88.185-1.335.27,0-.4-.27-.838-.17-1.179.454-1.42.994-2.911,1.42-4.373.2-.582.312-1.193.469-1.86l-1.278-.227a2.57,2.57,0,0,1-2.371-2.641v-9.94a2.229,2.229,0,0,1,2.187-2.244c2.386-.227,4.785-.256,7.185-.3a10.522,10.522,0,0,1,2.57.312A2.272,2.272,0,0,1,91.37,56.09c-.156,3.266-.383,6.518-.611,9.784A2.286,2.286,0,0,1,89,68.017,4.1,4.1,0,0,1,87.38,68.529Zm1.15-5.211h-8.52v2.542a1.093,1.093,0,0,0,1.235,1.179h5.68a1.292,1.292,0,0,0,1.42-1.193C88.417,65.064,88.445,64.269,88.531,63.317Zm-8.648-5.68h8.9V56.147a.937.937,0,0,0-.824-1.093,18.034,18.034,0,0,0-7.242-.1,1.42,1.42,0,0,0-.838.895,7.3,7.3,0,0,0,0,1.775Zm8.79,1.562H80.394a.568.568,0,0,0-.4.4c0,.724,0,1.42,0,2.173h8.52Z" transform="translate(-39.684 -27.222)" fill="#fff"/>
        <path id="パス_4311" data-name="パス 4311" d="M127.679,68.855c-2.84,1.292-10.281,1.576-11.743.284a10.179,10.179,0,0,1,1.789-.5c1.889-.1,3.763-.128,5.68-.2a3.252,3.252,0,0,0,3.465-2.556,13.958,13.958,0,0,0-2.116-.426c-2.315-.1-4.629-.114-6.944-.213a8.051,8.051,0,0,1-1.69-.383v-.44A12.268,12.268,0,0,1,117.81,64a34.08,34.08,0,0,1,9.741.327c.156-.44.327-.866.483-1.292.355-.923.227-1.207-.753-1.42a10.352,10.352,0,0,0-2.2-.241H119.06a16.187,16.187,0,0,1-2.031-.085c-.256,0-.483-.3-.724-.454.2-.185.383-.483.625-.554a8.051,8.051,0,0,1,1.633-.3,40.5,40.5,0,0,1,10.153.256,3.791,3.791,0,0,1,1.42.582,1.278,1.278,0,0,1,.611,1.676c-1.42,2.84-.7,5.751-.469,8.648.185,2.229.6,4.459.88,6.688.085.653.185,1.42-.625,1.647a1.306,1.306,0,0,1-1.69-1.164c-.369-1.874-.625-3.763-.866-5.68C127.835,71.467,127.792,70.2,127.679,68.855Z" transform="translate(-59.379 -30.615)" fill="#fff"/>
        <path id="パス_4312" data-name="パス 4312" d="M4.741,110.079a9.944,9.944,0,0,1-1.619,0,2.84,2.84,0,0,1-.852-.525c.227-.241.426-.6.71-.7a10.593,10.593,0,0,1,1.775-.312c0-.625,0-1.292,0-1.96a3.394,3.394,0,0,1,.128-1.008,5.864,5.864,0,0,1,.582-.994,4.16,4.16,0,0,1,.511,1.079,13.32,13.32,0,0,1,0,1.846v.994H17.265c1.818,0,2.471.682,2.386,2.485a28.853,28.853,0,0,1-.383,3.635c-.568,2.982-2.542,4.615-5.879,4.941a8.037,8.037,0,0,1-1.846,0c-.312,0-.6-.383-.895-.6.27-.241.511-.625.809-.7.838-.2,1.718-.241,2.57-.369a4.26,4.26,0,0,0,3.749-3.28A30.686,30.686,0,0,0,18.444,111c.114-.753-.3-1.15-1.079-1.15H6.843c-.582,0-.824.185-.824.8V121.68c0,1.6.937,2.542,2.741,2.627,3.01.256,6.035.256,9.059.256a4.771,4.771,0,0,1,1.278.142.824.824,0,0,1,.511.554c0,.185-.284.483-.5.554a4.43,4.43,0,0,1-1.42.227c-2.968-.057-5.992-.057-9.017-.2-2.414-.085-3.848-1.264-3.862-3.649V111.257A5.157,5.157,0,0,1,4.741,110.079Z" transform="translate(-1.163 -53.564)" fill="#fff"/>
        <path id="パス_4313" data-name="パス 4313" d="M84.615,105.034h8.747a1.974,1.974,0,0,1,2.059,2.1,34.562,34.562,0,0,1-1.164,11.814,9.1,9.1,0,0,1-8.676,6.844c-1.42.1-2.84.17-4.345.227a2.357,2.357,0,0,1-.994-.142.838.838,0,0,1-.426-.6.717.717,0,0,1,.454-.5A14.07,14.07,0,0,1,82,124.573c1.775-.2,3.578-.256,5.311-.625a7.1,7.1,0,0,0,5.268-4.317.966.966,0,0,0-.241-1.221,22.8,22.8,0,0,0-9.613-5.85,1.619,1.619,0,0,0-1.761.284,5.211,5.211,0,0,1-1.8.88c-.27.085-.653-.142-.98-.241a3.138,3.138,0,0,1,.525-.966c.511-.383,1.136-.625,1.661-.994a6.844,6.844,0,0,0,2.84-5.467,7.8,7.8,0,0,1,.071-1.292,4.1,4.1,0,0,1,.582-.937c.213.284.426.582.625.88C84.587,104.778,84.573,104.892,84.615,105.034Zm8.648,12.254c.1-.17.17-.227.185-.312a27.832,27.832,0,0,0,.824-9.443.966.966,0,0,0-1.037-.98h-8.52l-1.534,4.657A24.139,24.139,0,0,1,93.263,117.288Z" transform="translate(-40.043 -53.177)" fill="#fff"/>
        <path id="パス_4314" data-name="パス 4314" d="M37.307,79.827a4.629,4.629,0,0,1-1.349.227c-1.491-.2-2.968-.554-4.459-.738a41.788,41.788,0,0,0-4.785-.383H11.8a22.2,22.2,0,0,1-4.657-.525c-2.968-.71-4.26-2.556-4.1-5.68s.213-6.347.312-9.514A2.84,2.84,0,0,1,3.5,61.935a1.775,1.775,0,0,1,1.079-.809c.327,0,.809.426,1.051.781a2.087,2.087,0,0,1,.2,1.164c-.014,3.38-.156,6.83-.3,10.281a3.1,3.1,0,0,0,2.13,3.394,16.869,16.869,0,0,0,4.515.738c5.595.1,11.175,0,16.756.114a45.271,45.271,0,0,1,6.83,1.093,7.8,7.8,0,0,1,1.6.753Z" transform="translate(-1.552 -31.307)" fill="#fff"/>
        <path id="パス_4315" data-name="パス 4315" d="M120.951,53.925c-2.286,0-4.572-.085-6.844,0-1.874.1-2.67,1.108-2.641,3.01,0,3.451.185,6.9.142,10.366,0,2.116-.369,4.26-.568,6.361a1.023,1.023,0,0,1,0,.27c-.27,1.15-.8,1.676-1.59,1.562s-.895-.653-.8-1.9c.227-3.167.525-6.333.625-9.514,0-2.187-.128-4.373-.227-6.574-.128-3.1.824-4.53,3.877-4.9a56.686,56.686,0,0,1,14.043,0c.44,0,.838.469,1.25.71a4.672,4.672,0,0,1-1.42.511h-5.836Z" transform="translate(-55.633 -26.719)" fill="#fff"/>
        <path id="パス_4316" data-name="パス 4316" d="M97.292,20.571H92.209a3.294,3.294,0,0,1-.923-.085.611.611,0,0,1-.383-.426.6.6,0,0,1,.27-.525,2.272,2.272,0,0,1,.966-.256c3.451,0,6.9-.17,10.352-.156,2,0,2.627.625,2.6,2.641a76.837,76.837,0,0,1-.312,8.293c-.341,2.84-1.846,4.175-4.7,4.416-1.775.142-3.578.1-5.367.114a1.037,1.037,0,0,1-.625-.114,6.5,6.5,0,0,1-.753-.667c.3-.213.582-.6.88-.611h4.814c2.939,0,4.615-1.42,4.9-4.26.241-2.414.156-4.856.213-7.3,0-.753-.483-1.037-1.15-1.037h-5.68Z" transform="translate(-46.557 -9.794)" fill="#fff"/>
        <path id="パス_4317" data-name="パス 4317" d="M45.659,129.073H42.337c-.412,0-.781-.44-1.179-.682.426-.241.824-.639,1.25-.667H47.69a22.346,22.346,0,0,0,2.755-.284,6.29,6.29,0,0,0,5.126-4.047,22.336,22.336,0,0,0,1.42-7.952c.071-1.136,0-2.286,0-3.422a3.919,3.919,0,0,1,.1-1.008,3.365,3.365,0,0,1,.511-.781c.2.256.54.5.554.767a22.945,22.945,0,0,1,0,3.422,61.641,61.641,0,0,1-.753,7.355c-1.108,5.1-3.649,7.1-8.875,7.327h-2.84Z" transform="translate(-21.08 -56.457)" fill="#fff"/>
        <path id="パス_4318" data-name="パス 4318" d="M8.677,22l-1.9.114c-.951,0-1.9.1-2.84.085-.483,0-1.207.213-1.292-.511s.71-.895,1.235-.909H14.612a1.42,1.42,0,0,1,.781.227,1.008,1.008,0,0,1,.412.71.8.8,0,0,1-.625.483c-1.051-.057-2.187-.114-3.266-.2L9.87,21.919v4.175a40.427,40.427,0,0,1-.625,5.85A4.175,4.175,0,0,1,4.19,35.437c-.383,0-.738-.454-1.122-.71.355-.227.724-.682,1.065-.667,3.138.156,4.26-1.619,4.459-4.459C8.791,27.116,8.677,24.617,8.677,22Z" transform="translate(-1.35 -10.644)" fill="#fff"/>
        <path id="パス_4319" data-name="パス 4319" d="M47.694,12.225a1.179,1.179,0,0,1,0,1.661c-.937,1.42-1.988,2.726-2.968,4.1a2.57,2.57,0,0,0-.54,1.25v8.52a14.852,14.852,0,0,1-.27,1.718h-.483a12.78,12.78,0,0,1-.284-1.8V19.24c-.625.4-1.079.738-1.562,1.022-1.022.582-2.016,1.193-3.081,1.69-.369.17-1.179.185-1.278,0-.355-.639.213-.951.724-1.25,1.122-.639,2.229-1.292,3.337-1.974a16.074,16.074,0,0,0,5.609-5.68,4.515,4.515,0,0,1,.383-.525,3.777,3.777,0,0,1,.412-.3Z" transform="translate(-19.011 -6.261)" fill="#fff"/>
        <path id="パス_4320" data-name="パス 4320" d="M123.988,125.037h-6.574a1.874,1.874,0,0,1-.909-.1,1.25,1.25,0,0,1-.54-.809,1.063,1.063,0,0,1,.54-.71,2.315,2.315,0,0,1,.994-.128h13.163c.639,0,1.519-.1,1.519.895s-.866.866-1.519.866Z" transform="translate(-59.393 -63.14)" fill="#fff"/>
        <path id="パス_4321" data-name="パス 4321" d="M67.868,26.648h-5.68c-.611,0-1.136-.085-1.15-.866s.54-.895,1.122-.895H73.335c.6,0,1.164.128,1.164.88s-.582.88-1.235.88Z" transform="translate(-31.262 -12.746)" fill="#fff"/>
        <path id="パス_4322" data-name="パス 4322" d="M128.676,26.648h-5.538c-.582,0-1.15,0-1.179-.824s.554-.937,1.164-.937h11.09c.625,0,1.221.128,1.193.923s-.568.838-1.179.838Z" transform="translate(-62.463 -12.746)" fill="#fff"/>
        <path id="パス_4323" data-name="パス 4323" d="M98.685,8.127H93.332a1.69,1.69,0,0,1-.724-.1c-.227-.114-.511-.355-.511-.554a.781.781,0,0,1,.511-.582,3.55,3.55,0,0,1,1.25-.284h9.8a3.1,3.1,0,0,1,1.25.284,1.022,1.022,0,0,1,.483.753c0,.156-.4.483-.639.483-.824,0-1.661,0-2.485-.071H98.685Z" transform="translate(-47.169 -3.384)" fill="#fff"/>
        <path id="パス_4324" data-name="パス 4324" d="M8.912,6.316l4.118.27a1.306,1.306,0,0,1,.71.156,4.913,4.913,0,0,1,.71.753c-.3.185-.611.511-.923.511-1.108,0-2.215-.156-3.323-.142-1.789,0-3.578.114-5.367.17a2.272,2.272,0,0,1-.824,0,2.953,2.953,0,0,1-.753-.54c.2-.241.355-.639.6-.7a15.762,15.762,0,0,1,2.457-.355H8.9Z" transform="translate(-1.67 -3.235)" fill="#fff"/>
        <path id="パス_4325" data-name="パス 4325" d="M42.156,105.719a24.309,24.309,0,0,1,7.483,2.116c.525.241,1.25.568.923,1.321-.085.185-1.022.156-1.42,0a28.9,28.9,0,0,0-7.1-1.846c-.454,0-.88-.5-1.321-.767Z" transform="translate(-20.856 -54.146)" fill="#fff"/>
        <path id="パス_4326" data-name="パス 4326" d="M29,12.747a3.294,3.294,0,0,1-.5-.738c-.525-1.42-1.093-2.84-1.576-4.388-.085-.227.071-.54.114-.809.213.156.525.256.6.454.6,1.519,1.15,3.039,1.661,4.572a2.215,2.215,0,0,1,0,.852Z" transform="translate(-13.779 -3.488)" fill="#fff"/>
        <path id="パス_4327" data-name="パス 4327" d="M32.621,10.581c-.738-.327-2.428-4.856-2.173-5.808C31.542,5.1,33.061,9.19,32.621,10.581Z" transform="translate(-15.581 -2.445)" fill="#fff"/>
      </g>
    </g>
  </g>
</svg>
