<svg xmlns="http://www.w3.org/2000/svg" xmlns:xlink="http://www.w3.org/1999/xlink" width="107" height="53.5" viewBox="0 0 107 53.5">
  <defs>
    <clipPath id="clip-path">
      <rect id="長方形_677" data-name="長方形 677" width="107" height="53.5" transform="translate(203 1087)" fill="#fff"/>
    </clipPath>
  </defs>
  <g id="マスクグループ_43" data-name="マスクグループ 43" transform="translate(-203 -1087)" clip-path="url(#clip-path)">
    <g id="レイヤー_2" data-name="レイヤー 2" transform="translate(208.376 1087)">
      <g id="レイヤー_1" data-name="レイヤー 1" transform="translate(0)">
        <path id="パス_4251" data-name="パス 4251" d="M6.964,51.932C3.476,51.559,0,49.261,0,45.448A4.4,4.4,0,0,1,4.33,40.961a4.054,4.054,0,0,1,4.09,3.97,3.91,3.91,0,0,1-2.562,3.705c-.072,0-.361.18-.361.3,0,.373,1.2.734,1.516.806Zm12.186-7.964c0,2.334-.409,4.367-2.262,6.015a11.332,11.332,0,0,1-6.965,2.069h-1.3V49.826c1.444-.674,1.444-2.117,1.444-3.416V27.872c0-1.371,0-1.6-1.2-2.009a1.023,1.023,0,0,1-.818-1c0-1.071,1.2-1.143,1.371-1.143h10.43c.156,0,1.371.072,1.371,1.143a1.01,1.01,0,0,1-.818,1c-1.287.409-1.2.638-1.2,2.009Z" transform="translate(0.002 -11.031)" fill="#fff"/>
        <path id="パス_4252" data-name="パス 4252" d="M6.964,51.932C3.476,51.559,0,49.261,0,45.448A4.4,4.4,0,0,1,4.33,40.961a4.054,4.054,0,0,1,4.09,3.97,3.91,3.91,0,0,1-2.562,3.705c-.072,0-.361.18-.361.3,0,.373,1.2.734,1.516.806Zm12.186-7.964c0,2.334-.409,4.367-2.262,6.015a11.332,11.332,0,0,1-6.965,2.069h-1.3V49.826c1.444-.674,1.444-2.117,1.444-3.416V27.872c0-1.371,0-1.6-1.2-2.009a1.023,1.023,0,0,1-.818-1c0-1.071,1.2-1.143,1.371-1.143h10.43c.156,0,1.371.072,1.371,1.143a1.01,1.01,0,0,1-.818,1c-1.287.409-1.2.638-1.2,2.009Z" transform="translate(0.002 -11.031)" fill="#fff"/>
        <path id="パス_4253" data-name="パス 4253" d="M45.678,23.77h9.816V51.438H45.678c-.144,0-1.359-.072-1.359-1.2a1.01,1.01,0,0,1,.806-1c1.3-.409,1.263-.638,1.263-2.009V27.872c0-1.371,0-1.6-1.263-2.009a1.01,1.01,0,0,1-.806-1c0-1.071,1.2-1.143,1.359-1.143m11.452,0h8.252v7.519c0,.192,0,.89-1.143.89-.626,0-.818-.373-1-.926a7.122,7.122,0,0,0-6.111-5.341Zm0,12.379a3.946,3.946,0,0,0,2.586-3.26c.192-.638.409-1.2,1.2-1.2,1.2,0,.962,1.335.962,1.624v8.012c0,.3.18,1.636-.962,1.636-.782,0-1-.6-1.2-1.2a3.946,3.946,0,0,0-2.586-3.26Zm0,13.233a7.6,7.6,0,0,0,6.292-5.377c.265-.553.481-1.2,1.2-1.2a1.059,1.059,0,0,1,1.071,1.2v7.41H57.13Z" transform="translate(-20.607 -11.031)" fill="#fff"/>
        <path id="パス_4254" data-name="パス 4254" d="M45.678,23.812h9.816V51.48H45.678c-.144,0-1.359-.072-1.359-1.2a1.01,1.01,0,0,1,.806-1c1.3-.409,1.263-.638,1.263-2.009V27.914c0-1.371,0-1.6-1.263-2.009a1.01,1.01,0,0,1-.806-1C44.319,23.884,45.534,23.812,45.678,23.812Zm11.452,0h8.252v7.519c0,.192,0,.89-1.143.89-.626,0-.818-.373-1-.926a7.122,7.122,0,0,0-6.111-5.341Zm0,12.379a3.946,3.946,0,0,0,2.586-3.26c.192-.638.409-1.2,1.2-1.2,1.2,0,.962,1.335.962,1.624v8.012c0,.3.18,1.636-.962,1.636-.782,0-1-.6-1.2-1.2a3.946,3.946,0,0,0-2.586-3.26Zm0,13.233a7.6,7.6,0,0,0,6.292-5.377c.265-.553.481-1.2,1.2-1.2a1.059,1.059,0,0,1,1.071,1.2v7.41H57.13Z" transform="translate(-20.607 -11.073)" fill="#fff"/>
        <path id="パス_4255" data-name="パス 4255" d="M91.223,23.77H101V51.438h-9.78c-.144,0-1.371-.072-1.371-1.2a1.023,1.023,0,0,1,.818-1c1.3-.409,1.2-.638,1.2-2.009V27.872c0-1.371,0-1.6-1.2-2.009a1.023,1.023,0,0,1-.818-1c0-1.071,1.2-1.143,1.371-1.143m11.452,0h8.252v7.519c0,.192,0,.89-1.143.89-.626,0-.818-.373-1-.926a7.122,7.122,0,0,0-6.111-5.341Zm0,12.379a3.946,3.946,0,0,0,2.586-3.26c.192-.638.409-1.2,1.2-1.2,1.2,0,.962,1.335.962,1.624v8.012c0,.3.18,1.636-.962,1.636-.782,0-1-.6-1.2-1.2a3.946,3.946,0,0,0-2.586-3.26Zm0,13.233a7.6,7.6,0,0,0,6.292-5.377c.265-.553.481-1.2,1.2-1.2a1.059,1.059,0,0,1,1.071,1.2v7.41h-8.565Z" transform="translate(-41.78 -11.031)" fill="#fff"/>
        <path id="パス_4256" data-name="パス 4256" d="M91.223,23.812H101V51.48h-9.78c-.144,0-1.371-.072-1.371-1.2a1.023,1.023,0,0,1,.818-1c1.3-.409,1.2-.638,1.2-2.009V27.914c0-1.371,0-1.6-1.2-2.009a1.023,1.023,0,0,1-.818-1C89.9,23.884,91.1,23.812,91.223,23.812Zm11.452,0h8.252v7.519c0,.192,0,.89-1.143.89-.626,0-.818-.373-1-.926a7.122,7.122,0,0,0-6.111-5.341Zm0,12.379a3.946,3.946,0,0,0,2.586-3.26c.192-.638.409-1.2,1.2-1.2,1.2,0,.962,1.335.962,1.624v8.012c0,.3.18,1.636-.962,1.636-.782,0-1-.6-1.2-1.2a3.946,3.946,0,0,0-2.586-3.26Zm0,13.233a7.6,7.6,0,0,0,6.292-5.377c.265-.553.481-1.2,1.2-1.2a1.059,1.059,0,0,1,1.071,1.2v7.41h-8.565Z" transform="translate(-41.78 -11.073)" fill="#fff"/>
        <path id="パス_4257" data-name="パス 4257" d="M137.139,27.872c0-1.371,0-1.6-1.2-2.009a1.023,1.023,0,0,1-.818-1c0-1.071,1.2-1.143,1.371-1.143h9.78V47.336c0,1.371,0,1.6,1.2,2.009a1.023,1.023,0,0,1,.818,1c0,1.071-1.2,1.2-1.371,1.2H136.441c-.144,0-1.371-.072-1.371-1.2a1.023,1.023,0,0,1,.818-1c1.287-.409,1.2-.638,1.2-2.009Zm10.742-4.15c3.525,0,5.594.361,7.338,1.371a7.651,7.651,0,0,1,3.813,7.218,7.663,7.663,0,0,1-3.813,7.218c-1.744,1-3.813,1.371-7.338,1.371V38.7c2.189-.4,2.3-1.925,2.3-3.741V29.4c0-1.672-.325-3.188-2.3-3.489Z" transform="translate(-62.806 -11.031)" fill="#fff"/>
        <path id="パス_4258" data-name="パス 4258" d="M137.139,27.872c0-1.371,0-1.6-1.2-2.009a1.023,1.023,0,0,1-.818-1c0-1.071,1.2-1.143,1.371-1.143h9.78V47.336c0,1.371,0,1.6,1.2,2.009a1.023,1.023,0,0,1,.818,1c0,1.071-1.2,1.2-1.371,1.2H136.441c-.144,0-1.371-.072-1.371-1.2a1.023,1.023,0,0,1,.818-1c1.287-.409,1.2-.638,1.2-2.009Zm10.742-4.15c3.525,0,5.594.361,7.338,1.371a7.651,7.651,0,0,1,3.813,7.218,7.663,7.663,0,0,1-3.813,7.218c-1.744,1-3.813,1.371-7.338,1.371V38.7c2.189-.4,2.3-1.925,2.3-3.741V29.4c0-1.672-.325-3.188-2.3-3.489Z" transform="translate(-62.806 -11.031)" fill="#fff"/>
        <rect id="長方形_673" data-name="長方形 673" width="4.836" height="2.105" transform="translate(15.218 4.379)" fill="#fff"/>
        <rect id="長方形_674" data-name="長方形 674" width="4.836" height="2.105" transform="translate(15.218 4.379)" fill="#fff"/>
        <path id="パス_4259" data-name="パス 4259" d="M44.308.806a.914.914,0,0,0-.71,1V9.022a.914.914,0,0,0,.71.986v.818C41.373,10.562,40,8.2,40,5.449S41.373.265,44.308,0Zm.614,9.155a.926.926,0,0,0,.71-.986V1.756a.926.926,0,0,0-.71-1V0c2.935.265,4.307,2.634,4.307,5.389s-1.371,5.113-4.307,5.437Z" transform="translate(-18.6)" fill="#fff"/>
        <path id="パス_4260" data-name="パス 4260" d="M44.308.806a.914.914,0,0,0-.71,1V9.022a.914.914,0,0,0,.71.986v.818C41.373,10.562,40,8.2,40,5.449S41.373.265,44.308,0Zm.614,9.155a.926.926,0,0,0,.71-.986V1.756a.926.926,0,0,0-.71-1V0c2.935.265,4.307,2.634,4.307,5.389s-1.371,5.113-4.307,5.437Z" transform="translate(-18.6)" fill="#fff"/>
        <path id="パス_4261" data-name="パス 4261" d="M64,11a5.425,5.425,0,0,1-2.935-.6c-1.2-.686-1.407-1.2-1.407-1.9V1.925c0-.505,0-.589-.469-.746a.385.385,0,0,1-.3-.373c0-.4.457-.433.505-.433h3.958s.505,0,.505.433a.385.385,0,0,1-.3.373c-.481.156-.469.241-.469.746V8.589A1.371,1.371,0,0,0,64,10.117Zm2.466-8.421c-.217-1.732-1.107-1.2-1.107-1.78s.577-.409.722-.409h1.576c.156,0,.722,0,.722.409s-.878,0-1.107,1.78V7.783a3,3,0,0,1-2.6,3.128v-.818a2.3,2.3,0,0,0,1.853-2.334Z" transform="translate(-27.383 -0.168)" fill="#fff"/>
        <path id="パス_4262" data-name="パス 4262" d="M64,11a5.425,5.425,0,0,1-2.935-.6c-1.2-.686-1.407-1.2-1.407-1.9V1.925c0-.505,0-.589-.469-.746a.385.385,0,0,1-.3-.373c0-.4.457-.433.505-.433h3.958s.505,0,.505.433a.385.385,0,0,1-.3.373c-.481.156-.469.241-.469.746V8.589A1.371,1.371,0,0,0,64,10.117Zm2.466-8.421c-.217-1.732-1.107-1.2-1.107-1.78s.577-.409.722-.409h1.576c.156,0,.722,0,.722.409s-.878,0-1.107,1.78V7.783a3,3,0,0,1-2.6,3.128v-.818a2.3,2.3,0,0,0,1.853-2.334Z" transform="translate(-27.383 -0.168)" fill="#fff"/>
        <path id="パス_4263" data-name="パス 4263" d="M78.024.382h2v.806a3.2,3.2,0,0,0-1.047,2.153c0,.313-.108.674-.493.674a.421.421,0,0,1-.457-.409Zm2.61,0h3.392V9.188c0,.517,0,.6.469.746a.4.4,0,0,1,.313.373c0,.409-.457.433-.517.433h-3.91s-.517,0-.517-.433a.385.385,0,0,1,.3-.373c.493-.144.469-.229.469-.746Zm6.015,3.224a.409.409,0,0,1-.445.409c-.4,0-.457-.361-.505-.674a3.128,3.128,0,0,0-1.047-2.153V.382h1.985Z" transform="translate(-36.28 -0.178)" fill="#fff"/>
        <path id="パス_4264" data-name="パス 4264" d="M78.024.382h2v.806a3.2,3.2,0,0,0-1.047,2.153c0,.313-.108.674-.493.674a.421.421,0,0,1-.457-.409Zm2.61,0h3.392V9.188c0,.517,0,.6.469.746a.4.4,0,0,1,.313.373c0,.409-.457.433-.517.433h-3.91s-.517,0-.517-.433a.385.385,0,0,1,.3-.373c.493-.144.469-.229.469-.746Zm6.015,3.224a.409.409,0,0,1-.445.409c-.4,0-.457-.361-.505-.674a3.128,3.128,0,0,0-1.047-2.153V.382h1.985Z" transform="translate(-36.28 -0.178)" fill="#fff"/>
        <path id="パス_4265" data-name="パス 4265" d="M99.857,10.771H96.248c-.06,0-.505,0-.505-.433a.385.385,0,0,1,.3-.373c.481-.144.469-.229.469-.746V2c0-.505,0-.589-.469-.746a.385.385,0,0,1-.3-.373c0-.4.445-.433.505-.433h3.91s.517,0,.517.433a.385.385,0,0,1-.3.373c-.517.156-.517.156-.517.71Zm.614-.806c1.131-.144,1.756-1.119,2.057-2.406,0-.3.229-.385.517-.385s.421.253.421.517v3.08h-2.959Z" transform="translate(-44.519 -0.209)" fill="#fff"/>
        <path id="パス_4266" data-name="パス 4266" d="M99.857,10.771H96.248c-.06,0-.505,0-.505-.433a.385.385,0,0,1,.3-.373c.481-.144.469-.229.469-.746V2c0-.505,0-.589-.469-.746a.385.385,0,0,1-.3-.373c0-.4.445-.433.505-.433h3.91s.517,0,.517.433a.385.385,0,0,1-.3.373c-.517.156-.517.156-.517.71Zm.614-.806c1.131-.144,1.756-1.119,2.057-2.406,0-.3.229-.385.517-.385s.421.253.421.517v3.08h-2.959Z" transform="translate(-44.519 -0.209)" fill="#fff"/>
        <path id="パス_4267" data-name="パス 4267" d="M111.572.382h3.609V10.74h-3.609s-.517,0-.517-.433a.4.4,0,0,1,.313-.373c.481-.144.469-.229.469-.746V1.97c0-.505,0-.589-.469-.746a.4.4,0,0,1-.313-.373c0-.4.457-.433.517-.433m4.271,0h3.092V3.2c0,.072,0,.325-.433.325-.241,0-.3-.132-.373-.337a2.659,2.659,0,0,0-2.286-2Zm0,4.631a1.5,1.5,0,0,0,.974-1.2c.072-.229.144-.457.445-.457s.349.505.349.614V6.926c0,.12.072.614-.349.614s-.373-.217-.445-.457a1.48,1.48,0,0,0-.974-1.2Zm0,4.92a2.839,2.839,0,0,0,2.406-2.009c.1-.2.18-.421.421-.421a.4.4,0,0,1,.409.469v2.767h-3.236Z" transform="translate(-51.64 -0.178)" fill="#fff"/>
        <path id="パス_4268" data-name="パス 4268" d="M111.572.382h3.609V10.74h-3.609s-.517,0-.517-.433a.4.4,0,0,1,.313-.373c.481-.144.469-.229.469-.746V1.97c0-.505,0-.589-.469-.746a.4.4,0,0,1-.313-.373C111.055.418,111.512.382,111.572.382Zm4.271,0h3.092V3.2c0,.072,0,.325-.433.325-.241,0-.3-.132-.373-.337a2.659,2.659,0,0,0-2.286-2Zm0,4.631a1.5,1.5,0,0,0,.974-1.2c.072-.229.144-.457.445-.457s.349.505.349.614V6.926c0,.12.072.614-.349.614s-.373-.217-.445-.457a1.48,1.48,0,0,0-.974-1.2Zm0,4.92a2.839,2.839,0,0,0,2.406-2.009c.1-.2.18-.421.421-.421a.4.4,0,0,1,.409.469V10.74h-3.236Z" transform="translate(-51.64 -0.178)" fill="#fff"/>
        <path id="パス_4269" data-name="パス 4269" d="M127.694.382h1.985v.806a3.128,3.128,0,0,0-1.035,2.153c0,.313-.108.674-.493.674a.421.421,0,0,1-.457-.409Zm2.659,0h3.392V9.188c0,.517,0,.6.469.746a.385.385,0,0,1,.3.373c0,.409-.457.433-.505.433h-3.97s-.505,0-.505-.433a.385.385,0,0,1,.3-.373c.517-.132.517-.229.517-.746Zm6.015,3.224a.421.421,0,0,1-.457.409c-.385,0-.457-.361-.493-.674a3.2,3.2,0,0,0-1.107-2.153V.382h2.057Z" transform="translate(-59.377 -0.178)" fill="#fff"/>
        <path id="パス_4270" data-name="パス 4270" d="M127.694.382h1.985v.806a3.128,3.128,0,0,0-1.035,2.153c0,.313-.108.674-.493.674a.421.421,0,0,1-.457-.409Zm2.659,0h3.392V9.188c0,.517,0,.6.469.746a.385.385,0,0,1,.3.373c0,.409-.457.433-.505.433h-3.97s-.505,0-.505-.433a.385.385,0,0,1,.3-.373c.517-.132.517-.229.517-.746Zm6.015,3.224a.421.421,0,0,1-.457.409c-.385,0-.457-.361-.493-.674a3.2,3.2,0,0,0-1.107-2.153V.382h2.057Z" transform="translate(-59.377 -0.178)" fill="#fff"/>
        <rect id="長方形_675" data-name="長方形 675" width="4.836" height="2.105" transform="translate(77.424 4.379)" fill="#fff"/>
        <rect id="長方形_676" data-name="長方形 676" width="4.836" height="2.105" transform="translate(77.424 4.379)" fill="#fff"/>
        <path id="パス_4271" data-name="パス 4271" d="M58.01,79.76,57.7,80.4H56.6l-.818.072-.229-.072h0a2.659,2.659,0,0,1-.445.108h-.577a2.082,2.082,0,0,0-.373.06,2.706,2.706,0,0,1-.481,0h-.217v.168h-.156v.6l.072.108v.529a1.636,1.636,0,0,1-.1.722l.1.132-.072.385.072.1-.132.217v.1l-.277.192v.83l-.084.253a.144.144,0,0,1,0,.06.878.878,0,0,0,0,.168h0V85.2a.4.4,0,0,1-.108.265v.3h0a.6.6,0,0,0,0,.144,1.4,1.4,0,0,0,0,.421h-.325a.469.469,0,0,1-.192,0h0c-.229,0-.337-.265-.337-.626v-.469a2.766,2.766,0,0,1,0-.277.6.6,0,0,1,0-.229V84.2a.493.493,0,0,1-.1-.229.192.192,0,0,1,0-.108.337.337,0,0,1,.06-.048.2.2,0,0,1,.06-.168.83.83,0,0,1,.108-.325.686.686,0,0,1,0-.217.084.084,0,0,0,.1-.1v-.084a.193.193,0,0,1,0-.12h0l-.06-.108a1.2,1.2,0,0,1,.06-.433v-.373l-.06-.277.06-.505-.06-.373V80.6h-.2l-.144.072h-.1v.06a2.551,2.551,0,0,1-.529,0v.108l-.505-.168h-.686l-.421.12c-.349-.3-.517-.505-.517-.638a.83.83,0,0,1,0-.241h0l.289-.241h.241l.866.144.229-.072h.662l.517.072.337-.132.12-.337.517.132h0l.18.2h0l.192-.084.373.084a6.018,6.018,0,0,1,.662-.084.89.89,0,0,1,.325.072h.481l.433-.084H55.8l.192-.084.277.084h1.612Z" transform="translate(-22.775 -36.898)" fill="#fff"/>
        <path id="パス_4272" data-name="パス 4272" d="M73.167,82.985l-.132.277v.433l-.12.108a.794.794,0,0,1-.409.662h-.084l-.782.541-.229.132-.385.409H70.8l-.144.108-.253.084-.65.337a.71.71,0,0,1-.217-.108.493.493,0,0,1-.277.168H69.2l-.253.2h-.337l-.12.084h-.493l-.65.132h-.662l-.06-.072-.517-.072-.217-.108h-.313V86.16l-.253-.253L65,85.691l-.168-.361v-.289l-.072-.1v-.589l.168-.517v-.674l.18-.18v-.06l.084-.144v-.132h0l-.072-.144.217-.144.241-.517.529-.77h.132a1.131,1.131,0,0,1,.12-.168l.132-.108v-.2h.192a1.431,1.431,0,0,1,.421-.229l.072-.072a3.055,3.055,0,0,1,.674-.132h2.225a.132.132,0,0,0,.084-.132c0,.084.132.132.277.132l.108.108h.469l.878.385.1.277.084.12.229.1.349.565.2.265a4.211,4.211,0,0,1,.361.974Zm-.974.084-.072-.361.072-.108-.1-.217a.181.181,0,0,0,0-.084h0l-.229-.156-.084-.2h-.1v-.18l-.325-.3L71.17,81.3H71.1a2.6,2.6,0,0,0-1.107-.421H69.8l-.229-.072-.132.072-.241-.06h-.349a.794.794,0,0,1-.421.277h-.168l-.18.084h-.241a5.269,5.269,0,0,1-.541.373l-.072.1-.06.289-.3.12v.072a1.42,1.42,0,0,1-.2.289v.217l-.18.072h0l-.108.4-.18.1a2,2,0,0,1-.229.926.638.638,0,0,0-.108.385v.433l.156.168v.168l.132.132a1.42,1.42,0,0,0,.65.217l.541-.144.12.12h.18l.385-.084.409.072a.349.349,0,0,1,.253-.108,1,1,0,0,1,.505-.18l.265-.156h.217l.168-.132h.517a.409.409,0,0,1,.265-.168l.156-.361h.217l.18-.168h0l.2-.192.385-.4h.168l.084-.192h.1v-.12Z" transform="translate(-30.112 -37.212)" fill="#fff"/>
        <path id="パス_4273" data-name="パス 4273" d="M92.042,84.716l-.144.217-.385.481-.3.229-.373.2-.409.144-.361.072h-1.4l-.192-.18-.325-.072-.06-.084h-.108l-.289-.265-.265-.072-.144-.168h-.517v-.2h-.132l-.084-.132-.2-.084h0l-.241-.265-.229-.156-.313-.168-.253-.156a4.234,4.234,0,0,0-.481-.313q0-.144-.108-.144h-.373l.06.373h-.084V84.1l-.1.493a1.011,1.011,0,0,1,.084.313l-.072.144v.433l-.1.229v.265l-.18.361-.337.505c-.313,0-.481-.12-.505-.373l.036-.253v-.241h0v-.168a.265.265,0,0,1,0-.12.361.361,0,0,1,.06-.168l-.06-.156.192-.253-.072-.2v-.132a.806.806,0,0,1,0-.217.758.758,0,0,1,0-.229v-.469a.565.565,0,0,1,0-.277h0l-.12-.277.084-.108v-.77l.1-.1a.409.409,0,0,1,0-.2v-.2h0v-.794a.6.6,0,0,1,.12-.192s0-.12,0-.156v-.156a.914.914,0,0,1-.12-.433,1.2,1.2,0,0,1,.168-.565,2.958,2.958,0,0,1,.4-.084,1.2,1.2,0,0,1,.409.12l.3.349V80.3l.132.144-.072.168v.168l-.156.253.06.373-.1.313v.517l.156.229h.084l.229.072.108-.072h.108l.084-.06h.313l.12-.072.361-.12h.289a.674.674,0,0,1,.349-.168h0a.811.811,0,0,1,.361-.108l.325-.132.12-.18.192-.072V81.4h.12v.012h.217l.132-.229h.132a.4.4,0,0,1,.289-.325l.084-.108V80.6h.229a.7.7,0,0,1,.253-.349.949.949,0,0,0,0-.156l.168-.217.132-.12c0-.277.192-.409.505-.409a2.165,2.165,0,0,1,.3.373l-.12.325h0V80.2l-.1.084v.217h-.144l-.108.3L89.612,81a.505.505,0,0,1-.313.313h0a.662.662,0,0,1-.084.253l-.313.06a.361.361,0,0,1-.156.144v.084l-.265.084-.253.265-.385.192-.265.192-.265.06-.2.108-.337.072-.313.18-.373.18h-.132a1.2,1.2,0,0,1,.3.265l.277.217.421.253v.1l.277.072.337.2.409.2.217.18.229.072.349.241.445.132h.325l.614-.084h.229a.4.4,0,0,1,.265-.108.481.481,0,0,1,.156-.084h0l.217-.253.1-.06v-.084a1.288,1.288,0,0,1,.325-.144h0l.325-.072.2.108Z" transform="translate(-38.654 -36.898)" fill="#fff"/>
        <path id="パス_4274" data-name="パス 4274" d="M108.391,79.252a.258.258,0,0,1-.144.2.361.361,0,0,0-.156.253.734.734,0,0,1-.18.2c0,.108-.12.168-.265.2l-.229.18-.168.313h-.132a1.071,1.071,0,0,1-.229.241l-.229.108-.265.3-.373.253h-.108l-.12.217-.289.168-.144.144-.12.325-.481.529-.156.229-.072.132.084.132-.108.229.072.229-.108.289v.18l.1.373a.662.662,0,0,0-.192.421v.277a1.466,1.466,0,0,1,0,.265l-.108.565v.325l-.06.12.1.469-.108.144.1.241-.084.12.06.1a.421.421,0,0,1,0,.168v.072l-.1.325.084.349-.12.241.12.156v.1a1.2,1.2,0,0,1-.156.734.589.589,0,0,1-.529.217l-.12-.626-.108-.373V88.84l-.168-.1.108-.265V87.9l-.084-.409v-.373a.2.2,0,0,1,0-.192v-.072l-.072-.6.072-.289v-.313l.084-.517-.12-.2.06-.313v-.241l-.1-.241a1.2,1.2,0,0,0,.1-.361.181.181,0,0,0,0-.12v-.229l-.084-.229-.12-.1-.084-.12a2.189,2.189,0,0,1-.577-.565l-.156-.108-.18-.337L101.5,81.5l-.1-.18-.217-.265-.385-.313v-.132l-.192-.12a.287.287,0,0,0-.277-.325,1.035,1.035,0,0,1-.541-.914v-.337h.156a.457.457,0,0,1,.289-.072,1.924,1.924,0,0,1,.541.108l.1.217h.2l.229.361.337.253.1.12.265.433.192.144.722.986.229.3c.313.313.553.577.722.77h0a.578.578,0,0,1,.156-.325v.1a.878.878,0,0,1,.229-.337.457.457,0,0,1,.18-.289.794.794,0,0,1,.241-.289h.12a.469.469,0,0,1,.469-.349v.06l.12-.229h.132l.192-.229.084-.168a.878.878,0,0,1,.565-.337v-.156l.084-.108.132-.108.072-.265h.108c.108,0,.144-.1.2-.313l.4-.168.2-.2h.361l.313-.12.108.265a1.4,1.4,0,0,1,0,.337" transform="translate(-46.401 -36.595)" fill="#fff"/>
        <path id="パス_4275" data-name="パス 4275" d="M125.345,82.985l-.132.277v.433l-.132.108a.77.77,0,0,1-.4.662h-.1l-.77.541-.241.132-.373.409h-.229l-.144.108-.265.084-.65.337a.673.673,0,0,1-.2-.108.493.493,0,0,1-.289.168h0l-.265.2h-.241l-.12.084H120.3l-.65.132h-.662l-.06-.072-.529-.072-.277-.18h-.361v-.144l-.241-.253-.325-.144-.144-.361v-.289l-.132-.144v-.589l.168-.517v-.626l.18-.18v-.06l.072-.144v-.132h0l-.06-.144.2-.144.253-.517.529-.77h.132a.962.962,0,0,1,.108-.168l.132-.108v-.2h.192a1.491,1.491,0,0,1,.433-.229l.06-.072a3.453,3.453,0,0,1,.674-.132h2.238a.132.132,0,0,0,.072-.132.3.3,0,0,0,.289.132l.108.108h.385l.866.385.108.277.072.12.241.1.349.565.2.265a4.535,4.535,0,0,1,.349.974Zm-.974.084V82.6l-.084-.217V82.3l-.241-.156-.072-.2h-.108v-.18l-.325-.3-.192-.156h-.084a2.538,2.538,0,0,0-1.095-.421h-.192l-.241-.072-.132.072-.229-.06h-.361a.782.782,0,0,1-.433.277h-.168l-.18.084H120a4.4,4.4,0,0,1-.553.373l-.06.1v.289l-.3.12v.072a2.262,2.262,0,0,1-.217.289v.217l-.18.072h0l-.12.4-.18.1a1.889,1.889,0,0,1-.217.926.734.734,0,0,0-.12.385v.433l.156.168v.168l.132.132a1.42,1.42,0,0,0,.65.217l.541-.144.12.12h.18l.385-.084.421.072a.325.325,0,0,1,.241-.108,1.071,1.071,0,0,1,.505-.18l.277-.156h.072l.168-.132h.517a.433.433,0,0,1,.277-.168l.156-.361h.2l.18-.168h.072l.217-.156.4-.4h.168l.072-.192h.108v-.12Z" transform="translate(-54.369 -37.212)" fill="#fff"/>
      </g>
    </g>
  </g>
</svg>
