<svg xmlns="http://www.w3.org/2000/svg" xmlns:xlink="http://www.w3.org/1999/xlink" width="109" height="56" viewBox="0 0 109 56">
  <defs>
    <clipPath id="clip-path">
      <rect id="長方形_671" data-name="長方形 671" width="109" height="56" transform="translate(203 1086.525)" fill="#fff"/>
    </clipPath>
  </defs>
  <g id="マスクグループ_41" data-name="マスクグループ 41" transform="translate(-203 -1086.525)" clip-path="url(#clip-path)">
    <g id="レイヤー_2" data-name="レイヤー 2" transform="translate(203 1097.896)">
      <g id="レイヤー_1" data-name="レイヤー 1">
        <path id="パス_4226" data-name="パス 4226" d="M3.838,7.044C3,3.956,2.634,1.254,0,1.153V0C1.49.05,2.979.143,4.469.194S7.574.05,9.131,0V1.111c-.926,0-2.474,0-2.474,1.978,0,1.683,1.9,9.064,2.407,11.092l3.223,12.245L15.3,15.241c.572-2.365,2.373-9.645,2.373-11.766,0-2.415-1.271-2.365-2.474-2.365V0c1.2.05,2.407.143,3.61.194S21.04.05,22.142,0V1.111c-2.786-.05-3.291,4.048-4.115,7.305L11.6,32.822h-.951Z" fill="#fff"/>
        <path id="パス_4227" data-name="パス 4227" d="M43.82,9.165a41.484,41.484,0,0,0-.32-6.413c-.412-1.641-1.683-1.641-2.727-1.641V0c1.523.05,3.047.143,4.57.194S48.542.05,50.124,0V1.111c-1.01,0-2.314,0-2.727,1.683a41.484,41.484,0,0,0-.278,6.371v13.6a41.533,41.533,0,0,0,.32,6.413c.412,1.641,1.683,1.641,2.727,1.641v1.1c-1.49,0-3.047-.143-4.561-.185s-3.2.143-4.789.185v-1.1c1.018,0,2.314,0,2.727-1.641a41.533,41.533,0,0,0,.32-6.413Z" transform="translate(-18.505)" fill="#fff"/>
        <path id="パス_4228" data-name="パス 4228" d="M79.055,27.966c1.01,1.793,1.49,2.466,3.105,2.853v1.1c-.951,0-1.9-.143-2.853-.185-.791,0-1.582.143-2.382.185l-1.481-2.794L70.185,19.2c-1.044-1.835-.926-2.121-2.6-2.121v5.689a46.37,46.37,0,0,0,.286,6.413c.379,1.683,1.683,1.641,2.693,1.641v1.1c-1.456,0-2.946-.143-4.469-.185s-3.164.143-4.755.185v-1.1c1.018,0,2.348,0,2.7-1.641a46.37,46.37,0,0,0,.286-6.413V9.165a46.285,46.285,0,0,0-.311-6.413c-.353-1.683-1.683-1.641-2.7-1.641V0c1.86.05,3.678.143,5.479.194C68.123.143,69.486.05,70.816,0c3.61,0,7.255,1.254,7.255,7.962,0,5.21-2.592,7.861-5.731,8.29ZM67.584,15.772c3.964,0,6.842-.143,6.842-7.137,0-4.208-1.582-7.238-4.435-7.238a7.2,7.2,0,0,0-2.054.05c-.421.286-.353,1.2-.353,1.734Z" transform="translate(-27.827)" fill="#fff"/>
        <path id="パス_4229" data-name="パス 4229" d="M105.842,19.921V25.61c0,4.578.093,4.822,3.131,5.21v1.1c-1.557,0-3.08-.143-4.629-.185s-3.2.143-4.814.185v-1.1c1.018,0,2.314,0,2.727-1.641a41.534,41.534,0,0,0,.32-6.413V9.165a41.479,41.479,0,0,0-.32-6.413c-.412-1.641-1.683-1.641-2.727-1.641V0c1.523.05,3.013.143,4.553.194C105.766.143,107.348.05,109,0V1.111c-3.038.387-3.131.673-3.131,5.2V18.094c1.515-2.407,7.625-12.254,7.625-15.039,0-2.037-1.422-1.793-2.373-1.936V0c1.271.05,2.525.143,3.77.194,1.086-.05,2.163-.143,3.265-.194V1.111c-1.734.05-2.154.673-3.2,2.7l-5.05,9.544,4.41,7.726c.37.715,3.7,7.372,5.184,9.014.64.724,1.111.623,1.868.724v1.1c-1.683,0-3.366-.143-5.05-.185s-3.206.143-4.822.185v-1.1c.572,0,2.659.143,2.659-1.448,0-1.01-1.995-4.587-2.525-5.5l-3.838-7.044Z" transform="translate(-45.171)" fill="#fff"/>
        <path id="パス_4230" data-name="パス 4230" d="M141.261,9.165a41.479,41.479,0,0,0-.32-6.413c-.412-1.641-1.683-1.641-2.718-1.641V0c1.515.05,3.038.143,4.561.194s3.2-.143,4.78-.194V1.111c-1.01,0-2.306,0-2.727,1.683a42.591,42.591,0,0,0-.311,6.413V22.765a42.644,42.644,0,0,0,.311,6.413c.421,1.641,1.683,1.641,2.727,1.641v1.1c-1.481,0-3.038-.143-4.553-.185s-3.207.143-4.789.185v-1.1c1.01,0,2.306,0,2.718-1.641a41.535,41.535,0,0,0,.32-6.413Z" transform="translate(-62.732)" fill="#fff"/>
        <path id="パス_4231" data-name="パス 4231" d="M161.922,4.006c-.985-2.121-1.75-2.845-3.451-2.9V0c1.01.05,1.986.143,3,.194C162.317.143,163.159.05,164,0l13.373,24.836h.059v-13.4a63.665,63.665,0,0,0-.311-7.431c-.379-2.7-1.237-2.525-2.819-2.9V0c1.178.05,2.314.143,3.484.194S179.974.05,181.152,0V1.111c-1.17.194-1.986.05-2.407,2.121a72.376,72.376,0,0,0-.379,8.416v20.8h-.951c-.7-1.3-1.389-2.643-2.087-4L162.932,5.6h-.059V21.8a34.714,34.714,0,0,0,.471,7.044c.539,1.877,1.582,1.784,2.752,1.978v1.1c-1.2,0-2.441-.143-3.636-.185s-2.348.143-3.518.185v-1.1c1.229-.194,2.407-.286,2.727-2.365a57.435,57.435,0,0,0,.252-6.657Z" transform="translate(-71.921)" fill="#fff"/>
      </g>
    </g>
  </g>
</svg>
