<svg xmlns="http://www.w3.org/2000/svg" xmlns:xlink="http://www.w3.org/1999/xlink" width="146" height="83" viewBox="0 0 146 83">
  <defs>
    <clipPath id="clip-path">
      <rect id="長方形_682" data-name="長方形 682" width="146" height="83" transform="translate(182.012 2081.697)" fill="#fff"/>
    </clipPath>
  </defs>
  <g id="マスクグループ_48" data-name="マスクグループ 48" transform="translate(-182.012 -2081.697)" clip-path="url(#clip-path)">
    <g id="レイヤー_2" data-name="レイヤー 2" transform="translate(212.622 2081.97)">
      <g id="レイヤー_1" data-name="レイヤー 1">
        <path id="パス_4347" data-name="パス 4347" d="M46.251,15.648h.15a.178.178,0,0,1,.068-.123.479.479,0,0,1,.246,0h.41a4.1,4.1,0,0,0,.6-.1,6.373,6.373,0,0,0,.82-.273,6.838,6.838,0,0,0,.725-.342,2.831,2.831,0,0,0,.684-.52,1.832,1.832,0,0,0,.438-.615,1.367,1.367,0,0,0,0-.875,1.463,1.463,0,0,0-.342-.711,1.272,1.272,0,0,0-.561-.273,1.914,1.914,0,0,0-.684,0,7.07,7.07,0,0,0-.738.15l-.752.219a5.47,5.47,0,0,1-.629.164,1.367,1.367,0,0,1-.506,0,.41.41,0,0,1-.232-.232.328.328,0,0,1,0-.3.889.889,0,0,1,.219-.3,1.832,1.832,0,0,1,.356-.26l.424-.205a2.27,2.27,0,0,1,.533-.109,4.664,4.664,0,0,1,.574,0,2.5,2.5,0,0,1,.479,0,.615.615,0,0,1,.328.137.383.383,0,0,1,.15.178h.109l.287-1.367h-.137a.26.26,0,0,1-.178.123,1.231,1.231,0,0,1-.342,0H48.22L47.5,10.1a4.54,4.54,0,0,0-.93.273,3.528,3.528,0,0,0-.985.574,2.27,2.27,0,0,0-.574.656,1.367,1.367,0,0,0-.205.67,1.477,1.477,0,0,0,.123.6,1.263,1.263,0,0,0,1.08.793,1.928,1.928,0,0,0,.67,0,6.522,6.522,0,0,0,.643-.328L48,13.1a2.954,2.954,0,0,1,.684-.164,1.367,1.367,0,0,1,.465,0,.356.356,0,0,1,.26.26.438.438,0,0,1,0,.41,1.532,1.532,0,0,1-.328.342,4.485,4.485,0,0,1-.424.273l-.369.164a3.159,3.159,0,0,1-.465.137,4.1,4.1,0,0,1-.533,0H46.8a.766.766,0,0,1-.328-.109.219.219,0,0,1-.1-.123h-.109A7.514,7.514,0,0,0,46.251,15.648Z" transform="translate(-18.603 -4.107)" fill="#fff"/>
        <path id="パス_4348" data-name="パス 4348" d="M57.86,7.589l.834-.15.779-.123a.451.451,0,0,1,.191,0,.219.219,0,0,1,.109.178h.178l-.178-1.367h-.191a.205.205,0,0,1,0,.205.328.328,0,0,1-.178.068,36.51,36.51,0,0,0-4.567.93.451.451,0,0,1-.191,0s-.109,0-.137-.164h-.191L54.7,8.533h.178a.178.178,0,0,1,0-.191.287.287,0,0,1,.164-.1c.547-.15,1.094-.287,1.641-.4l.834,3.815a.15.15,0,0,1,0,.137.191.191,0,0,1-.109,0v.178l1.367-.287v-.164c-.123,0-.205,0-.232-.137Z" transform="translate(-22.554 -2.544)" fill="#fff"/>
        <path id="パス_4349" data-name="パス 4349" d="M65.847,11.36l1.285-.123v-.178c-.109,0-.178,0-.178-.1A.807.807,0,0,1,67,10.69l.287-.725h2.3l.356.738A.752.752,0,0,1,70,10.95a.137.137,0,0,1,0,.1h-.1v.178h1.586v-.178a.684.684,0,0,1-.164-.109.26.26,0,0,1-.123-.164,41.924,41.924,0,0,0-1.928-4.1l-.137-.082a.273.273,0,0,1,0-.15.15.15,0,0,1,.082-.15h.137v-.3H67.583v.178h.164a.191.191,0,0,1,.082.137.588.588,0,0,1,0,.191l-.123.246c-.561,1.367-1.08,2.612-1.518,3.938a2.733,2.733,0,0,1-.1.26.273.273,0,0,1-.178.15Zm1.7-2.147c.273-.643.547-1.258.848-1.873.3.615.588,1.217.861,1.819C68.691,9.172,68.117,9.158,67.542,9.213Z" transform="translate(-27.341 -2.486)" fill="#fff"/>
        <path id="パス_4350" data-name="パス 4350" d="M77.592,6.267v.178c.205,0,.287.1.287.205l-.451,4.444c0,.109-.109.164-.287.15v.178A10.081,10.081,0,0,1,78.7,11.6v-.178a.506.506,0,0,1-.205,0,.15.15,0,0,1,0-.15l.191-1.832a6.75,6.75,0,0,1,1.367.205c.26.574.506,1.121.738,1.7l.068.191a.424.424,0,0,1,0,.123.1.1,0,0,1-.082,0h-.137v.178c.561.123,1.108.232,1.655.383v-.164l-.15-.068a.274.274,0,0,1-.109-.15c-.246-.711-.52-1.367-.807-2.092a2.119,2.119,0,0,0,1.094-.232,1.367,1.367,0,0,0,.615-.861,1.518,1.518,0,0,0,0-.738,1.244,1.244,0,0,0-.314-.465A1.928,1.928,0,0,0,82,7.032a3.665,3.665,0,0,0-.875-.26C79.971,6.54,78.782,6.39,77.592,6.267Zm1.19,2.448.191-1.367c.588.082,1.176.164,1.764.273a2.557,2.557,0,0,1,.588.164,1.23,1.23,0,0,1,.356.232.6.6,0,0,1,.15.273,1.011,1.011,0,0,1,0,.287.834.834,0,0,1-.123.273.479.479,0,0,1-.246.178,1.067,1.067,0,0,1-.4.082,3.61,3.61,0,0,1-.6,0,6.972,6.972,0,0,0-1.682-.4Z" transform="translate(-32.03 -2.602)" fill="#fff"/>
        <path id="パス_4351" data-name="パス 4351" d="M89.776,12.363l.971-.328c.3.793.574,1.586.807,2.393a.52.52,0,0,1,0,.246h-.137l-.068.164c.506.219,1.026.451,1.532.7v-.164a1.135,1.135,0,0,1-.205-.315,2.078,2.078,0,0,1-.027-.369c-.26-.985-.561-1.983-.93-2.981.93-.287,1.887-.52,2.858-.725a.588.588,0,0,1,.41,0l.068-.164c-.656-.315-1.367-.615-2.01-.889v.164a.137.137,0,0,1,.082,0,.109.109,0,0,1,0,.109.232.232,0,0,1-.123.082l-.356.164c-.861.232-1.7.492-2.516.779l.6-1.764a.15.15,0,0,1,.1-.109h.15l.068-.164c-.52-.164-1.039-.356-1.559-.492v.164a.164.164,0,0,1,.164.232l-1.3,4.266c0,.109-.109.15-.246.109v.178c.451.123.889.287,1.367.424v-.164a.178.178,0,0,1-.1-.082.191.191,0,0,1,0-.15Z" transform="translate(-36.584 -3.612)" fill="#fff"/>
        <path id="パス_4352" data-name="パス 4352" d="M45.171,125.646c-.082-.383-.15-.779-.205-1.176h-.15a.164.164,0,0,1,0,.109q0,.123-.287.164a2.174,2.174,0,0,1-.533,0,3.048,3.048,0,0,1-.656-.123,2.612,2.612,0,0,1-.629-.232,2.734,2.734,0,0,1-.67-.479,2.256,2.256,0,0,1-.41-.629,1.449,1.449,0,0,1-.123-.684,1.367,1.367,0,0,1,.246-.711,1.627,1.627,0,0,1,.506-.547,1.8,1.8,0,0,1,.629-.26,2,2,0,0,1,.7,0,2.119,2.119,0,0,1,.7.246,2.2,2.2,0,0,1,.424.273,3.185,3.185,0,0,1,.383.356,2,2,0,0,1,.287.342.41.41,0,0,1,.082.273h0l.068.1c.369-.246.738-.492,1.108-.766l-.082-.164h-.068a.082.082,0,0,1-.1,0,.821.821,0,0,1-.137-.15,2.735,2.735,0,0,0-.342-.328l-.506-.424a4.7,4.7,0,0,0-.7-.424,4.1,4.1,0,0,0-1.012-.369,2.967,2.967,0,0,0-1.039,0,2.5,2.5,0,0,0-.971.342,2.735,2.735,0,0,0-.807.807,2.3,2.3,0,0,0-.383,1.08,2.174,2.174,0,0,0,.178,1.053,2.817,2.817,0,0,0,.656.93,4.622,4.622,0,0,0,1.026.725,3.679,3.679,0,0,0,.889.328,3.966,3.966,0,0,0,.834.123h.985Z" transform="translate(-16.811 -49.823)" fill="#fff"/>
        <path id="パス_4353" data-name="パス 4353" d="M54.264,124.936a3.227,3.227,0,0,0-1.026.164,2.612,2.612,0,0,0-.93.52,2.188,2.188,0,0,0-.656.971,2.065,2.065,0,0,0-.137,1.162,2.448,2.448,0,0,0,.465,1.012,3.1,3.1,0,0,0,.861.766,3.788,3.788,0,0,0,1.067.451,3.582,3.582,0,0,0,1.149.15,3.159,3.159,0,0,0,1.135-.205,2.53,2.53,0,0,0,.9-.643,2.037,2.037,0,0,0,.492-1.067,2.229,2.229,0,0,0-.068-1.176,2.475,2.475,0,0,0-.547-.916,3.131,3.131,0,0,0-.793-.67,5.306,5.306,0,0,0-.916-.4A4.635,4.635,0,0,0,54.264,124.936Zm1.367,1.258a2.5,2.5,0,0,1,.533.465,1.928,1.928,0,0,1,.342.615,1.531,1.531,0,0,1,0,.752,1.367,1.367,0,0,1-.328.656,1.75,1.75,0,0,1-.588.41,2.242,2.242,0,0,1-.752.164,2.735,2.735,0,0,1-1.463-.4,2.037,2.037,0,0,1-.547-.533,1.463,1.463,0,0,1-.3-.643,1.244,1.244,0,0,1,0-.738,1.367,1.367,0,0,1,.4-.629,1.792,1.792,0,0,1,.6-.356,1.969,1.969,0,0,1,.7-.123,2.324,2.324,0,0,1,.7,0,2.365,2.365,0,0,1,.738.356Z" transform="translate(-21.378 -51.875)" fill="#fff"/>
        <path id="パス_4354" data-name="パス 4354" d="M68.779,127.9v-1.258h-.164a.178.178,0,0,1-.068.164.424.424,0,0,1-.26.068,33.8,33.8,0,0,1-4.1-.273v.164c.15,0,.219.082.205.205l-.547,4.294c0,.109-.109.164-.287.137v.178c.574.068,1.149.15,1.737.178v-.15a.725.725,0,0,1-.219,0s-.082-.082-.068-.137l.164-1.846c.629,0,1.258.109,1.887.109a.323.323,0,0,1,.4.356h.178v-1.367h-.219c0,.082,0,.15-.109.164a.833.833,0,0,1-.3,0c-.615,0-1.217-.082-1.832-.123l.109-1.176c.492,0,.971.1,1.463.1H68.2a.67.67,0,0,1,.273,0,.232.232,0,0,1,.082.164Z" transform="translate(-26.389 -52.565)" fill="#fff"/>
        <path id="パス_4355" data-name="パス 4355" d="M78.472,126.938l-.246-1.231h-.15a.205.205,0,0,1,0,.178.52.52,0,0,1-.246.109,29.057,29.057,0,0,1-4.1.451v.178c.164,0,.232,0,.246.164l.232,4.335c0,.109-.082.164-.26.178v.205c.588,0,1.162-.082,1.75-.123v-.164a.6.6,0,0,1-.232,0,.178.178,0,0,1-.1-.123l-.15-1.846a17.429,17.429,0,0,0,1.873-.205.533.533,0,0,1,.3,0,.3.3,0,0,1,.15.26h.178l-.219-1.367h-.164a.164.164,0,0,1-.082.191,1.108,1.108,0,0,1-.287,0c-.6.082-1.217.178-1.832.205l-.1-1.176a10.646,10.646,0,0,0,1.463-.164c.492-.068.957-.137,1.449-.219a.41.41,0,0,1,.26,0,.164.164,0,0,1,.109.137Z" transform="translate(-30.613 -52.196)" fill="#fff"/>
        <path id="パス_4356" data-name="パス 4356" d="M87.864,124.218l-.465-1.176-.15.068a.205.205,0,0,1,0,.178.451.451,0,0,1-.232.15,30.455,30.455,0,0,1-3.842,1.176v.164a.191.191,0,0,1,.123,0,.219.219,0,0,1,0,.109l1.012,4.225a.123.123,0,0,1,0,.137H84.2v.164a35.4,35.4,0,0,0,4.581-1.367.615.615,0,0,1,.232,0,.157.157,0,0,1,.15.109l.178-.068-.492-1.217-.164.068a.219.219,0,0,1,0,.205.41.41,0,0,1-.205.15c-.533.191-1.053.383-1.586.547l-.793.26-.807.232-.164-1.285c.615-.164,1.217-.356,1.819-.547a.629.629,0,0,1,.3,0c.082,0,.15.1.191.232H87.6l-.492-1.367h-.164a.287.287,0,0,1,0,.287.574.574,0,0,1-.273.15c-.574.191-1.162.383-1.75.533l-.314-1.149.7-.191.7-.219c.479-.15.93-.328,1.367-.492a.506.506,0,0,1,.26,0,.178.178,0,0,1,.137.123Z" transform="translate(-34.535 -51.089)" fill="#fff"/>
        <path id="パス_4357" data-name="パス 4357" d="M97.3,119.558l-.684-1.053-.137.082a.205.205,0,0,1,0,.178.328.328,0,0,1-.191.191,28.484,28.484,0,0,1-3.555,1.887l.082.15h.109a.137.137,0,0,1,.1.1l1.8,3.938a.15.15,0,0,1,0,.15.178.178,0,0,1-.1.082l.068.164a35.784,35.784,0,0,0,4.225-2.256l.219-.109a.234.234,0,0,1,.178.082l.15-.1-.711-1.108-.15.1a.219.219,0,0,1,0,.205.588.588,0,0,1-.178.191c-.944.588-1.928,1.135-2.926,1.627l-.588-1.176c.574-.287,1.121-.574,1.668-.889a.629.629,0,0,1,.3-.1c.082,0,.15.068.232.191l.15-.1-.766-1.272-.137.082q.109.191,0,.287a.629.629,0,0,1-.219.191c-.533.3-1.08.588-1.627.861l-.533-1.067a26.118,26.118,0,0,0,2.571-1.367.684.684,0,0,1,.26-.1.164.164,0,0,1,.137.1Z" transform="translate(-38.506 -49.205)" fill="#fff"/>
        <path id="パス_4358" data-name="パス 4358" d="M53.412,24.447l-1.846,4.964a2.735,2.735,0,0,0-.191,1V41.526L29.961,58.373a1.613,1.613,0,0,0-.615,1.272v2.147a1.614,1.614,0,0,0,2.188,1.5L51.4,55.734V63.61l-6.837,6.837a1.614,1.614,0,0,0-.479,1.135V72.73a1.614,1.614,0,0,0,2.215,1.49l8.273-3.3,8.2,3.323a1.6,1.6,0,0,0,2.243-1.518V71.568a1.6,1.6,0,0,0-.465-1.135L57.719,63.6v-7.89l19.827,7.562a1.6,1.6,0,0,0,2.174-1.477V59.644a1.573,1.573,0,0,0-.615-1.272L57.678,41.54V30.409a3.131,3.131,0,0,0-.178-1l-1.86-4.964a1.19,1.19,0,0,0-2.229,0Z" transform="translate(-12.185 -9.83)" fill="#fff"/>
        <path id="パス_4359" data-name="パス 4359" d="M50.157,79.6a31.45,31.45,0,1,1,31.45-31.45A31.45,31.45,0,0,1,50.157,79.6Zm0-60.891A29.468,29.468,0,1,0,79.57,48.159,29.468,29.468,0,0,0,50.157,18.706Z" transform="translate(-7.767 -6.932)" fill="#fff"/>
        <path id="パス_4360" data-name="パス 4360" d="M42.39,82.454C18.993,82.454,0,63.967,0,41.227S18.993,0,42.39,0s42.39,18.5,42.39,41.227S65.635,82.454,42.39,82.454Zm0-80.4c-22.234,0-40.284,17.571-40.284,39.176S20.156,80.4,42.39,80.4,82.578,62.9,82.578,41.227,64.528,2.051,42.39,2.051Z" fill="#fff"/>
        <path id="パス_4361" data-name="パス 4361" d="M128.953,86.452l-.506,1.285c-.164.438-.369.848-.547,1.272.643.629,1.285,1.272,1.9,1.942-.9-.123-1.791-.246-2.666-.4-.219.41-.424.82-.67,1.2s-.451.793-.7,1.176c-.082-.916-.164-1.791-.3-2.735-.875-.164-1.737-.342-2.612-.547.779-.314,1.559-.684,2.338-1.067-.191-.861-.342-1.682-.588-2.489.7.547,1.367,1.121,2.051,1.7A12.319,12.319,0,0,0,128.953,86.452Z" transform="translate(-51.011 -35.749)" fill="#fff"/>
        <path id="パス_4362" data-name="パス 4362" d="M117.12,108.083c-.629.684-1.367,1.367-1.969,1.942.342.82.67,1.655.971,2.516-.766-.451-1.531-.916-2.284-1.367-.738.561-1.449,1.121-2.2,1.627.3-.848.547-1.709.779-2.557-.738-.506-1.477-1.012-2.188-1.545H112.8c.109-.424.178-.834.246-1.258s.15-.834.205-1.258c.424.779.82,1.559,1.2,2.366l1.367-.15Z" transform="translate(-45.768 -44.089)" fill="#fff"/>
        <path id="パス_4363" data-name="パス 4363" d="M27.833,113.148c-.643-.656-1.244-1.367-1.832-2.065-.848.3-1.7.588-2.571.848.492-.752,1-1.49,1.5-2.215-.52-.752-1.039-1.5-1.5-2.284.424.164.82.342,1.244.492l1.272.424c.533-.711,1.08-1.367,1.641-2.119a8.1,8.1,0,0,1-.068,1.285v1.367c.82.232,1.682.4,2.489.574-.793.369-1.6.738-2.434,1.08a6.775,6.775,0,0,0,.1,1.367C27.765,112.383,27.778,112.7,27.833,113.148Z" transform="translate(-9.728 -44.108)" fill="#fff"/>
        <path id="パス_4364" data-name="パス 4364" d="M12.973,92.881c-.3-.875-.629-1.737-.861-2.625a23.812,23.812,0,0,1-2.735-.232c.752-.492,1.518-.985,2.284-1.449-.219-.889-.369-1.791-.52-2.735.67.629,1.272,1.258,1.969,1.819.766-.438,1.545-.875,2.338-1.285-.369.752-.752,1.531-1.08,2.338.684.533,1.367,1.039,2.065,1.5H13.766C13.465,91.145,13.219,92.006,12.973,92.881Z" transform="translate(-3.893 -35.642)" fill="#fff"/>
        <path id="パス_4365" data-name="パス 4365" d="M7.819,68.129l.1-1.367c0-.465.109-.916.15-1.367-.807-.438-1.614-.848-2.407-1.3.889-.15,1.778-.3,2.735-.424.15-.9.383-1.791.588-2.735.356.848.67,1.668,1.08,2.461.889-.109,1.778-.191,2.653-.273-.629.547-1.285,1.121-1.9,1.737a16.664,16.664,0,0,0,1.367,2.188c-.82-.3-1.655-.643-2.461-1.012A20.246,20.246,0,0,0,7.819,68.129Z" transform="translate(-2.35 -25.302)" fill="#fff"/>
        <path id="パス_4366" data-name="パス 4366" d="M13.066,43.806l.643-1.231c.205-.41.451-.807.67-1.2-.588-.7-1.149-1.367-1.682-2.119.875.205,1.75.424,2.612.656a13.565,13.565,0,0,1,.779-1.121c.273-.369.52-.752.82-1.094V40.36c.848.26,1.709.533,2.557.82-.82.232-1.614.52-2.448.82.109.875.178,1.7.342,2.53-.643-.615-1.272-1.244-1.873-1.9C14.666,43,13.9,43.382,13.066,43.806Z" transform="translate(-5.272 -15.651)" fill="#fff"/>
        <path id="パス_4367" data-name="パス 4367" d="M26.937,23.6c.7-.615,1.436-1.162,2.16-1.723-.26-.848-.492-1.723-.711-2.612.725.533,1.367,1.067,2.133,1.627L31.7,20.17c.383-.246.793-.451,1.19-.67-.191.41-.369.807-.547,1.217l-.492,1.244c.7.574,1.367,1.162,2.037,1.75L32.6,23.575H31.313c-.287.807-.492,1.641-.7,2.448-.342-.807-.67-1.641-.971-2.475A17.942,17.942,0,0,0,26.937,23.6Z" transform="translate(-11.185 -8)" fill="#fff"/>
        <path id="パス_4368" data-name="パス 4368" d="M107.555,18.917c.711.6,1.367,1.244,2.037,1.873.807-.383,1.627-.752,2.475-1.094-.424.793-.848,1.573-1.285,2.352.588.7,1.19,1.367,1.737,2.119-.861-.273-1.75-.465-2.6-.656-.465.766-.943,1.518-1.367,2.27a23.468,23.468,0,0,0-.191-2.571c-.424-.082-.848-.137-1.272-.191l-1.258-.137c.752-.465,1.518-.889,2.3-1.367a8.585,8.585,0,0,0-.219-1.367C107.828,19.669,107.664,19.368,107.555,18.917Z" transform="translate(-43.943 -7.855)" fill="#fff"/>
        <path id="パス_4369" data-name="パス 4369" d="M124.006,37.413c.219.41.4.848.588,1.258s.383.848.547,1.272h2.735c-.7.574-1.367,1.121-2.119,1.668.137.438.287.861.41,1.367l.356,1.367a24.244,24.244,0,0,0-2.133-1.614c-.725.52-1.449,1.026-2.188,1.518.287-.779.6-1.614.82-2.434l-1.08-.684-1.121-.6c.875-.137,1.764-.232,2.653-.328C123.6,39.218,123.8,38.329,124.006,37.413Z" transform="translate(-50.167 -15.534)" fill="#fff"/>
        <path id="パス_4370" data-name="パス 4370" d="M131.691,61.334v2.735c.834.328,1.682.67,2.5,1.039-.861.246-1.737.479-2.6.7a20.718,20.718,0,0,1-.328,2.735,22,22,0,0,0-1.367-2.325q-1.367.287-2.625.533c.588-.615,1.162-1.244,1.737-1.914-.52-.711-.971-1.367-1.531-2.051.861.219,1.723.479,2.557.752A16.839,16.839,0,0,0,131.691,61.334Z" transform="translate(-52.846 -25.467)" fill="#fff"/>
      </g>
    </g>
  </g>
</svg>
