<svg xmlns="http://www.w3.org/2000/svg" xmlns:xlink="http://www.w3.org/1999/xlink" width="141.867" height="14.387" viewBox="0 0 141.867 14.387">
  <defs>
    <clipPath id="clip-path">
      <rect id="長方形_683" data-name="長方形 683" width="141.867" height="14.387" transform="translate(0 49)" fill="#fff"/>
    </clipPath>
  </defs>
  <g id="マスクグループ_49" data-name="マスクグループ 49" transform="translate(0 -49)" clip-path="url(#clip-path)">
    <g id="レイヤー_2" data-name="レイヤー 2" transform="translate(0 52.089)">
      <g id="レイヤー_1" data-name="レイヤー 1">
        <path id="パス_4371" data-name="パス 4371" d="M8.216,2.37A3.29,3.29,0,0,0,5.1.744c-1.244,0-2.154.5-2.154,1.175s.8,1.046,2.76,1.562c2.265.607,3.861,1.278,3.861,2.453S7.482,8.346,4.243,8.346a15.152,15.152,0,0,1-2.249-.155,7.867,7.867,0,0,1-1.356-.31A9.115,9.115,0,0,1,0,5.894l.782-.129A4.6,4.6,0,0,0,4.658,7.882c1.356,0,2.233-.5,2.233-1.291S5.9,5.468,4.243,4.99C1.962,4.371.383,3.738.383,2.589S2.313.253,5.456.253A16.48,16.48,0,0,1,8.551.576a10.038,10.038,0,0,0,.415,1.7Z" transform="translate(0 -0.137)" fill="#fff"/>
        <path id="パス_4372" data-name="パス 4372" d="M31.243,2.336a2.321,2.321,0,0,0-.989-1.226A4.683,4.683,0,0,0,28.021.826H27V6.454c0,1.007.223,1.084,2.17,1.162v.426H21.927V7.616c1.866-.077,2.09-.155,2.09-1.162V.826h-.75c-1.819,0-2.217.129-2.552.323a2.5,2.5,0,0,0-.941,1.2h-.8c.1-.878.223-1.743.271-2.349h.526a1.867,1.867,0,0,0,1.276.3h8.918A2.252,2.252,0,0,0,31.259,0h.526a21.647,21.647,0,0,0,.255,2.311Z" transform="translate(-8.208 0)" fill="#fff"/>
        <path id="パス_4373" data-name="パス 4373" d="M48.815,8.179V7.753c1.308-.1,1.42-.245,1.069-.774l-.893-1.291H44.731c-.239.374-.542.8-.8,1.291s-.271.736,1.356.839v.426H40.313V7.753c1.468-.09,1.739-.219,2.473-1.291L47.348.408,48.48.253c1.42,2.091,2.808,4.156,4.243,6.209a2.423,2.423,0,0,0,2.441,1.291v.426ZM46.933,2.435h0c-.622.865-1.18,1.73-1.755,2.582H48.64Z" transform="translate(-17.437 -0.137)" fill="#fff"/>
        <path id="パス_4374" data-name="パス 4374" d="M82.313,8.47h-.638c-2.792-.077-3.653-.4-4.547-1.149-.574-.542-1.2-1.149-1.819-1.768a1.862,1.862,0,0,0-1.468-.529h-.431V6.779c0,.981.223,1.1,1.9,1.175V8.38H68.593V7.941c1.675-.077,1.914-.194,1.914-1.175V2.2c0-.955-.207-1.071-1.819-1.162V.622h6.237a11.411,11.411,0,0,1,3.956.452A1.879,1.879,0,0,1,80.4,2.661c0,1.046-1.292,1.6-2.776,1.936a22.254,22.254,0,0,0,1.787,1.691,15.027,15.027,0,0,0,1.707,1.291,4.028,4.028,0,0,0,1.356.491ZM73.969,4.6a5.181,5.181,0,0,0,2.2-.4A1.487,1.487,0,0,0,77.24,2.79c0-1.175-1.308-1.691-2.616-1.691a2.739,2.739,0,0,0-1.005.116c-.16.077-.207.194-.207.439v2.9Z" transform="translate(-29.669 -0.325)" fill="#fff"/>
        <path id="パス_4375" data-name="パス 4375" d="M104.678,8.392c-.957-.71-2.792-2.1-4.371-3.33a1.442,1.442,0,0,0-1.085-.413V6.8c0,1.007.191,1.1,1.9,1.175V8.4h-6.6V7.966c1.6-.077,1.819-.168,1.819-1.175V2.247c0-1.02-.191-1.1-1.85-1.188V.647h6.525V1.06c-1.6.09-1.755.168-1.755,1.188V4.222a5.152,5.152,0,0,0,1.691-.62,25,25,0,0,0,3.095-1.885c.542-.374.495-.542-.542-.62l-.415-.039V.647h5.775V1.06a7.91,7.91,0,0,0-3.51.839c-1.324.645-2.249,1.213-3.191,1.768,1.42,1.136,3.063,2.336,4.674,3.421a4.356,4.356,0,0,0,2.393.878v.426Z" transform="translate(-40.868 -0.35)" fill="#fff"/>
        <path id="パス_4376" data-name="パス 4376" d="M136.705.628a11.461,11.461,0,0,1,3.892.465,2.043,2.043,0,0,1,1.6,1.756c0,1.588-2.2,2.323-4.531,2.478h-.925l-1.516-.181V6.785c0,1.007.191,1.1,2.106,1.175v.413h-6.86V7.96c1.675-.077,1.866-.168,1.866-1.175V2.229c0-1.02-.191-1.084-1.739-1.188V.628ZM135.27,4.681a6.823,6.823,0,0,0,1.2.116,2.754,2.754,0,0,0,1.81-.482,1.792,1.792,0,0,0,.791-1.4c0-1.291-1.42-1.781-2.776-1.781a2.438,2.438,0,0,0-.83.116.392.392,0,0,0-.191.374Z" transform="translate(-56.432 -0.331)" fill="#fff"/>
        <path id="パス_4377" data-name="パス 4377" d="M164.84,6.378c-.175.491-.638,1.691-.814,2.014H153.21V7.966c1.93-.077,2.154-.168,2.154-1.162V2.247c0-1.033-.223-1.1-1.914-1.188V.647h6.8V1.06c-1.707.09-1.914.155-1.914,1.188V6.881c0,.568.1.774.558.891a9.64,9.64,0,0,0,1.6.1,4.624,4.624,0,0,0,2.265-.4,4.433,4.433,0,0,0,1.244-1.226Z" transform="translate(-66.269 -0.35)" fill="#fff"/>
        <path id="パス_4378" data-name="パス 4378" d="M183.95,8.179V7.753c1.308-.1,1.42-.245,1.069-.774s-.558-.852-.893-1.291h-4.259a12.549,12.549,0,0,0-.8,1.291c-.255.491-.271.736,1.356.839v.426h-4.977V7.753c1.468-.09,1.739-.219,2.473-1.291L182.482.408l1.133-.155c1.42,2.091,2.792,4.156,4.243,6.209A2.423,2.423,0,0,0,190.3,7.753v.426Zm-1.882-5.744h0c-.622.865-1.165,1.73-1.755,2.582h3.478Z" transform="translate(-75.887 -0.137)" fill="#fff"/>
        <path id="パス_4379" data-name="パス 4379" d="M216.572,6.152a10.207,10.207,0,0,1-1.2,1.885,37.69,37.69,0,0,1-4.116.31c-5.918,0-8.375-2.052-8.375-3.95,0-2.44,3.51-4.144,8.806-4.144a32.957,32.957,0,0,1,4,.323c.191.658.351,1.2.51,1.949l-.83.09A4.356,4.356,0,0,0,211.227.782c-3.191,0-4.993,1.626-4.993,3.382,0,2.181,2.2,3.627,5.217,3.627a5.644,5.644,0,0,0,4.355-1.833Z" transform="translate(-87.754 -0.137)" fill="#fff"/>
        <path id="パス_4380" data-name="パス 4380" d="M240.771,6.4a15.837,15.837,0,0,1-.782,1.988H228.663V7.966c1.882-.077,2.106-.155,2.106-1.162V2.234c0-1.046-.223-1.1-1.8-1.175V.647h10.465c0,.219.128,1.046.223,1.781h-.8a2.36,2.36,0,0,0-.909-1.02,4.755,4.755,0,0,0-2.217-.232h-1.069c-.83,0-.909,0-.909.413V4.171h1.484c1.866,0,2.154,0,2.457-.891h.814V5.629h-.814c-.3-.865-.574-.916-2.457-.916h-1.484V6.8c0,.555,0,.865.526.981a11.157,11.157,0,0,0,1.994.116,5.205,5.205,0,0,0,2.473-.387,5.133,5.133,0,0,0,1.244-1.162Z" transform="translate(-98.904 -0.35)" fill="#fff"/>
      </g>
    </g>
  </g>
</svg>
