<svg xmlns="http://www.w3.org/2000/svg" xmlns:xlink="http://www.w3.org/1999/xlink" width="121" height="79" viewBox="0 0 121 79">
  <defs>
    <clipPath id="clip-path">
      <rect id="長方形_605" data-name="長方形 605" width="121" height="79" transform="translate(1011.175 3547)" fill="#fff" stroke="#707070" stroke-width="1"/>
    </clipPath>
  </defs>
  <g id="マスクグループ_19" data-name="マスクグループ 19" transform="translate(-1011.175 -3547)" clip-path="url(#clip-path)">
    <g id="レイヤー_2" data-name="レイヤー 2" transform="translate(1011 3559.812)">
      <g id="レイヤー_1" data-name="レイヤー 1">
        <path id="パス_3949" data-name="パス 3949" d="M30.418,25.858c0,11.17-5.156,15.454-15.438,15.454S0,35.544,0,26.746v-5.6H11.307v4.59c0,3.06,0,6.029,3.381,6.029s3.06-3.978,3.06-5.738V0H30.387V25.858Z" fill="#4b4b4b" fill-rule="evenodd"/>
        <path id="パス_3950" data-name="パス 3950" d="M48.97,24.667c.428-3.06,2.2-4.835,5.141-4.835a4.59,4.59,0,0,1,4.59,4.835Zm19.478,5.891c0-11.476-4.7-17.933-15.3-17.933-8.523,0-14.107,6.9-14.107,15.423,0,9.838,6.472,15.423,14.995,15.423,6.12,0,11.751-2.938,13.771-9.257H58.364a5.187,5.187,0,0,1-4.254,2.066c-3.228,0-5-2.356-5.294-5.722Z" transform="translate(-7.244 -2.343)" fill="#4b4b4b" fill-rule="evenodd"/>
        <path id="パス_3951" data-name="パス 3951" d="M86.05,24.667c.444-3.06,2.2-4.835,5.141-4.835a4.59,4.59,0,0,1,4.59,4.835Zm19.539,5.891c0-11.476-4.7-17.933-15.3-17.933-8.523,0-14.107,6.9-14.107,15.423,0,9.838,6.457,15.423,14.979,15.423,6.029,0,11.766-2.938,13.771-9.257H95.384a5.218,5.218,0,0,1-4.269,2.066c-3.228,0-4.988-2.356-5.279-5.722Z" transform="translate(-14.137 -2.343)" fill="#4b4b4b" fill-rule="evenodd"/>
        <path id="パス_3952" data-name="パス 3952" d="M123.309,28.048c0-3.519.734-7.191,4.407-7.191s4.59,3.672,4.59,7.191-.872,7.207-4.59,7.207S123.309,31.414,123.309,28.048Zm-9.854,24.1h10.114V39.508h.153a8.354,8.354,0,0,0,7.344,3.963c8.951,0,11.307-8.37,11.307-15.3.031-7.314-3.5-15.546-11.154-15.546-4.988,0-6.61,2.05-7.926,3.963h0V13.359h-9.838Z" transform="translate(-21.053 -2.343)" fill="#4b4b4b" fill-rule="evenodd"/>
        <path id="パス_3953" data-name="パス 3953" d="M143.269,54.268a2.066,2.066,0,1,1,2.058,1.888,2.066,2.066,0,0,1-2.058-1.888Zm-.581,0a2.616,2.616,0,0,0,2.647,2.494,2.571,2.571,0,0,0,2.494-2.494,2.494,2.494,0,0,0-2.494-2.509,2.525,2.525,0,0,0-2.571,2.509Zm1.53,1.53h.459V54.466h.581l.734,1.331h.581l-.75-1.392c.428,0,.734-.291.734-.872s-.306-.734-1.04-.734h-1.224v2.938Zm.459-2.647h.719c.306,0,.6.138.6.444s-.444.581-.734.581h-.5V53.151Z" transform="translate(-26.478 -9.605)" fill="#4b4b4b" fill-rule="evenodd"/>
        <path id="パス_3954" data-name="パス 3954" d="M41.025,59.747a1.53,1.53,0,0,0,.306.872,1.729,1.729,0,0,0,1.362.536c.9,0,1.438-.4,1.438-1.04a.872.872,0,0,0-.49-.826,10.022,10.022,0,0,0-1.76-.5A4.59,4.59,0,0,1,40,58.11a2.647,2.647,0,0,1-1.132-2.249c0-1.79,1.53-2.922,3.749-2.922a3.81,3.81,0,0,1,3.259,1.331,3.259,3.259,0,0,1,.581,1.392l-2.479.275c-.138-.765-.566-1.071-1.454-1.071s-1.239.383-1.239.918a.826.826,0,0,0,.551.75,10.252,10.252,0,0,0,1.622.383,5.616,5.616,0,0,1,1.882.658,2.632,2.632,0,0,1,1.27,2.387,3.06,3.06,0,0,1-.826,2.157,4.315,4.315,0,0,1-3.06.979,5.539,5.539,0,0,1-2.6-.566A2.724,2.724,0,0,1,38.867,61a3.871,3.871,0,0,1-.26-1.086Z" transform="translate(-7.164 -9.821)" fill="#4b4b4b"/>
        <path id="パス_3955" data-name="パス 3955" d="M57.209,63.029a14.719,14.719,0,0,0-1.928,0h-5.4a9.7,9.7,0,0,0,.107-1.7V54.9a11.2,11.2,0,0,0-.107-1.7h5.447a11.551,11.551,0,0,0,1.744-.076V55.3a14,14,0,0,0-1.744,0h-3.06v1.714h2.509a16.036,16.036,0,0,0,1.76-.076V59.1a14.122,14.122,0,0,0-1.76,0H52.3v1.958h3.06a14.779,14.779,0,0,0,1.9-.092Z" transform="translate(-9.256 -9.859)" fill="#4b4b4b"/>
        <path id="パス_3956" data-name="パス 3956" d="M66.277,62.974a9.5,9.5,0,0,0-.566-1.821c-.367-1.025-.52-1.285-.811-1.53A1.3,1.3,0,0,0,64,59.3H62.8v1.928a13.77,13.77,0,0,0,.092,1.76H60.325a12.914,12.914,0,0,0,.092-1.76V54.956a13.77,13.77,0,0,0-.092-1.714h4.8c1.9,0,3.06.979,3.06,2.662a2.525,2.525,0,0,1-.7,1.913,2.463,2.463,0,0,1-1.1.581c.6.184.872.459,1.239,1.285.168.383.337.78.857,2.035.138.321.275.612.566,1.239Zm-1.714-5.661a1.025,1.025,0,0,0,1.117-1.086c0-.658-.383-.995-1.1-.995H62.743v2.081Z" transform="translate(-11.194 -9.88)" fill="#4b4b4b"/>
        <path id="パス_3957" data-name="パス 3957" d="M75.95,60.131l.23.811.214-.811,1.7-5.615a5.921,5.921,0,0,0,.26-1.255h2.754a13.236,13.236,0,0,0-.566,1.423l-2.479,7.023a8.522,8.522,0,0,0-.367,1.27h-3.06a7.651,7.651,0,0,0-.367-1.27l-2.494-7.023c-.23-.673-.352-.964-.551-1.423H73.96a8.921,8.921,0,0,0,.275,1.255Z" transform="translate(-13.216 -9.884)" fill="#4b4b4b"/>
        <path id="パス_3958" data-name="パス 3958" d="M86.943,53.261a10.084,10.084,0,0,0-.092,1.729v6.258a10.512,10.512,0,0,0,.092,1.729H84.373a10.512,10.512,0,0,0,.138-1.729V54.99a10.189,10.189,0,0,0-.092-1.729Z" transform="translate(-15.657 -9.884)" fill="#4b4b4b"/>
        <path id="パス_3959" data-name="パス 3959" d="M95.464,56.592a1.76,1.76,0,0,0-1.851-1.53c-1.423,0-2.249,1.132-2.249,3.06s.872,3.06,2.31,3.06a1.836,1.836,0,0,0,1.53-.75,1.989,1.989,0,0,0,.352-.995l2.433.352a4.5,4.5,0,0,1-.979,2.142,4.177,4.177,0,0,1-3.259,1.27,4.728,4.728,0,0,1-3.458-1.346,5.952,5.952,0,0,1,0-7.65A4.7,4.7,0,0,1,93.644,53a4.1,4.1,0,0,1,3.443,1.53,3.687,3.687,0,0,1,.719,1.607Z" transform="translate(-16.497 -9.833)" fill="#4b4b4b"/>
        <path id="パス_3960" data-name="パス 3960" d="M108.723,63.029a14.719,14.719,0,0,0-1.928,0h-5.4a9.7,9.7,0,0,0,.046-1.744V54.9a11.2,11.2,0,0,0,0-1.7h5.447a11.551,11.551,0,0,0,1.744-.076V55.3a14,14,0,0,0-1.744,0h-3.06v1.714h2.509a15.928,15.928,0,0,0,1.744-.077V59.1a14,14,0,0,0-1.744,0h-2.525v1.958h3.06a14.779,14.779,0,0,0,1.9-.092Z" transform="translate(-18.815 -9.859)" fill="#4b4b4b"/>
      </g>
    </g>
  </g>
</svg>
