<svg xmlns="http://www.w3.org/2000/svg" xmlns:xlink="http://www.w3.org/1999/xlink" width="149" height="97" viewBox="0 0 149 97">
  <defs>
    <clipPath id="clip-path">
      <rect id="長方形_605" data-name="長方形 605" width="149" height="97" transform="translate(1011 3691)" fill="#fff" stroke="#707070" stroke-width="1"/>
    </clipPath>
  </defs>
  <g id="マスクグループ_20" data-name="マスクグループ 20" transform="translate(-1011 -3691)" clip-path="url(#clip-path)">
    <g id="レイヤー_2" data-name="レイヤー 2" transform="translate(1011 3724.639)">
      <g id="レイヤー_1" data-name="レイヤー 1">
        <path id="パス_3961" data-name="パス 3961" d="M0,.385H8.94a10.136,10.136,0,0,1,4.44.973,4.156,4.156,0,0,1,2.027,4.2,6.811,6.811,0,0,1-.365,2.554,3.487,3.487,0,0,1-.851,1.3,5.757,5.757,0,0,1-1.642.73,3.831,3.831,0,0,1,1.642.649,1.622,1.622,0,0,1,.669,1.014,8.818,8.818,0,0,1,.162,1.906v.953a4.156,4.156,0,0,0,0,1.115,1.014,1.014,0,0,0,.608.649v3.406H9.487A10.562,10.562,0,0,1,8.9,17.312c0-.872-.122-2.027-.122-3.385a1.4,1.4,0,0,0-.507-1.257,3.872,3.872,0,0,0-1.46-.507v2.311a5.94,5.94,0,0,0,.122,1.318.791.791,0,0,0,.588.628v3.406H0V16.42a1.4,1.4,0,0,0,.507-.588,2.473,2.473,0,0,0,.2-.689q0-.365,0-1.034V6.082a5.737,5.737,0,0,0,0-1.176,1.156,1.156,0,0,0-.3-.527A.933.933,0,0,0,0,4.054ZM6.811,4.44V8.413a5.25,5.25,0,0,0,1.3-.122,1.257,1.257,0,0,0,.77-.547,2.27,2.27,0,0,0,.3-1.3,1.862,1.862,0,0,0-.527-1.581,3.244,3.244,0,0,0-1.8-.365" fill="#4b4b4b"/>
        <path id="パス_3962" data-name="パス 3962" d="M17.333,5.9A6.751,6.751,0,0,1,17.8,3.3,4.764,4.764,0,0,1,19.157,1.46,6.082,6.082,0,0,1,21.488.365,13.623,13.623,0,0,1,24.833,0a8.8,8.8,0,0,1,5.575,1.358A5.372,5.372,0,0,1,32.05,5.717v8.778a7.6,7.6,0,0,1-.365,2.493,4.054,4.054,0,0,1-1.2,1.764,5.8,5.8,0,0,1-2.21,1.095,13.218,13.218,0,0,1-3.365.365,11.109,11.109,0,0,1-4.3-.71,4.8,4.8,0,0,1-2.433-2.027,7.176,7.176,0,0,1-.77-3.467Zm8.555,0a3.081,3.081,0,0,0-.162-1.277c0-.223-.405-.345-.892-.345a1.034,1.034,0,0,0-.933.405A2.027,2.027,0,0,0,23.6,5.9V14.19a2.676,2.676,0,0,0,.264,1.3,1.034,1.034,0,0,0,.973.507.872.872,0,0,0,.851-.466,3.3,3.3,0,0,0,.2-1.338Z" fill="#4b4b4b"/>
        <path id="パス_3963" data-name="パス 3963" d="M41.842,5.352a1.135,1.135,0,0,0-.3-.831.953.953,0,0,0-.71-.3.993.993,0,0,0-.791.385,1.581,1.581,0,0,0-.365,1.115v8.94a1.318,1.318,0,0,0,.365.973,1.034,1.034,0,0,0,.791.365.933.933,0,0,0,.71-.345,1.419,1.419,0,0,0,.3-.993V11.636h6.082V17.86a3.406,3.406,0,0,1-1.541,1.176,11.454,11.454,0,0,1-2.575.73,18.427,18.427,0,0,1-3.021.223,8.94,8.94,0,0,1-5.332-1.419,5.088,5.088,0,0,1-2.027-4.46V6.082a7.683,7.683,0,0,1,.426-2.7A4.338,4.338,0,0,1,35.071,1.5,5.048,5.048,0,0,1,37.1.385,9.71,9.71,0,0,1,40.037,0a18.772,18.772,0,0,1,2.98.2,13.035,13.035,0,0,1,2.514.628,11.96,11.96,0,0,1,2.352,1.2V7.521H41.8Z" fill="#4b4b4b"/>
        <path id="パス_3964" data-name="パス 3964" d="M49.322.385h7.3V3.933a1.8,1.8,0,0,0-.466,1.115,9.063,9.063,0,0,0,0,1.2V8.271q1.46-2.27,1.764-2.8a4.419,4.419,0,0,0,.426-.912,3.872,3.872,0,0,0,.122-1.095V.385h6.588V3.933a2.027,2.027,0,0,0-.669.507A7.074,7.074,0,0,0,63.573,5.6c-.324.527-.689,1.115-1.095,1.8L61.323,9.285,63.188,13.1c.527,1.054.892,1.784,1.115,2.189a3.588,3.588,0,0,0,.568.933,1.4,1.4,0,0,0,.568.3v3.3H58.424V17.333a5.656,5.656,0,0,0-.1-1.115,8.312,8.312,0,0,0-.426-1.095c-.223-.446-.811-1.6-1.784-3.467v3.811a1.7,1.7,0,0,0,.142.547,2.554,2.554,0,0,0,.3.405v3.406h-7.3V16.42a.973.973,0,0,0,.588-.689,4.845,4.845,0,0,0,.142-1.318V6.3a7.642,7.642,0,0,0-.122-1.52,1.074,1.074,0,0,0-.588-.811Z" fill="#4b4b4b"/>
        <path id="パス_3965" data-name="パス 3965" d="M66.432,12.873h6.082V14.19a2.453,2.453,0,0,0,.162.993.912.912,0,0,0,.466.487,2.352,2.352,0,0,0,.811.122.736.736,0,0,0,.73-.527,3.872,3.872,0,0,0,.142-1.257,1.338,1.338,0,0,0-.568-1.115,3.284,3.284,0,0,0-1.277-.73q-.649-.223-2.027-.547a14.313,14.313,0,0,1-1.824-.547A4.8,4.8,0,0,1,67.1,9.731a4.2,4.2,0,0,1-.892-1.8,10.582,10.582,0,0,1-.223-2.21,6.913,6.913,0,0,1,.345-2.21,4.257,4.257,0,0,1,1.135-1.743A5.413,5.413,0,0,1,69.939.608,12.265,12.265,0,0,1,73.405.182a14.19,14.19,0,0,1,2.676.243,13.846,13.846,0,0,1,2.291.689A13.441,13.441,0,0,1,80.4,2.149V6.791H74.662a4.42,4.42,0,0,0,0-.791c0-1.115-.365-1.683-1.095-1.683a1.156,1.156,0,0,0-.71.243.993.993,0,0,0-.385.608A1.845,1.845,0,0,0,72.9,6.426a2.7,2.7,0,0,0,1.054.77,7.319,7.319,0,0,0,1.3.385l1.318.284a5.9,5.9,0,0,1,3.487,2.027A5.818,5.818,0,0,1,81.17,13.42a9.406,9.406,0,0,1-.446,2.8,4.946,4.946,0,0,1-1.156,2.027,4.723,4.723,0,0,1-1.784,1.135,8.23,8.23,0,0,1-1.926.507l-2.615.385a14.048,14.048,0,0,1-1.581-.142,19.845,19.845,0,0,1-2.027-.466,10.136,10.136,0,0,1-2.027-.75,2.676,2.676,0,0,1-1.176-.993Z" fill="#4b4b4b"/>
        <path id="パス_3966" data-name="パス 3966" d="M81.96.385H98.725V9.122h-4.46V5.717a1.358,1.358,0,0,0-.142-.669,1.074,1.074,0,0,0-.73-.385v9.629c0,1.156.243,1.8.71,2.027v3.507H86.6V16.42c.284,0,.466-.324.568-.811a7.237,7.237,0,0,0,.142-1.419V4.663c-.385,0-.628.1-.73.324a2.271,2.271,0,0,0-.162.933v3.2H81.96Z" fill="#4b4b4b"/>
        <path id="パス_3967" data-name="パス 3967" d="M111.233.385l2.676,14.19a2.7,2.7,0,0,0,1.074,2.027v3.223h-7.663V16.441a2.027,2.027,0,0,0,.487-.527,1.257,1.257,0,0,0,.182-.527,6.505,6.505,0,0,0,0-.73h-3.041a3.426,3.426,0,0,0,.122,1.034,1.743,1.743,0,0,0,.588.75v3.385H99.11V16.218a2.919,2.919,0,0,0,.568-.791,4.054,4.054,0,0,0,.3-1.176L102.5.385Zm-3.913,10.521-.892-5.717-.912,5.717Z" fill="#4b4b4b"/>
        <path id="パス_3968" data-name="パス 3968" d="M115.855.385h8.94a10.136,10.136,0,0,1,4.44.973,4.2,4.2,0,0,1,2.027,4.2,6.811,6.811,0,0,1-.385,2.554,3.487,3.487,0,0,1-.953,1.4,5.453,5.453,0,0,1-1.541.791,4.054,4.054,0,0,1,1.683.588,1.8,1.8,0,0,1,.669,1.014,9.083,9.083,0,0,1,.142,1.906v.953A4.054,4.054,0,0,0,131,15.873a.932.932,0,0,0,.588.649v3.3h-6.264a10.521,10.521,0,0,1-.568-2.514,30.873,30.873,0,0,1-.142-3.385,1.338,1.338,0,0,0-.507-1.257,3.892,3.892,0,0,0-1.439-.507v2.311a5.94,5.94,0,0,0,.122,1.318.77.77,0,0,0,.568.628v3.406h-7.5V16.42a1.4,1.4,0,0,0,.507-.588,2.027,2.027,0,0,0,.182-.689V6.082a8.311,8.311,0,0,0,0-1.176,1.155,1.155,0,0,0-.243-.547.932.932,0,0,0-.405-.264Zm6.811,4.054V8.413a5.068,5.068,0,0,0,1.237-.122,1.358,1.358,0,0,0,.791-.547,2.473,2.473,0,0,0,.284-1.3,1.865,1.865,0,0,0-.527-1.581,3.162,3.162,0,0,0-1.784-.365" fill="#4b4b4b"/>
        <path id="パス_3969" data-name="パス 3969" d="M132.985.385h8.92a10.136,10.136,0,0,1,4.46.973,4.2,4.2,0,0,1,2.027,4.2,6.812,6.812,0,0,1-.405,2.554,3.487,3.487,0,0,1-.953,1.4,5.453,5.453,0,0,1-1.541.791,3.933,3.933,0,0,1,1.683.588,1.8,1.8,0,0,1,.669,1.014,9.082,9.082,0,0,1,.142,1.906v.953a4.054,4.054,0,0,0,.122,1.115.973.973,0,0,0,.588.649v3.3h-6.244a10.522,10.522,0,0,1-.547-2.514,30.869,30.869,0,0,1-.142-3.385,1.379,1.379,0,0,0-.487-1.257,4.176,4.176,0,0,0-1.4-.507v2.311A5.941,5.941,0,0,0,140,15.792a.77.77,0,0,0,.568.628v3.406h-7.582V16.42a1.4,1.4,0,0,0,.507-.588,2.028,2.028,0,0,0,.182-.689V6.082a5.453,5.453,0,0,0,0-1.176.993.993,0,0,0-.223-.547.932.932,0,0,0-.466-.3ZM139.8,4.44V8.413a5.372,5.372,0,0,0,1.257-.122,1.379,1.379,0,0,0,.851-.547,2.473,2.473,0,0,0,.284-1.3,1.865,1.865,0,0,0-.527-1.581,3.162,3.162,0,0,0-1.784-.365" fill="#4b4b4b"/>
        <path id="パス_3970" data-name="パス 3970" d="M.365,21.2H5.636l.851.912v.1l.405.405.122.122.2.243a.892.892,0,0,0,.243.223l.162.2L8.19,24a.649.649,0,0,0,.162.182h0l.365.365a1.845,1.845,0,0,1,.2-.264h0l.162-.142L9.2,24l.162-.162h0l.162-.182h0l.162-.182h0l.446-.365h0l.162-.182h0v-.1h0l.608-.527h0l.243-.264h0a.73.73,0,0,0,.162-.182l.284-.3h0l.142-.142v-.122h5.9v2.392H16.1v3.811h1.439v2.27h-6.67V27.408h1.3v-2.27L9.852,27.651H7.561L7.44,27.53l-.284-.284h0l-.122-.122a1.156,1.156,0,0,1-.2-.223.446.446,0,0,0-.142-.122h0l-.547-.568-.1-.1-.284-.284h0l-.243-.264h0v1.8h1.46v2.21H0V27.489H1.4V23.6H.345V21.2" fill="#4b4b4b"/>
        <path id="パス_3971" data-name="パス 3971" d="M24.813,21.225h1.906a.689.689,0,0,1,.284,0h1.3l.345.1h.1l.487.162h0l.791.365h0l.385.446h0l.182.1h.122l.162.142.162.122h0l.365.345.162.182.1.1.142.223h0v.1h0l.1.162h0l.527.547h0v.284a3.325,3.325,0,0,1-2.027,3.933l-.365.182h-.2l-.628.2H27.854a.71.71,0,0,1-.223,0H26.9a.73.73,0,0,0-.284,0H23.293l-.71-.142H22.2l-.345-.122H21.61l-1.561-.284-.162-.122-.162-.122-.568-.608h0l-.223-.385a1.1,1.1,0,0,1-.122-.223l-.324-.568a.507.507,0,0,0,0-.2V25.34a1.46,1.46,0,0,1,0-.264v-.223l.182-.568h0a.324.324,0,0,0,0-.142l.122-.182h0l.162-.2h0l.345-.345a.264.264,0,0,0,.122-.1h0l.466-.3h0l.405-.2h.527l.649-.223h.345l.345-.1H22.3l.588-.122h1.277a.284.284,0,0,0,.182,0m.568,1.743h-.243l-.345.122h-.284a2.9,2.9,0,0,0-1.115,2.189,3.527,3.527,0,0,0,1.115,2.027H26.09a2.757,2.757,0,0,0,.993-2.939,2.372,2.372,0,0,0-2.189-1.7" fill="#4b4b4b"/>
        <path id="パス_3972" data-name="パス 3972" d="M33.49,21.225H47.011v3.487H43.869V23.293H42.186l-.02,4.277h.892v2.108H36.916V27.489l1.3-.041.02-4.156h-1.5l-.02,1.419H33.49Z" fill="#4b4b4b"/>
        <path id="パス_3973" data-name="パス 3973" d="M54.147,21.225h1.906a.709.709,0,0,1,.284,0h1.379l.345.1h.1l.487.162h0l.791.365h0l.182.1h0l.162.1H59.9l.162.142.162.122h0l.365.345.142.182.122.1.142.223h0v.1h0l.1.162h0l.2.365h0v.284a3.325,3.325,0,0,1-2.027,3.933l-.365.182h-.2l-.628.2H56.721a.71.71,0,0,1-.223,0h-.73a.71.71,0,0,0-.284,0H52.5l-.71-.142H51.41l-.345-.122h-.345l-1.338.243-.162-.122-.162-.122-.568-.608h0l-.223-.385a1.1,1.1,0,0,1-.122-.223l-.324-.568a.507.507,0,0,0,0-.2V25.34a1.46,1.46,0,0,1,0-.264v-.223L48,24.286h0a.324.324,0,0,0,0-.142l.122-.182h0l.162-.2h0l.345-.345a.264.264,0,0,0,.122-.1h0l.466-.3h0l.385-.2h.628l.649-.223h.345l.345-.1h.142l.588-.122h1.277a.284.284,0,0,0,.182,0m.568,1.743h-.243l-.345.122h-.284a2.9,2.9,0,0,0-.75,1.257,3.527,3.527,0,0,0,1.115,2.027H55.87a2.757,2.757,0,0,0,.993-2.939,2.372,2.372,0,0,0-2.129-1.6" fill="#4b4b4b"/>
        <path id="パス_3974" data-name="パス 3974" d="M62.965,21.286h8.859l1.237.284a4.054,4.054,0,0,1,2.027,1.2,1.581,1.581,0,0,1,0,2.27l-.547.547h0a1.135,1.135,0,0,1-.3.2h0l-.466.284a1.865,1.865,0,0,1,.466.446h0l.851.77h1.865v2.169H71.459V26.678H68.682a1.723,1.723,0,0,0,0,.649h1.3v2.129H63.229V27.55h1.115a.568.568,0,0,0,.3,0V23.5H62.965Zm5.96,2.25v.912h2.027q.73-.446,0-.912Z" fill="#4b4b4b"/>
        <path id="パス_3975" data-name="パス 3975" d="M82.609,21.245h7.44v2.879H86.907v-.669a6.082,6.082,0,0,0-3.872.142l-.1.162.2.223.527.122h2.7l.507.1h.3a1.257,1.257,0,0,0,.324,0h.3a.385.385,0,0,0,.2,0h0l.365.122h0l.527.182h.1l.3.182h0l.345.264.2.223h0a1.561,1.561,0,0,1,.223.933v.405l-.385.73a2.98,2.98,0,0,1-.345.324l-.2.1a.182.182,0,0,1-.122,0h0l-.324.162-.243.1h-.122l-.446.162h-.507a.466.466,0,0,1-.223,0h-6.2v.122H77.865V26.475h3.223v.831H84.9l.284-.1h.142c.162-.2,0-.405-.487-.568H81.271l-.75-.2h0a.709.709,0,0,0-.223,0l-.628-.284h0l-.324-.2h0l-.284-.2a1.074,1.074,0,0,1-.3-.243l-.122-.1c-.851-2.027.588-3.2,4.277-3.629" fill="#4b4b4b"/>
        <path id="パス_3976" data-name="パス 3976" d="M91.529,21.225h10.379l.405.142a.973.973,0,0,1,.284.1h.122l.324.142h.1l.324.182h0a2.493,2.493,0,0,1,.892,1.338c.223,1.338-.628,2.23-2.554,2.716l-.385.1H97.306V26.6h1.926v2.027h-.953a.507.507,0,0,1-.243,0h-6.71a.872.872,0,0,1,0-.324V26.577H93.15V23.293H91.529Zm5.636,2.027v1.541h2.575a.831.831,0,0,0,.71-.689.811.811,0,0,0-.588-.77,1.825,1.825,0,0,0-.507,0Z" fill="#4b4b4b"/>
        <path id="パス_3977" data-name="パス 3977" d="M111.922,21.225h1.906a.71.71,0,0,1,.284,0h1.277l.365.1h.1l.487.162h0l.791.365h0l.446.446h0l.162.1h0a.71.71,0,0,1,.182.142l.162.122h0l.365.345.142.182.122.1.142.223h0v.1h0v.162h0l.75.547h0v.284a3.345,3.345,0,0,1-2.027,3.933l-.345.182h-.284l-.628.2h-1.48a.71.71,0,0,1-.223,0h-.73a.709.709,0,0,0-.284,0H110.28l-.71-.142h-.385l-.365-.122h-.243l-1.419-.284L107,28.259l-.162-.122-.568-.608h0l-.223-.385a1.094,1.094,0,0,1-.122-.223l-.324-.568a.507.507,0,0,0,0-.2v-1.3l.182-.568h0a.324.324,0,0,0,0-.142l.122-.182h0l.162-.2h0l.345-.345.122-.1h0l.466-.3h0l.385-.2h.426l.649-.223h.243l.345-.1h.142l.588-.122h1.277a.284.284,0,0,0,.182,0m.547,1.743h-.223l-.345.122h-.264a2.9,2.9,0,0,0-1.115,2.189,3.527,3.527,0,0,0,1.115,2.027h.162a.182.182,0,0,1,.122,0H112.9a2.757,2.757,0,0,0,.993-2.939,2.372,2.372,0,0,0-2.21-1.7" fill="#4b4b4b"/>
        <path id="パス_3978" data-name="パス 3978" d="M120.72,21.286h8.859l1.237.284a4.054,4.054,0,0,1,2.027,1.2,1.581,1.581,0,0,1,0,2.27l-.547.547h0a1.136,1.136,0,0,1-.3.2h0l-.466.284a1.865,1.865,0,0,1,.466.446h0l.851.77h1.865v2.169h-5.494V26.678h-2.777a1.723,1.723,0,0,0,0,.649h1.277v2.129h-6.73V27.55H122.1a.568.568,0,0,0,.3,0V23.5H120.72Zm5.9,2.25v.912h2.027q.73-.446,0-.912Z" fill="#4b4b4b"/>
        <path id="パス_3979" data-name="パス 3979" d="M135.479,21.225H149v3.487h-3.122V23.293H144.2l-.02,4.277h.892v2.108h-6.142V27.489l1.3-.041V23.293h-1.48l-.02,1.419h-3.244Z" fill="#4b4b4b"/>
      </g>
    </g>
  </g>
</svg>
