<svg xmlns="http://www.w3.org/2000/svg" xmlns:xlink="http://www.w3.org/1999/xlink" width="121" height="79" viewBox="0 0 121 79">
  <defs>
    <clipPath id="clip-path">
      <rect id="長方形_605" data-name="長方形 605" width="121" height="79" transform="translate(832.175 3547)" fill="#fff" stroke="#707070" stroke-width="1"/>
    </clipPath>
  </defs>
  <g id="マスクグループ_18" data-name="マスクグループ 18" transform="translate(-832.175 -3547)" clip-path="url(#clip-path)">
    <g id="レイヤー_2" data-name="レイヤー 2" transform="translate(853.183 3547)">
      <g id="レイヤー_1" data-name="レイヤー 1">
        <path id="パス_3929" data-name="パス 3929" d="M75.823,79H3.207A4.826,4.826,0,0,1,0,75.838V3.222C.832.772,2.572,0,5.038,0H73.947c2.481,0,4.206.772,5.038,3.162V75.778A4.826,4.826,0,0,1,75.823,79ZM.968,39.485V74.522c0,2.405,1.1,3.51,3.48,3.51H74.537a3.026,3.026,0,0,0,3.495-3.51V4.538c0-2.466-1.089-3.555-3.54-3.555H4.538C2.042.968.968,2.057.968,4.538Z" fill="#4b4b4b"/>
        <path id="パス_3930" data-name="パス 3930" d="M20.6,38.836V36.763H19.085c-4.433.121-8.865.257-13.313.333A11.8,11.8,0,0,1,3.715,36.7a3.51,3.51,0,0,1,2.874-1.1c4.266-.166,8.547-.257,12.814-.378h1.2c.3-.908.106-2.133,1.513-2.194s1.18,1.225,1.513,2.088c2.829.091,5.643.151,8.472.272,1.831.076,3.676.2,5.507.393.454,0,.877.5,1.316.756a4.145,4.145,0,0,1-1.377.545c-3.585,0-7.171-.166-10.756-.242H23.579v2c1.921.106,3.827.106,5.718.318a22,22,0,0,1,4.3.938,2.784,2.784,0,0,1,1.891,2.829c0,1.967.106,3.933.121,5.915a3.026,3.026,0,0,1-2.269,3.1,13.192,13.192,0,0,1-3.646.711c-5.189,0-10.378,0-15.582-.151a10.136,10.136,0,0,1-3.132-.787,2.557,2.557,0,0,1-1.8-2.557c0-2.133,0-4.281,0-6.414a2.617,2.617,0,0,1,1.785-2.6,20.878,20.878,0,0,1,4.085-.983C16.892,38.942,18.692,38.942,20.6,38.836Zm12.178,8.139V45.568c.091-.772-.151-1.089-1.014-1.089H12.853a2.939,2.939,0,0,0-.877.091v2.405ZM12.005,48.593A1.513,1.513,0,0,0,13.14,50.5a10.408,10.408,0,0,0,3.162.635c4.206,0,8.411.076,12.617,0a8.684,8.684,0,0,0,2.92-.756,1.331,1.331,0,0,0,.8-1.785Zm20.65-5.779.272-.257c-.318-.378-.575-.893-.968-1.089a5.31,5.31,0,0,0-2.073-.545c-4.433-.151-8.85-.3-13.283-.318a13.994,13.994,0,0,0-3.646.7,1.15,1.15,0,0,0-.968,1.513Z" transform="translate(-0.689 -6.128)" fill="#4b4b4b"/>
        <path id="パス_3931" data-name="パス 3931" d="M59.991,50.3c.651,1.846,1.256,3.6,1.861,5.355a7.247,7.247,0,0,1,.484,1.392c0,.393,0,1.059-.287,1.165a1.513,1.513,0,0,1-1.316-.121A3.464,3.464,0,0,1,59.6,56.581c-.741-1.815-1.377-3.676-2.1-5.507a1.513,1.513,0,0,0-.726-.832c-.681-.2-.62.484-.772.877-.635,1.74-1.241,3.525-1.936,5.25a4.085,4.085,0,0,1-1.135,1.513c-.333.272-.938.2-1.422.287,0-.424-.287-.893-.182-1.256.484-1.513,1.059-3.1,1.513-4.66.212-.62.333-1.271.5-1.982l-1.362-.242a2.738,2.738,0,0,1-2.526-2.814V36.626a2.375,2.375,0,0,1,2.33-2.39c2.542-.242,5.1-.272,7.655-.318a11.21,11.21,0,0,1,2.738.333,2.421,2.421,0,0,1,2.073,2.8c-.166,3.48-.408,6.944-.651,10.423a2.436,2.436,0,0,1-1.876,2.284A4.37,4.37,0,0,1,59.991,50.3Zm1.225-5.552H52.14v2.708a1.165,1.165,0,0,0,1.316,1.256h6.051a1.377,1.377,0,0,0,1.513-1.271C61.1,46.611,61.126,45.764,61.217,44.75ZM52,38.7h9.485V37.11a1,1,0,0,0-.877-1.165A19.213,19.213,0,0,0,52.9,35.84a1.513,1.513,0,0,0-.893.953,7.776,7.776,0,0,0,0,1.891Zm9.364,1.664h-8.82a.605.605,0,0,0-.424.424c0,.772,0,1.513,0,2.315H61.2Z" transform="translate(-9.175 -6.294)" fill="#4b4b4b"/>
        <path id="パス_3932" data-name="パス 3932" d="M86.5,47.819c-3.026,1.377-10.953,1.679-12.511.3a10.847,10.847,0,0,1,1.906-.529c2.012-.106,4.009-.136,6.051-.212a3.464,3.464,0,0,0,3.691-2.723A14.871,14.871,0,0,0,83.38,44.2c-2.466-.106-4.932-.121-7.4-.227a8.578,8.578,0,0,1-1.8-.408V43.1a13.071,13.071,0,0,1,1.8-.454,36.308,36.308,0,0,1,10.378.348c.166-.469.348-.923.514-1.377.378-.983.242-1.286-.8-1.513a11.029,11.029,0,0,0-2.345-.257H77.313a17.246,17.246,0,0,1-2.163-.091c-.272,0-.514-.318-.772-.484.212-.2.408-.514.666-.59a8.577,8.577,0,0,1,1.74-.318,43.146,43.146,0,0,1,10.817.272,4.039,4.039,0,0,1,1.513.62,1.362,1.362,0,0,1,.651,1.785c-1.513,3.026-.741,6.127-.5,9.213.2,2.375.635,4.75.938,7.125.091.7.2,1.513-.666,1.755a1.392,1.392,0,0,1-1.8-1.241c-.393-2-.666-4.009-.923-6.051C86.663,50.6,86.617,49.256,86.5,47.819Z" transform="translate(-13.729 -7.079)" fill="#4b4b4b"/>
        <path id="パス_3933" data-name="パス 3933" d="M4.081,72.6a10.591,10.591,0,0,1-1.725,0,3.026,3.026,0,0,1-.908-.56c.242-.257.454-.635.756-.741A11.285,11.285,0,0,1,4.1,70.962c0-.666,0-1.377,0-2.088A3.616,3.616,0,0,1,4.232,67.8a6.248,6.248,0,0,1,.62-1.059,4.432,4.432,0,0,1,.545,1.15,14.19,14.19,0,0,1,0,1.967v1.059H17.424c1.936,0,2.632.726,2.542,2.647a30.741,30.741,0,0,1-.408,3.873c-.605,3.177-2.708,4.917-6.263,5.265a8.563,8.563,0,0,1-1.967,0c-.333,0-.635-.408-.953-.635.287-.257.545-.666.862-.741.893-.212,1.831-.257,2.738-.393a4.538,4.538,0,0,0,3.994-3.495,32.693,32.693,0,0,0,.711-3.858c.121-.8-.318-1.225-1.15-1.225H6.32c-.62,0-.877.2-.877.847V84.955c0,1.709,1,2.708,2.92,2.8,3.207.272,6.43.272,9.652.272a5.083,5.083,0,0,1,1.362.151.877.877,0,0,1,.545.59c0,.2-.3.514-.529.59a4.72,4.72,0,0,1-1.513.242c-3.162-.061-6.384-.061-9.606-.212C5.7,89.3,4.172,88.042,4.157,85.5V73.851A5.5,5.5,0,0,1,4.081,72.6Z" transform="translate(-0.269 -12.385)" fill="#4b4b4b"/>
        <path id="パス_3934" data-name="パス 3934" d="M56.746,67.544h9.319a2.1,2.1,0,0,1,2.194,2.239A36.822,36.822,0,0,1,67.018,82.37a9.7,9.7,0,0,1-9.243,7.292c-1.513.106-3.026.182-4.629.242a2.511,2.511,0,0,1-1.059-.151.893.893,0,0,1-.454-.635.764.764,0,0,1,.484-.529,14.992,14.992,0,0,1,1.846-.227c1.891-.212,3.812-.272,5.658-.666a7.564,7.564,0,0,0,5.613-4.6,1.029,1.029,0,0,0-.257-1.3,24.3,24.3,0,0,0-10.242-6.233,1.725,1.725,0,0,0-1.876.3,5.552,5.552,0,0,1-1.921.938c-.287.091-.7-.151-1.044-.257a3.343,3.343,0,0,1,.56-1.029c.545-.408,1.21-.666,1.77-1.059a7.292,7.292,0,0,0,3.026-5.824,8.306,8.306,0,0,1,.076-1.377,4.372,4.372,0,0,1,.62-1c.227.3.454.62.666.938C56.716,67.272,56.7,67.393,56.746,67.544ZM65.959,80.6c.106-.182.182-.242.2-.333a29.652,29.652,0,0,0,.877-10.06,1.029,1.029,0,0,0-1.1-1.044H56.852l-1.634,4.962A25.718,25.718,0,0,1,65.959,80.6Z" transform="translate(-9.259 -12.295)" fill="#4b4b4b"/>
        <path id="パス_3935" data-name="パス 3935" d="M38.452,58.932a4.932,4.932,0,0,1-1.437.242c-1.588-.212-3.162-.59-4.75-.787a44.519,44.519,0,0,0-5.1-.408H11.282a23.646,23.646,0,0,1-4.962-.56c-3.162-.756-4.538-2.723-4.372-6.051s.227-6.762.333-10.136a3.026,3.026,0,0,1,.151-1.362,1.891,1.891,0,0,1,1.15-.862c.348,0,.862.454,1.119.832a2.224,2.224,0,0,1,.212,1.241c-.015,3.6-.166,7.277-.318,10.953a3.3,3.3,0,0,0,2.269,3.616,17.972,17.972,0,0,0,4.811.787c5.961.106,11.906,0,17.851.121A48.229,48.229,0,0,1,36.8,57.722a8.306,8.306,0,0,1,1.709.8Z" transform="translate(-0.359 -7.239)" fill="#4b4b4b"/>
        <path id="パス_3936" data-name="パス 3936" d="M82.453,35.164c-2.436,0-4.871-.091-7.292,0-2,.106-2.844,1.18-2.814,3.207,0,3.676.2,7.352.151,11.044,0,2.254-.393,4.538-.605,6.777a1.089,1.089,0,0,1,0,.287c-.287,1.225-.847,1.785-1.694,1.664s-.953-.7-.847-2.027c.242-3.374.56-6.747.666-10.136,0-2.33-.136-4.66-.242-7-.136-3.3.877-4.826,4.13-5.219a60.393,60.393,0,0,1,14.962,0c.469,0,.893.5,1.331.756a4.977,4.977,0,0,1-1.513.545H82.469Z" transform="translate(-12.863 -6.178)" fill="#4b4b4b"/>
        <path id="パス_3937" data-name="パス 3937" d="M64.818,13.747H59.4a3.51,3.51,0,0,1-.983-.091.651.651,0,0,1-.408-.454.635.635,0,0,1,.287-.56,2.421,2.421,0,0,1,1.029-.272c3.676,0,7.352-.182,11.029-.166,2.133,0,2.8.666,2.768,2.814a81.861,81.861,0,0,1-.333,8.835c-.363,3.026-1.967,4.448-5.007,4.7-1.891.151-3.812.106-5.718.121a1.1,1.1,0,0,1-.666-.121,6.928,6.928,0,0,1-.8-.711c.318-.227.62-.635.938-.651h5.128c3.132,0,4.917-1.513,5.219-4.538.257-2.572.166-5.174.227-7.776,0-.8-.514-1.1-1.225-1.1H64.833Z" transform="translate(-10.765 -2.264)" fill="#4b4b4b"/>
        <path id="パス_3938" data-name="パス 3938" d="M31.061,90.42h-3.54c-.439,0-.832-.469-1.256-.726.454-.257.877-.681,1.331-.711h5.628a23.81,23.81,0,0,0,2.935-.3,6.7,6.7,0,0,0,5.461-4.312A23.8,23.8,0,0,0,43.133,75.9c.076-1.21,0-2.436,0-3.646a4.175,4.175,0,0,1,.106-1.074,3.585,3.585,0,0,1,.545-.832c.212.272.575.529.59.817a24.446,24.446,0,0,1,0,3.646,65.672,65.672,0,0,1-.8,7.836c-1.18,5.431-3.888,7.564-9.455,7.806H31.091Z" transform="translate(-4.874 -13.054)" fill="#4b4b4b"/>
        <path id="パス_3939" data-name="パス 3939" d="M8.118,14.564l-2.027.121c-1.014,0-2.027.106-3.026.091-.514,0-1.286.227-1.377-.545s.756-.953,1.316-.968H14.442a1.513,1.513,0,0,1,.832.242,1.074,1.074,0,0,1,.439.756.847.847,0,0,1-.666.514c-1.119-.061-2.33-.121-3.48-.212l-2.178-.091v4.448a43.07,43.07,0,0,1-.666,6.233,4.448,4.448,0,0,1-5.386,3.722c-.408,0-.787-.484-1.2-.756.378-.242.772-.726,1.135-.711,3.343.166,4.538-1.725,4.75-4.75C8.239,20.01,8.118,17.347,8.118,14.564Z" transform="translate(-0.312 -2.461)" fill="#4b4b4b"/>
        <path id="パス_3940" data-name="パス 3940" d="M34.955,7.8a1.256,1.256,0,0,1,0,1.77c-1,1.513-2.118,2.9-3.162,4.372a2.738,2.738,0,0,0-.575,1.331v9.077a15.823,15.823,0,0,1-.287,1.831h-.514a13.616,13.616,0,0,1-.3-1.921V15.275c-.666.424-1.15.787-1.664,1.089-1.089.62-2.148,1.271-3.283,1.8-.393.182-1.256.2-1.362,0-.378-.681.227-1.014.772-1.331,1.2-.681,2.375-1.377,3.555-2.1a17.125,17.125,0,0,0,5.976-6.051,4.81,4.81,0,0,1,.408-.56,4.024,4.024,0,0,1,.439-.318Z" transform="translate(-4.396 -1.448)" fill="#4b4b4b"/>
        <path id="パス_3941" data-name="パス 3941" d="M82.551,80.543h-7a2,2,0,0,1-.968-.106A1.331,1.331,0,0,1,74,79.575a1.132,1.132,0,0,1,.575-.756,2.466,2.466,0,0,1,1.059-.136H89.662c.681,0,1.619-.106,1.619.953s-.923.923-1.619.923Z" transform="translate(-13.733 -14.599)" fill="#4b4b4b"/>
        <path id="パス_3942" data-name="パス 3942" d="M46.229,17.758H40.178c-.651,0-1.21-.091-1.225-.923s.575-.953,1.2-.953H52.053c.635,0,1.241.136,1.241.938s-.62.938-1.316.938Z" transform="translate(-7.228 -2.947)" fill="#4b4b4b"/>
        <path id="パス_3943" data-name="パス 3943" d="M84.986,17.758h-5.9c-.62,0-1.225,0-1.256-.877s.59-1,1.241-1H90.886c.666,0,1.3.136,1.271.983s-.605.893-1.256.893Z" transform="translate(-14.442 -2.947)" fill="#4b4b4b"/>
        <path id="パス_3944" data-name="パス 3944" d="M65.792,5.835h-5.7a1.8,1.8,0,0,1-.772-.106c-.242-.121-.545-.378-.545-.59a.832.832,0,0,1,.545-.62,3.782,3.782,0,0,1,1.331-.3H71.087a3.3,3.3,0,0,1,1.331.3,1.089,1.089,0,0,1,.514.8c0,.166-.424.514-.681.514-.877,0-1.77,0-2.647-.076H65.792Z" transform="translate(-10.906 -0.782)" fill="#4b4b4b"/>
        <path id="パス_3945" data-name="パス 3945" d="M8.1,4.031l4.387.287a1.392,1.392,0,0,1,.756.166,5.234,5.234,0,0,1,.756.8c-.318.2-.651.545-.983.545-1.18,0-2.36-.166-3.54-.151-1.906,0-3.812.121-5.718.182a2.421,2.421,0,0,1-.877,0,3.147,3.147,0,0,1-.8-.575c.212-.257.378-.681.635-.741a16.792,16.792,0,0,1,2.617-.378H8.086Z" transform="translate(-0.386 -0.748)" fill="#4b4b4b"/>
        <path id="パス_3946" data-name="パス 3946" d="M27.515,67.465a25.9,25.9,0,0,1,7.973,2.254c.56.257,1.331.605.983,1.407-.091.2-1.089.166-1.513,0a30.786,30.786,0,0,0-7.564-1.967c-.484,0-.938-.529-1.407-.817Z" transform="translate(-4.822 -12.519)" fill="#4b4b4b"/>
        <path id="パス_3947" data-name="パス 3947" d="M19.4,10.67a3.51,3.51,0,0,1-.529-.787c-.56-1.513-1.165-3.026-1.679-4.675-.091-.242.076-.575.121-.862.227.166.56.272.635.484.635,1.619,1.225,3.237,1.77,4.871a2.36,2.36,0,0,1,0,.908Z" transform="translate(-3.186 -0.807)" fill="#4b4b4b"/>
        <path id="パス_3948" data-name="パス 3948" d="M21.757,9.234c-.787-.348-2.587-5.174-2.315-6.187C20.607,3.394,22.226,7.751,21.757,9.234Z" transform="translate(-3.603 -0.565)" fill="#4b4b4b"/>
      </g>
    </g>
  </g>
</svg>
