<svg xmlns="http://www.w3.org/2000/svg" xmlns:xlink="http://www.w3.org/1999/xlink" width="137" height="89" viewBox="0 0 137 89">
  <defs>
    <clipPath id="clip-path">
      <rect id="長方形_605" data-name="長方形 605" width="137" height="89" transform="translate(653.175 3547.223)" fill="#fff" stroke="#707070" stroke-width="1"/>
    </clipPath>
  </defs>
  <g id="マスクグループ_15" data-name="マスクグループ 15" transform="translate(-653.175 -3547.223)" clip-path="url(#clip-path)">
    <g id="レイヤー_2" data-name="レイヤー 2" transform="translate(652.977 3553.537)">
      <g id="レイヤー_1" data-name="レイヤー 1" transform="translate(0)">
        <path id="パス_3861" data-name="パス 3861" d="M9.943,59.917C4.963,59.384,0,56.1,0,50.661a6.285,6.285,0,0,1,6.182-6.405,5.787,5.787,0,0,1,5.839,5.667,5.581,5.581,0,0,1-3.658,5.289c-.1,0-.515.258-.515.429,0,.532,1.717,1.048,2.164,1.151Zm17.4-11.368c0,3.331-.584,6.234-3.228,8.586a16.177,16.177,0,0,1-9.943,2.954H12.313V56.912c2.061-.962,2.061-3.022,2.061-4.877V25.572c0-1.958,0-2.284-1.717-2.868a1.46,1.46,0,0,1-1.168-1.425c0-1.528,1.717-1.631,1.958-1.631H28.335c.223,0,1.958.1,1.958,1.631A1.442,1.442,0,0,1,29.125,22.7c-1.837.584-1.717.91-1.717,2.868Z" transform="translate(0.001 -1.53)" fill="#4b4b4b"/>
        <path id="パス_3862" data-name="パス 3862" d="M9.943,59.917C4.963,59.384,0,56.1,0,50.661a6.285,6.285,0,0,1,6.182-6.405,5.787,5.787,0,0,1,5.839,5.667,5.581,5.581,0,0,1-3.658,5.289c-.1,0-.515.258-.515.429,0,.532,1.717,1.048,2.164,1.151Zm17.4-11.368c0,3.331-.584,6.234-3.228,8.586a16.177,16.177,0,0,1-9.943,2.954H12.313V56.912c2.061-.962,2.061-3.022,2.061-4.877V25.572c0-1.958,0-2.284-1.717-2.868a1.46,1.46,0,0,1-1.168-1.425c0-1.528,1.717-1.631,1.958-1.631H28.335c.223,0,1.958.1,1.958,1.631A1.442,1.442,0,0,1,29.125,22.7c-1.837.584-1.717.91-1.717,2.868Z" transform="translate(0.001 -1.53)" fill="#4b4b4b"/>
        <path id="パス_3863" data-name="パス 3863" d="M38.646,19.716H52.659v39.5H38.646c-.206,0-1.94-.1-1.94-1.717a1.443,1.443,0,0,1,1.151-1.425c1.855-.584,1.8-.91,1.8-2.868V25.572c0-1.958,0-2.284-1.8-2.868a1.442,1.442,0,0,1-1.151-1.425c0-1.528,1.717-1.631,1.94-1.631m16.348,0h11.78V30.38c0,.275,0,1.271-1.631,1.271-.893,0-1.168-.532-1.425-1.322A10.166,10.166,0,0,0,54.994,22.7Zm0,17.671a5.633,5.633,0,0,0,3.692-4.654c.275-.91.584-1.717,1.717-1.717,1.717,0,1.374,1.906,1.374,2.318V44.7c0,.429.258,2.335-1.374,2.335-1.116,0-1.425-.859-1.717-1.717a5.633,5.633,0,0,0-3.692-4.654Zm0,18.89a10.853,10.853,0,0,0,8.981-7.676c.378-.79.687-1.717,1.717-1.717a1.511,1.511,0,0,1,1.528,1.717V59.11H54.994Z" transform="translate(-2.857 -1.53)" fill="#4b4b4b"/>
        <path id="パス_3864" data-name="パス 3864" d="M38.646,19.722H52.659v39.5H38.646c-.206,0-1.94-.1-1.94-1.717a1.442,1.442,0,0,1,1.151-1.425c1.855-.584,1.8-.91,1.8-2.868V25.577c0-1.958,0-2.284-1.8-2.868a1.442,1.442,0,0,1-1.151-1.425C36.706,19.825,38.44,19.722,38.646,19.722Zm16.348,0h11.78V30.454c0,.275,0,1.271-1.631,1.271-.893,0-1.168-.532-1.425-1.322a10.166,10.166,0,0,0-8.724-7.625Zm0,17.671a5.633,5.633,0,0,0,3.692-4.654c.275-.91.584-1.717,1.717-1.717,1.717,0,1.374,1.906,1.374,2.318V44.776c0,.429.258,2.335-1.374,2.335-1.116,0-1.425-.859-1.717-1.717a5.633,5.633,0,0,0-3.692-4.654Zm0,18.89a10.853,10.853,0,0,0,8.981-7.676c.378-.79.687-1.717,1.717-1.717a1.511,1.511,0,0,1,1.528,1.717V59.184H54.994Z" transform="translate(-2.857 -1.536)" fill="#4b4b4b"/>
        <path id="パス_3865" data-name="パス 3865" d="M76.374,19.716H90.336v39.5H76.374c-.206,0-1.958-.1-1.958-1.717a1.46,1.46,0,0,1,1.168-1.425c1.855-.584,1.717-.91,1.717-2.868V25.572c0-1.958,0-2.284-1.717-2.868a1.46,1.46,0,0,1-1.168-1.425c0-1.528,1.717-1.631,1.958-1.631m16.348,0H104.5V30.38c0,.275,0,1.271-1.631,1.271-.893,0-1.168-.532-1.425-1.322A10.166,10.166,0,0,0,92.723,22.7Zm0,17.671a5.633,5.633,0,0,0,3.692-4.654c.275-.91.584-1.717,1.717-1.717,1.717,0,1.374,1.906,1.374,2.318V44.7c0,.429.258,2.335-1.374,2.335-1.116,0-1.425-.859-1.717-1.717a5.633,5.633,0,0,0-3.692-4.654Zm0,18.89a10.853,10.853,0,0,0,8.981-7.676c.378-.79.687-1.717,1.717-1.717a1.511,1.511,0,0,1,1.528,1.717V59.11H92.723Z" transform="translate(-5.794 -1.53)" fill="#4b4b4b"/>
        <path id="パス_3866" data-name="パス 3866" d="M76.374,19.722H90.336v39.5H76.374c-.206,0-1.958-.1-1.958-1.717a1.46,1.46,0,0,1,1.168-1.425c1.855-.584,1.717-.91,1.717-2.868V25.577c0-1.958,0-2.284-1.717-2.868a1.46,1.46,0,0,1-1.168-1.425C74.485,19.825,76.2,19.722,76.374,19.722Zm16.348,0H104.5V30.454c0,.275,0,1.271-1.631,1.271-.893,0-1.168-.532-1.425-1.322a10.166,10.166,0,0,0-8.724-7.625Zm0,17.671a5.633,5.633,0,0,0,3.692-4.654c.275-.91.584-1.717,1.717-1.717,1.717,0,1.374,1.906,1.374,2.318V44.776c0,.429.258,2.335-1.374,2.335-1.116,0-1.425-.859-1.717-1.717a5.633,5.633,0,0,0-3.692-4.654Zm0,18.89a10.853,10.853,0,0,0,8.981-7.676c.378-.79.687-1.717,1.717-1.717a1.511,1.511,0,0,1,1.528,1.717V59.184H92.723Z" transform="translate(-5.794 -1.536)" fill="#4b4b4b"/>
        <path id="パス_3867" data-name="パス 3867" d="M114.821,25.572c0-1.958,0-2.284-1.717-2.868a1.46,1.46,0,0,1-1.168-1.425c0-1.528,1.717-1.631,1.958-1.631h13.961v33.71c0,1.958,0,2.284,1.717,2.868a1.46,1.46,0,0,1,1.168,1.425c0,1.528-1.717,1.717-1.958,1.717H113.825c-.206,0-1.958-.1-1.958-1.717a1.46,1.46,0,0,1,1.168-1.425c1.837-.584,1.717-.91,1.717-2.868Zm15.335-5.925c5.032,0,7.985.515,10.475,1.958a10.922,10.922,0,0,1,5.444,10.3,10.939,10.939,0,0,1-5.444,10.3c-2.49,1.425-5.444,1.958-10.475,1.958V41.027c3.125-.567,3.28-2.748,3.28-5.341V27.753c0-2.387-.464-4.551-3.28-4.98Z" transform="translate(-8.71 -1.53)" fill="#4b4b4b"/>
        <path id="パス_3868" data-name="パス 3868" d="M114.821,25.572c0-1.958,0-2.284-1.717-2.868a1.46,1.46,0,0,1-1.168-1.425c0-1.528,1.717-1.631,1.958-1.631h13.961v33.71c0,1.958,0,2.284,1.717,2.868a1.46,1.46,0,0,1,1.168,1.425c0,1.528-1.717,1.717-1.958,1.717H113.825c-.206,0-1.958-.1-1.958-1.717a1.46,1.46,0,0,1,1.168-1.425c1.837-.584,1.717-.91,1.717-2.868Zm15.335-5.925c5.032,0,7.985.515,10.475,1.958a10.922,10.922,0,0,1,5.444,10.3,10.939,10.939,0,0,1-5.444,10.3c-2.49,1.425-5.444,1.958-10.475,1.958V41.027c3.125-.567,3.28-2.748,3.28-5.341V27.753c0-2.387-.464-4.551-3.28-4.98Z" transform="translate(-8.71 -1.53)" fill="#4b4b4b"/>
        <rect id="長方形_606" data-name="長方形 606" width="6.903" height="3.005" transform="translate(21.724 6.251)" fill="#4b4b4b"/>
        <rect id="長方形_607" data-name="長方形 607" width="6.903" height="3.005" transform="translate(21.724 6.251)" fill="#4b4b4b"/>
        <path id="パス_3869" data-name="パス 3869" d="M39.278,1.151a1.305,1.305,0,0,0-1.013,1.425v10.3a1.305,1.305,0,0,0,1.013,1.408v1.168c-4.19-.378-6.148-3.744-6.148-7.676S35.088.378,39.278,0Zm.876,13.068a1.322,1.322,0,0,0,1.013-1.408V2.507a1.322,1.322,0,0,0-1.013-1.425V0C44.344.378,46.3,3.761,46.3,7.693s-1.958,7.3-6.148,7.762Z" transform="translate(-2.579)" fill="#4b4b4b"/>
        <path id="パス_3870" data-name="パス 3870" d="M39.278,1.151a1.305,1.305,0,0,0-1.013,1.425v10.3a1.305,1.305,0,0,0,1.013,1.408v1.168c-4.19-.378-6.148-3.744-6.148-7.676S35.088.378,39.278,0Zm.876,13.068a1.322,1.322,0,0,0,1.013-1.408V2.507a1.322,1.322,0,0,0-1.013-1.425V0C44.344.378,46.3,3.761,46.3,7.693s-1.958,7.3-6.148,7.762Z" transform="translate(-2.579)" fill="#4b4b4b"/>
        <path id="パス_3871" data-name="パス 3871" d="M56.071,15.479a7.745,7.745,0,0,1-4.19-.859c-1.717-.979-2.009-1.717-2.009-2.713V2.531c0-.721,0-.841-.67-1.065a.55.55,0,0,1-.429-.532c0-.567.653-.618.721-.618h5.65s.721,0,.721.618a.55.55,0,0,1-.429.532c-.687.223-.67.343-.67,1.065v9.514a1.958,1.958,0,0,0,1.305,2.181Zm3.52-12.021c-.309-2.473-1.58-1.717-1.58-2.542s.824-.584,1.03-.584h2.25c.223,0,1.03,0,1.03.584s-1.254,0-1.58,2.542v7.436a4.276,4.276,0,0,1-3.709,4.465V14.191a3.28,3.28,0,0,0,2.645-3.331Z" transform="translate(-3.797 -0.023)" fill="#4b4b4b"/>
        <path id="パス_3872" data-name="パス 3872" d="M56.071,15.479a7.745,7.745,0,0,1-4.19-.859c-1.717-.979-2.009-1.717-2.009-2.713V2.531c0-.721,0-.841-.67-1.065a.55.55,0,0,1-.429-.532c0-.567.653-.618.721-.618h5.65s.721,0,.721.618a.55.55,0,0,1-.429.532c-.687.223-.67.343-.67,1.065v9.514a1.958,1.958,0,0,0,1.305,2.181Zm3.52-12.021c-.309-2.473-1.58-1.717-1.58-2.542s.824-.584,1.03-.584h2.25c.223,0,1.03,0,1.03.584s-1.254,0-1.58,2.542v7.436a4.276,4.276,0,0,1-3.709,4.465V14.191a3.28,3.28,0,0,0,2.645-3.331Z" transform="translate(-3.797 -0.023)" fill="#4b4b4b"/>
        <path id="パス_3873" data-name="パス 3873" d="M64.621.317h2.851V1.467a4.568,4.568,0,0,0-1.494,3.074c0,.446-.155.962-.7.962a.6.6,0,0,1-.653-.584Zm3.726,0H73.19v12.57c0,.738,0,.859.67,1.065a.567.567,0,0,1,.446.532c0,.584-.653.618-.738.618H67.987s-.738,0-.738-.618a.55.55,0,0,1,.429-.532c.7-.206.67-.326.67-1.065Zm8.586,4.6A.584.584,0,0,1,76.3,5.5c-.567,0-.653-.515-.721-.962a4.465,4.465,0,0,0-1.494-3.074V.317h2.833Z" transform="translate(-5.031 -0.025)" fill="#4b4b4b"/>
        <path id="パス_3874" data-name="パス 3874" d="M64.621.317h2.851V1.467a4.568,4.568,0,0,0-1.494,3.074c0,.446-.155.962-.7.962a.6.6,0,0,1-.653-.584Zm3.726,0H73.19v12.57c0,.738,0,.859.67,1.065a.567.567,0,0,1,.446.532c0,.584-.653.618-.738.618H67.987s-.738,0-.738-.618a.55.55,0,0,1,.429-.532c.7-.206.67-.326.67-1.065Zm8.586,4.6A.584.584,0,0,1,76.3,5.5c-.567,0-.653-.515-.721-.962a4.465,4.465,0,0,0-1.494-3.074V.317h2.833Z" transform="translate(-5.031 -0.025)" fill="#4b4b4b"/>
        <path id="パス_3875" data-name="パス 3875" d="M85.169,15.107H80.017c-.086,0-.721,0-.721-.618a.55.55,0,0,1,.429-.532c.687-.206.67-.326.67-1.065V2.588c0-.721,0-.841-.67-1.065A.55.55,0,0,1,79.3.991c0-.567.635-.618.721-.618H85.6s.738,0,.738.618a.55.55,0,0,1-.429.532c-.738.223-.738.223-.738,1.013Zm.876-1.151c1.614-.206,2.507-1.6,2.937-3.435,0-.429.326-.55.738-.55s.6.361.6.738v4.4H86.1Z" transform="translate(-6.174 -0.029)" fill="#4b4b4b"/>
        <path id="パス_3876" data-name="パス 3876" d="M85.169,15.107H80.017c-.086,0-.721,0-.721-.618a.55.55,0,0,1,.429-.532c.687-.206.67-.326.67-1.065V2.588c0-.721,0-.841-.67-1.065A.55.55,0,0,1,79.3.991c0-.567.635-.618.721-.618H85.6s.738,0,.738.618a.55.55,0,0,1-.429.532c-.738.223-.738.223-.738,1.013Zm.876-1.151c1.614-.206,2.507-1.6,2.937-3.435,0-.429.326-.55.738-.55s.6.361.6.738v4.4H86.1Z" transform="translate(-6.174 -0.029)" fill="#4b4b4b"/>
        <path id="パス_3877" data-name="パス 3877" d="M92.716.317h5.152V15.1H92.716s-.738,0-.738-.618a.567.567,0,0,1,.446-.532c.687-.206.67-.326.67-1.065V2.583c0-.721,0-.841-.67-1.065a.567.567,0,0,1-.446-.532c0-.567.653-.618.738-.618m6.1,0h4.413V4.335c0,.1,0,.464-.618.464-.343,0-.429-.189-.532-.481a3.8,3.8,0,0,0-3.263-2.851Zm0,6.611A2.147,2.147,0,0,0,100.2,5.262c.1-.326.206-.653.635-.653s.5.721.5.876V9.658c0,.172.1.876-.5.876s-.532-.309-.635-.653a2.112,2.112,0,0,0-1.391-1.717Zm0,7.024a4.053,4.053,0,0,0,3.435-2.868c.137-.292.258-.6.6-.6a.567.567,0,0,1,.584.67v3.95H98.813Z" transform="translate(-7.161 -0.025)" fill="#4b4b4b"/>
        <path id="パス_3878" data-name="パス 3878" d="M92.716.317h5.152V15.1H92.716s-.738,0-.738-.618a.567.567,0,0,1,.446-.532c.687-.206.67-.326.67-1.065V2.583c0-.721,0-.841-.67-1.065a.567.567,0,0,1-.446-.532C91.978.368,92.631.317,92.716.317Zm6.1,0h4.413V4.335c0,.1,0,.464-.618.464-.343,0-.429-.189-.532-.481a3.8,3.8,0,0,0-3.263-2.851Zm0,6.611A2.147,2.147,0,0,0,100.2,5.211c.1-.326.206-.653.635-.653s.5.721.5.876V9.658c0,.172.1.876-.5.876s-.532-.309-.635-.653a2.112,2.112,0,0,0-1.391-1.717Zm0,7.024a4.053,4.053,0,0,0,3.435-2.868c.137-.292.258-.6.6-.6a.567.567,0,0,1,.584.67V15.1H98.813Z" transform="translate(-7.161 -0.025)" fill="#4b4b4b"/>
        <path id="パス_3879" data-name="パス 3879" d="M105.759.317h2.833V1.467a4.465,4.465,0,0,0-1.477,3.074c0,.446-.155.962-.7.962a.6.6,0,0,1-.653-.584Zm3.8,0H114.4v12.57c0,.738,0,.859.67,1.065a.55.55,0,0,1,.429.532c0,.584-.653.618-.721.618h-5.667s-.721,0-.721-.618a.549.549,0,0,1,.429-.532c.738-.189.738-.326.738-1.065Zm8.586,4.6a.6.6,0,0,1-.653.584c-.55,0-.653-.515-.7-.962a4.568,4.568,0,0,0-1.58-3.074V.317h2.937Z" transform="translate(-8.235 -0.025)" fill="#4b4b4b"/>
        <path id="パス_3880" data-name="パス 3880" d="M105.759.317h2.833V1.467a4.465,4.465,0,0,0-1.477,3.074c0,.446-.155.962-.7.962a.6.6,0,0,1-.653-.584Zm3.8,0H114.4v12.57c0,.738,0,.859.67,1.065a.55.55,0,0,1,.429.532c0,.584-.653.618-.721.618h-5.667s-.721,0-.721-.618a.549.549,0,0,1,.429-.532c.738-.189.738-.326.738-1.065Zm8.586,4.6a.6.6,0,0,1-.653.584c-.55,0-.653-.515-.7-.962a4.568,4.568,0,0,0-1.58-3.074V.317h2.937Z" transform="translate(-8.235 -0.025)" fill="#4b4b4b"/>
        <rect id="長方形_608" data-name="長方形 608" width="6.903" height="3.005" transform="translate(110.524 6.251)" fill="#4b4b4b"/>
        <rect id="長方形_609" data-name="長方形 609" width="6.903" height="3.005" transform="translate(110.524 6.251)" fill="#4b4b4b"/>
        <path id="パス_3881" data-name="パス 3881" d="M53.457,66.3l-.446.91H51.448l-1.168.1-.326-.1h0a3.8,3.8,0,0,1-.635.155h-.824a2.972,2.972,0,0,0-.532.086,3.864,3.864,0,0,1-.687,0h-.309v.24h-.223v.859l.1.155v.756a2.335,2.335,0,0,1-.137,1.03l.137.189-.1.55.1.137-.189.309v.137l-.395.275v1.185l-.12.361a.206.206,0,0,1,0,.086,1.253,1.253,0,0,0,0,.24h0v.1a.567.567,0,0,1-.155.378v.429h0a.859.859,0,0,0,0,.206,1.992,1.992,0,0,0,0,.6h-.464a.669.669,0,0,1-.275,0h0c-.326,0-.481-.378-.481-.893v-.67q-.01-.2,0-.395a.859.859,0,0,1,0-.326V72.64a.7.7,0,0,1-.137-.326.275.275,0,0,1,0-.155.482.482,0,0,1,.086-.069.292.292,0,0,1,.086-.24,1.185,1.185,0,0,1,.155-.464.979.979,0,0,1,0-.309.12.12,0,0,0,.137-.137v-.12a.275.275,0,0,1,0-.172h0l-.086-.155a1.717,1.717,0,0,1,.086-.618v-.532l-.086-.395.086-.721-.086-.532v-.189h-.292l-.206.1h-.137v.086a3.641,3.641,0,0,1-.756,0v.155l-.721-.24h-.979l-.6.172c-.5-.429-.738-.721-.738-.91a1.185,1.185,0,0,1,0-.343h0l.412-.343h.343l1.236.206.326-.1h.944l.738.1.481-.189.172-.481.738.189h0l.258.292h0l.275-.12.532.12a8.585,8.585,0,0,1,.944-.12,1.271,1.271,0,0,1,.464.1h.687l.618-.12h.55l.275-.12.395.12h2.3Z" transform="translate(-3.158 -5.118)" fill="#4b4b4b"/>
        <path id="パス_3882" data-name="パス 3882" d="M65.637,70.5l-.189.395v.618l-.172.155a1.133,1.133,0,0,1-.584.944h-.12l-1.116.773-.326.189-.55.584h-.326l-.206.155-.361.12-.927.481a1.014,1.014,0,0,1-.309-.155.7.7,0,0,1-.395.24H59.97l-.361.292h-.481l-.172.12h-.7l-.927.189h-.944l-.086-.1-.738-.1-.309-.155H54.8v-.206l-.361-.361-.464-.309-.24-.515V73.44l-.1-.137v-.841l.24-.738v-.962l.258-.258v-.086l.12-.206v-.189h0l-.1-.206.309-.206.343-.738.756-1.1h.189a1.614,1.614,0,0,1,.172-.24l.189-.155v-.292h.275a2.043,2.043,0,0,1,.6-.326l.1-.1a4.362,4.362,0,0,1,.962-.189h3.177a.189.189,0,0,0,.12-.189c0,.12.189.189.395.189l.155.155h.67l1.254.55.137.395.12.172.326.137.5.807.292.378a6.01,6.01,0,0,1,.515,1.391Zm-1.391.12-.1-.515.1-.155-.137-.309a.258.258,0,0,0,0-.12h0l-.326-.223-.12-.292h-.137v-.258l-.464-.429-.275-.223h-.1a3.71,3.71,0,0,0-1.58-.6h-.275l-.326-.1-.189.1-.343-.086h-.5a1.134,1.134,0,0,1-.6.395h-.24l-.258.12H58.03a7.525,7.525,0,0,1-.773.532l-.1.137-.086.412-.429.172v.1a2.027,2.027,0,0,1-.292.412v.309l-.258.1h0l-.155.567-.258.137a2.851,2.851,0,0,1-.326,1.322.91.91,0,0,0-.155.55V73.3l.223.24v.24l.189.189a2.026,2.026,0,0,0,.927.309l.773-.206.172.172h.258l.55-.12.584.1a.5.5,0,0,1,.361-.155,1.425,1.425,0,0,1,.721-.258l.378-.223h.309l.24-.189h.738a.584.584,0,0,1,.378-.24l.223-.515h.309l.258-.24h0l.292-.275.55-.567h.24l.12-.275h.137v-.172Z" transform="translate(-4.175 -5.161)" fill="#4b4b4b"/>
        <path id="パス_3883" data-name="パス 3883" d="M81.573,73.379l-.206.309-.55.687-.429.326-.532.292-.584.206-.515.1H76.765l-.275-.258-.464-.1-.086-.12h-.155l-.412-.378-.378-.1-.206-.24h-.738v-.292h-.189l-.12-.189-.292-.12h0l-.343-.378-.326-.223-.446-.24-.361-.223a6.047,6.047,0,0,0-.687-.446q0-.206-.155-.206H70.6l.086.532h-.12V72.5l-.137.7a1.443,1.443,0,0,1,.12.446l-.1.206v.618l-.137.326v.378l-.258.515-.481.721c-.446,0-.687-.172-.721-.532l.052-.361v-.343h0v-.24a.378.378,0,0,1,0-.172.515.515,0,0,1,.086-.24l-.086-.223.275-.361-.1-.292v-.189a1.151,1.151,0,0,1,0-.309,1.081,1.081,0,0,1,0-.326v-.67a.807.807,0,0,1,0-.395h0L68.9,71.37l.12-.155v-1.1l.137-.137a.584.584,0,0,1,0-.292v-.292h0V68.261a.859.859,0,0,1,.172-.275s0-.172,0-.223V67.54a1.3,1.3,0,0,1-.172-.618,1.717,1.717,0,0,1,.24-.807,4.223,4.223,0,0,1,.567-.12,1.717,1.717,0,0,1,.584.172l.429.5v.412l.189.206-.1.24v.24l-.223.361.086.532-.137.446v.738l.223.326h.12l.326.1.155-.1h.155l.12-.086h.446l.172-.1.515-.172h.412a.962.962,0,0,1,.5-.24h0a1.158,1.158,0,0,1,.515-.155l.464-.189.172-.258.275-.1v-.223h.172v.017h.309l.189-.326h.189a.567.567,0,0,1,.412-.464l.12-.155v-.206h.326a1,1,0,0,1,.361-.5,1.356,1.356,0,0,0,0-.223l.24-.309.189-.172c0-.395.275-.584.721-.584a3.09,3.09,0,0,1,.429.532l-.172.464h0v.223l-.137.12v.309H78.5l-.155.429-.24.275a.721.721,0,0,1-.446.446h0a.945.945,0,0,1-.12.361l-.446.086a.515.515,0,0,1-.223.206v.12l-.378.12-.361.378-.55.275-.378.275-.378.086-.292.155-.481.1-.446.258-.532.258h-.189a1.717,1.717,0,0,1,.429.378l.395.309.6.361v.137l.395.1.481.292.584.292.309.258.326.1.5.343.635.189H78l.876-.12H79.2a.567.567,0,0,1,.378-.155.687.687,0,0,1,.223-.12h0l.309-.361.137-.086V73a1.838,1.838,0,0,1,.464-.206h0l.464-.1.292.155Z" transform="translate(-5.36 -5.118)" fill="#4b4b4b"/>
        <path id="パス_3884" data-name="パス 3884" d="M94.926,65.97a.368.368,0,0,1-.206.292.515.515,0,0,0-.223.361,1.048,1.048,0,0,1-.258.292c0,.155-.172.24-.378.292l-.326.258-.24.446h-.189a1.528,1.528,0,0,1-.326.343l-.326.155-.378.429-.532.361h-.155l-.172.309-.412.24-.206.206-.172.464-.687.756-.223.326-.1.189.12.189-.155.326.1.326-.155.412V73.2l.137.532a.945.945,0,0,0-.275.6v.395a2.094,2.094,0,0,1,0,.378l-.155.807v.464l-.086.172.137.67-.155.206.137.343-.12.172.086.137a.6.6,0,0,1,0,.24v.1l-.137.464.12.5-.172.343.172.223v.137a1.717,1.717,0,0,1-.223,1.048.841.841,0,0,1-.756.309l-.172-.893-.155-.532v-.361l-.24-.137.155-.378v-.824l-.12-.584V77.2a.292.292,0,0,1,0-.275v-.1l-.1-.859.1-.412v-.446l.12-.738-.172-.292.086-.446v-.343l-.137-.343a1.717,1.717,0,0,0,.137-.515.258.258,0,0,0,0-.172v-.326l-.12-.326-.172-.137-.12-.172a3.125,3.125,0,0,1-.824-.807l-.223-.155-.258-.481-.738-.67-.137-.258-.309-.378-.55-.446V67.91l-.275-.172a.409.409,0,0,0-.395-.464,1.477,1.477,0,0,1-.773-1.305v-.481h.223a.653.653,0,0,1,.412-.1,2.747,2.747,0,0,1,.773.155l.137.309h.292l.326.515.481.361.137.172.378.618.275.206,1.03,1.408.326.429c.446.446.79.824,1.03,1.1h0a.824.824,0,0,1,.223-.464v.137a1.254,1.254,0,0,1,.326-.481.653.653,0,0,1,.258-.412,1.133,1.133,0,0,1,.343-.412h.172a.67.67,0,0,1,.67-.5v.086l.172-.326h.189l.275-.326.12-.24a1.254,1.254,0,0,1,.807-.481v-.223l.12-.155.189-.155.1-.378h.155c.155,0,.206-.137.292-.446l.567-.24.292-.292h.515l.447-.172.155.378a1.992,1.992,0,0,1,0,.481" transform="translate(-6.435 -5.076)" fill="#4b4b4b"/>
        <path id="パス_3885" data-name="パス 3885" d="M108.859,70.5l-.189.395v.618l-.189.155a1.1,1.1,0,0,1-.567.944h-.137l-1.1.773-.343.189-.532.584h-.326l-.206.155-.378.12-.927.481a.961.961,0,0,1-.292-.155.7.7,0,0,1-.412.24h0l-.378.292h-.343l-.172.12h-.7l-.927.189h-.944l-.086-.1-.756-.1-.395-.258h-.515v-.206l-.343-.361-.464-.206-.206-.515V73.44l-.189-.206v-.841l.24-.738v-.893l.258-.258v-.086l.1-.206v-.189h0l-.086-.206.292-.206.361-.738.756-1.1h.189a1.373,1.373,0,0,1,.155-.24l.189-.155v-.292h.275a2.13,2.13,0,0,1,.618-.326l.086-.1a4.927,4.927,0,0,1,.962-.189h3.194a.189.189,0,0,0,.1-.189.429.429,0,0,0,.412.189l.155.155h.55l1.236.55.155.395.1.172.343.137.5.807.292.378a6.473,6.473,0,0,1,.5,1.391Zm-1.391.12v-.67l-.12-.309v-.12L107,69.3l-.1-.292h-.155v-.258l-.464-.429-.275-.223h-.12a3.623,3.623,0,0,0-1.563-.6h-.275l-.343-.1-.189.1-.326-.086h-.515a1.116,1.116,0,0,1-.618.395h-.24l-.258.12h-.326a6.285,6.285,0,0,1-.79.532l-.086.137v.412l-.429.172v.1a3.231,3.231,0,0,1-.309.412v.309l-.258.1h0l-.172.567-.258.137a2.7,2.7,0,0,1-.309,1.322,1.048,1.048,0,0,0-.172.55V73.3l.223.24v.24l.189.189a2.026,2.026,0,0,0,.927.309l.773-.206.172.172h.258l.55-.12.6.1a.464.464,0,0,1,.343-.155,1.528,1.528,0,0,1,.721-.258l.395-.223h.1l.24-.189h.738a.618.618,0,0,1,.395-.24l.223-.515h.292l.258-.24h.1l.309-.223.567-.567h.24l.1-.275h.155v-.172Z" transform="translate(-7.54 -5.161)" fill="#4b4b4b"/>
      </g>
    </g>
  </g>
</svg>
