<svg xmlns="http://www.w3.org/2000/svg" xmlns:xlink="http://www.w3.org/1999/xlink" width="179" height="117" viewBox="0 0 179 117">
  <defs>
    <clipPath id="clip-path">
      <rect id="長方形_605" data-name="長方形 605" width="179" height="117" transform="translate(473.953 3690.734)" fill="#fff" stroke="#707070" stroke-width="1"/>
    </clipPath>
  </defs>
  <g id="マスクグループ_14" data-name="マスクグループ 14" transform="translate(-473.953 -3690.734)" clip-path="url(#clip-path)">
    <g id="レイヤー_2" data-name="レイヤー 2" transform="translate(474 3742.837)">
      <g id="レイヤー_1" data-name="レイヤー 1" transform="translate(0 0)">
        <path id="パス_3851" data-name="パス 3851" d="M10.361,3.45A4.024,4.024,0,0,0,6.438.915c-1.569,0-2.716.785-2.716,1.831S4.728,4.375,7.2,5.18c2.857.946,4.868,1.992,4.868,3.822s-2.635,3.762-6.719,3.762a15.531,15.531,0,0,1-2.837-.241A8.365,8.365,0,0,1,.8,12.04a16.7,16.7,0,0,1-.8-3.1l.986-.2a5.653,5.653,0,0,0,4.889,3.3c1.71,0,2.816-.785,2.816-2.012s-1.247-1.75-3.34-2.495C2.474,6.568.483,5.583.483,3.792S2.917.151,6.88.151a16.979,16.979,0,0,1,3.9.5,18.784,18.784,0,0,0,.523,2.656Z" transform="translate(0 0.03)" fill="#4b4b4b"/>
        <path id="パス_3852" data-name="パス 3852" d="M26.78,3.641A3.581,3.581,0,0,0,25.533,1.73c-.463-.342-1.187-.443-2.816-.443H21.429v8.771c0,1.569.282,1.69,2.736,1.811v.664H15.031v-.664c2.354-.121,2.635-.241,2.635-1.811V1.288h-.946c-2.293,0-2.8.2-3.219.5a3.883,3.883,0,0,0-1.187,1.871H11.309c.121-1.368.282-2.716.342-3.661h.664a2.012,2.012,0,0,0,1.609.463H25.17A2.414,2.414,0,0,0,26.8,0h.664c0,.785.181,2.414.322,3.6Z" transform="translate(2.27 0)" fill="#4b4b4b"/>
        <path id="パス_3853" data-name="パス 3853" d="M34.749,12.5v-.664c1.65-.161,1.79-.382,1.348-1.207L34.97,8.62H29.6c-.3.583-.684,1.247-1.006,2.012s-.342,1.147,1.71,1.308V12.6H24.026v-.764c1.851-.141,2.193-.342,3.118-2.012L32.9.392,34.326.151c1.79,3.259,3.541,6.478,5.351,9.677.946,1.63,1.308,1.871,3.078,2.012V12.5ZM32.375,3.551h0c-.785,1.348-1.489,2.7-2.213,4.024h4.366Z" transform="translate(4.822 0.03)" fill="#4b4b4b"/>
        <path id="パス_3854" data-name="パス 3854" d="M58.183,12.622h-.8c-3.521-.121-4.607-.624-5.733-1.79-.724-.845-1.509-1.79-2.293-2.756A2.112,2.112,0,0,0,47.5,7.251h-.543V9.987c0,1.529.282,1.71,2.394,1.831v.664H40.882V11.8c2.112-.121,2.414-.3,2.414-1.831V2.845c0-1.489-.262-1.67-2.293-1.811V.391h7.866a11.809,11.809,0,0,1,4.989.7,2.756,2.756,0,0,1,1.911,2.474c0,1.63-1.63,2.495-3.5,3.018a31.707,31.707,0,0,0,2.253,2.635,19.956,19.956,0,0,0,2.153,2.012,4.506,4.506,0,0,0,1.71.764ZM47.661,6.587a5.452,5.452,0,0,0,2.776-.624,2.314,2.314,0,0,0,1.348-2.193c0-1.831-1.65-2.635-3.3-2.635a2.837,2.837,0,0,0-1.267.181c-.2.121-.262.3-.262.684V6.527Z" transform="translate(8.205 0.072)" fill="#4b4b4b"/>
        <path id="パス_3855" data-name="パス 3855" d="M69.168,12.456c-1.207-1.106-3.521-3.279-5.512-5.19-.583-.563-.946-.684-1.368-.644v3.36c0,1.569.241,1.71,2.394,1.831v.664H56.353v-.684c2.012-.121,2.293-.262,2.293-1.831V2.88c0-1.589-.241-1.71-2.334-1.851V.385h8.228v.644c-2.012.141-2.213.262-2.213,1.851V5.958a5.774,5.774,0,0,0,2.132-.966,31.162,31.162,0,0,0,3.9-2.937c.684-.583.624-.845-.684-.966l-.523-.06V.385h7.283v.644a8.469,8.469,0,0,0-4.426,1.308c-1.67,1.006-2.837,1.891-4.024,2.756,1.79,1.77,3.863,3.641,5.894,5.331A4.909,4.909,0,0,0,74.9,11.792v.664Z" transform="translate(11.302 0.077)" fill="#4b4b4b"/>
        <path id="パス_3856" data-name="パス 3856" d="M85.625.389a11.869,11.869,0,0,1,4.909.724A3.038,3.038,0,0,1,92.545,3.85c0,2.474-2.776,3.621-5.713,3.863H85.665l-1.911-.282V9.985c0,1.569.241,1.71,2.656,1.831v.644H77.759v-.644c2.112-.121,2.354-.262,2.354-1.831v-7.1c0-1.589-.241-1.69-2.193-1.851V.389ZM83.814,6.706a7.021,7.021,0,0,0,1.509.181A3,3,0,0,0,88.6,3.95c0-2.012-1.79-2.776-3.5-2.776a2.535,2.535,0,0,0-1.046.181.664.664,0,0,0-.241.583Z" transform="translate(15.607 0.073)" fill="#4b4b4b"/>
        <path id="パス_3857" data-name="パス 3857" d="M105.979,9.318c-.221.764-.8,2.635-1.026,3.138H91.313v-.664c2.434-.121,2.716-.262,2.716-1.811V2.88c0-1.609-.282-1.71-2.414-1.851V.385h8.57v.644c-2.153.141-2.414.241-2.414,1.851V10.1c0,.885.121,1.207.7,1.388a9.878,9.878,0,0,0,2.012.161,4.868,4.868,0,0,0,2.857-.624,6.4,6.4,0,0,0,1.569-1.911Z" transform="translate(18.327 0.077)" fill="#4b4b4b"/>
        <path id="パス_3858" data-name="パス 3858" d="M115.289,12.5v-.664c1.65-.161,1.79-.382,1.348-1.207s-.7-1.328-1.127-2.012h-5.371a20.78,20.78,0,0,0-1.006,2.012c-.322.764-.342,1.147,1.71,1.308V12.6h-6.277v-.764c1.851-.141,2.193-.342,3.118-2.012L113.438.392l1.428-.241c1.79,3.259,3.521,6.478,5.351,9.677.946,1.63,1.308,1.871,3.078,2.012V12.5Zm-2.374-8.952h0c-.785,1.348-1.469,2.7-2.213,4.024h4.386Z" transform="translate(20.987 0.03)" fill="#4b4b4b"/>
        <path id="パス_3859" data-name="パス 3859" d="M138.18,9.344a16.8,16.8,0,0,1-1.509,2.937,38.646,38.646,0,0,1-5.19.483c-7.464,0-10.562-3.2-10.562-6.156,0-3.8,4.426-6.458,11.1-6.458a33.818,33.818,0,0,1,5.049.5c.241,1.026.443,1.871.644,3.038l-1.046.141A5.15,5.15,0,0,0,131.44.976c-4.023,0-6.3,2.535-6.3,5.271,0,3.4,2.776,5.653,6.578,5.653a6.558,6.558,0,0,0,5.492-2.857Z" transform="translate(24.269 0.03)" fill="#4b4b4b"/>
        <path id="パス_3860" data-name="パス 3860" d="M151.552,9.358a28.407,28.407,0,0,1-.986,3.1H136.283v-.664c2.374-.121,2.656-.241,2.656-1.811V2.86c0-1.63-.282-1.71-2.273-1.831V.385h13.2c0,.342.161,1.63.282,2.776h-1.006a3.541,3.541,0,0,0-1.147-1.589,4.929,4.929,0,0,0-2.8-.362h-1.348c-1.046,0-1.147,0-1.147.644V5.877h1.871c2.354,0,2.716,0,3.1-1.388H148.7V8.151H147.67c-.382-1.348-.724-1.428-3.1-1.428H142.7V9.981c0,.865,0,1.348.664,1.529a11.427,11.427,0,0,0,2.515.181,5.452,5.452,0,0,0,3.118-.6,7.283,7.283,0,0,0,1.569-1.811Z" transform="translate(27.353 0.077)" fill="#4b4b4b"/>
      </g>
    </g>
  </g>
</svg>
