<svg xmlns="http://www.w3.org/2000/svg" xmlns:xlink="http://www.w3.org/1999/xlink" width="121" height="79" viewBox="0 0 121 79">
  <defs>
    <clipPath id="clip-path">
      <rect id="長方形_605" data-name="長方形 605" width="121" height="79" transform="translate(653.175 3691)" fill="#fff" stroke="#707070" stroke-width="1"/>
    </clipPath>
  </defs>
  <g id="マスクグループ_16" data-name="マスクグループ 16" transform="translate(-653.175 -3691)" clip-path="url(#clip-path)">
    <g id="レイヤー_2" data-name="レイヤー 2" transform="translate(673.062 3691)">
      <g id="レイヤー_1" data-name="レイヤー 1">
        <path id="パス_3886" data-name="パス 3886" d="M32.21,12.32h.144a.17.17,0,0,1,.066-.118.459.459,0,0,1,.236,0h.393a3.93,3.93,0,0,0,.576-.092,6.105,6.105,0,0,0,.786-.262,6.55,6.55,0,0,0,.694-.328,2.712,2.712,0,0,0,.655-.5,1.756,1.756,0,0,0,.419-.59,1.31,1.31,0,0,0,0-.838,1.4,1.4,0,0,0-.328-.681,1.218,1.218,0,0,0-.537-.262,1.834,1.834,0,0,0-.655,0,6.774,6.774,0,0,0-.707.144l-.721.21a5.241,5.241,0,0,1-.6.157,1.31,1.31,0,0,1-.485,0,.393.393,0,0,1-.223-.223.314.314,0,0,1,0-.288.852.852,0,0,1,.21-.288,1.756,1.756,0,0,1,.341-.249l.406-.2a2.175,2.175,0,0,1,.511-.1,4.468,4.468,0,0,1,.55,0,2.4,2.4,0,0,1,.459,0,.59.59,0,0,1,.314.131.367.367,0,0,1,.144.17h.1l.275-1.31h-.131a.249.249,0,0,1-.17.118,1.179,1.179,0,0,1-.328,0H34.1L33.4,7a4.35,4.35,0,0,0-.891.262,3.38,3.38,0,0,0-.943.55,2.175,2.175,0,0,0-.55.629,1.31,1.31,0,0,0-.2.642,1.415,1.415,0,0,0,.118.576,1.21,1.21,0,0,0,1.035.76,1.847,1.847,0,0,0,.642,0,6.25,6.25,0,0,0,.616-.314l.655-.223a2.83,2.83,0,0,1,.655-.157,1.31,1.31,0,0,1,.445,0,.341.341,0,0,1,.249.249.419.419,0,0,1,0,.393,1.467,1.467,0,0,1-.314.328,4.3,4.3,0,0,1-.406.262l-.354.157a3.026,3.026,0,0,1-.445.131,3.93,3.93,0,0,1-.511,0h-.472a.734.734,0,0,1-.314-.1.21.21,0,0,1-.092-.118h-.1A7.2,7.2,0,0,0,32.21,12.32Z" transform="translate(-5.719 -1.263)" fill="#4b4b4b"/>
        <path id="パス_3887" data-name="パス 3887" d="M40.762,5.616l.8-.144.747-.118a.432.432,0,0,1,.183,0,.21.21,0,0,1,.1.17h.17l-.17-1.31h-.183a.2.2,0,0,1,0,.2.314.314,0,0,1-.17.066,34.98,34.98,0,0,0-4.376.891.432.432,0,0,1-.183,0s-.1,0-.131-.157h-.183l.367,1.31h.17a.17.17,0,0,1,0-.183.275.275,0,0,1,.157-.092c.524-.144,1.048-.275,1.572-.38l.8,3.655a.144.144,0,0,1,0,.131.183.183,0,0,1-.1,0v.17l1.31-.275V9.39c-.118,0-.2,0-.223-.131Z" transform="translate(-6.934 -0.782)" fill="#4b4b4b"/>
        <path id="パス_3888" data-name="パス 3888" d="M45.3,9.267l1.232-.118v-.17c-.1,0-.17,0-.17-.092a.773.773,0,0,1,.039-.262l.275-.694h2.2l.341.707a.72.72,0,0,1,.066.236.131.131,0,0,1,0,.092H49.19v.17h1.52v-.17a.655.655,0,0,1-.157-.1.249.249,0,0,1-.118-.157,40.168,40.168,0,0,0-1.847-3.93l-.131-.079a.262.262,0,0,1,0-.144.144.144,0,0,1,.079-.144h.131V4.118h-1.7v.17h.157a.183.183,0,0,1,.079.131.564.564,0,0,1,0,.183l-.118.236c-.537,1.31-1.035,2.5-1.454,3.773a2.62,2.62,0,0,1-.092.249.262.262,0,0,1-.17.144ZM46.923,7.21c.262-.616.524-1.205.812-1.795.288.59.563,1.166.825,1.742C48.024,7.171,47.474,7.158,46.923,7.21Z" transform="translate(-8.406 -0.764)" fill="#4b4b4b"/>
        <path id="パス_3889" data-name="パス 3889" d="M53.5,4.311v.17c.2,0,.275.092.275.2l-.432,4.258c0,.1-.1.157-.275.144v.17a9.658,9.658,0,0,1,1.494.17V9.25a.485.485,0,0,1-.2,0,.144.144,0,0,1,0-.144l.183-1.756a6.467,6.467,0,0,1,1.31.2c.249.55.485,1.074.707,1.625l.065.183a.406.406,0,0,1,0,.118.092.092,0,0,1-.079,0h-.131v.17c.537.118,1.061.223,1.585.367V9.853l-.144-.066a.262.262,0,0,1-.1-.144c-.236-.681-.5-1.31-.773-2a2.031,2.031,0,0,0,1.048-.223,1.31,1.31,0,0,0,.59-.825,1.454,1.454,0,0,0,0-.707,1.192,1.192,0,0,0-.3-.445,1.847,1.847,0,0,0-.6-.393,3.511,3.511,0,0,0-.838-.249C55.78,4.573,54.641,4.429,53.5,4.311Zm1.14,2.345.183-1.31c.563.079,1.127.157,1.69.262a2.45,2.45,0,0,1,.563.157,1.179,1.179,0,0,1,.341.223.577.577,0,0,1,.144.262.969.969,0,0,1,0,.275.8.8,0,0,1-.118.262.459.459,0,0,1-.236.17,1.022,1.022,0,0,1-.38.079,3.459,3.459,0,0,1-.576,0,6.68,6.68,0,0,0-1.611-.38Z" transform="translate(-9.848 -0.8)" fill="#4b4b4b"/>
        <path id="パス_3890" data-name="パス 3890" d="M62.211,9.5l.93-.314c.288.76.55,1.52.773,2.293a.5.5,0,0,1,0,.236h-.131l-.066.157c.485.21.983.432,1.467.668v-.157a1.088,1.088,0,0,1-.2-.3,1.99,1.99,0,0,1-.026-.354c-.249-.943-.537-1.9-.891-2.856.891-.275,1.808-.5,2.738-.694a.563.563,0,0,1,.393,0l.066-.157c-.629-.3-1.31-.59-1.926-.852V7.32a.131.131,0,0,1,.079,0,.1.1,0,0,1,0,.1A.223.223,0,0,1,65.3,7.5l-.341.157c-.825.223-1.625.472-2.411.747l.576-1.69a.144.144,0,0,1,.092-.1h.144l.065-.157c-.5-.157-1-.341-1.494-.472v.157a.157.157,0,0,1,.157.223l-1.245,4.088c0,.1-.1.144-.236.1v.17c.432.118.852.275,1.31.406v-.157a.17.17,0,0,1-.092-.079.183.183,0,0,1,0-.144Z" transform="translate(-11.248 -1.11)" fill="#4b4b4b"/>
        <path id="パス_3891" data-name="パス 3891" d="M32.34,87.964c-.079-.367-.144-.747-.2-1.127H32a.157.157,0,0,1,0,.1q0,.118-.275.157a2.083,2.083,0,0,1-.511,0,2.922,2.922,0,0,1-.629-.118,2.5,2.5,0,0,1-.6-.223,2.62,2.62,0,0,1-.642-.459,2.162,2.162,0,0,1-.393-.6,1.389,1.389,0,0,1-.118-.655,1.31,1.31,0,0,1,.236-.681,1.559,1.559,0,0,1,.485-.524,1.73,1.73,0,0,1,.6-.249,1.913,1.913,0,0,1,.668,0,2.031,2.031,0,0,1,.668.236,2.109,2.109,0,0,1,.406.262,3.053,3.053,0,0,1,.367.341,1.913,1.913,0,0,1,.275.328.393.393,0,0,1,.079.262h0l.066.092c.354-.236.707-.472,1.061-.734l-.079-.157H33.6a.079.079,0,0,1-.092,0,.786.786,0,0,1-.131-.144,2.62,2.62,0,0,0-.328-.314l-.485-.406a4.507,4.507,0,0,0-.668-.406,3.931,3.931,0,0,0-.969-.354,2.843,2.843,0,0,0-1,0,2.4,2.4,0,0,0-.93.328,2.62,2.62,0,0,0-.773.773,2.2,2.2,0,0,0-.367,1.035,2.083,2.083,0,0,0,.17,1.009,2.7,2.7,0,0,0,.629.891,4.428,4.428,0,0,0,.983.694,3.525,3.525,0,0,0,.852.314,3.8,3.8,0,0,0,.8.118h.943Z" transform="translate(-5.169 -15.318)" fill="#4b4b4b"/>
        <path id="パス_3892" data-name="パス 3892" d="M38.081,85.949a3.092,3.092,0,0,0-.983.157,2.5,2.5,0,0,0-.891.5,2.1,2.1,0,0,0-.629.93,1.978,1.978,0,0,0-.131,1.114,2.345,2.345,0,0,0,.445.969,2.974,2.974,0,0,0,.825.734,3.629,3.629,0,0,0,1.022.432,3.432,3.432,0,0,0,1.1.144,3.026,3.026,0,0,0,1.087-.2,2.424,2.424,0,0,0,.865-.616,1.952,1.952,0,0,0,.472-1.022,2.136,2.136,0,0,0-.065-1.127,2.371,2.371,0,0,0-.524-.878,3,3,0,0,0-.76-.642,5.084,5.084,0,0,0-.878-.38A4.442,4.442,0,0,0,38.081,85.949Zm1.31,1.205a2.4,2.4,0,0,1,.511.445,1.847,1.847,0,0,1,.328.59,1.467,1.467,0,0,1,0,.721,1.31,1.31,0,0,1-.314.629,1.677,1.677,0,0,1-.563.393,2.149,2.149,0,0,1-.721.157,2.62,2.62,0,0,1-1.4-.38,1.952,1.952,0,0,1-.524-.511,1.4,1.4,0,0,1-.288-.616,1.192,1.192,0,0,1,0-.707,1.31,1.31,0,0,1,.38-.6,1.716,1.716,0,0,1,.576-.341,1.887,1.887,0,0,1,.668-.118,2.228,2.228,0,0,1,.668,0,2.267,2.267,0,0,1,.707.341Z" transform="translate(-6.573 -15.949)" fill="#4b4b4b"/>
        <path id="パス_3893" data-name="パス 3893" d="M48.727,88.335V87.13H48.57a.17.17,0,0,1-.066.157.406.406,0,0,1-.249.065,32.387,32.387,0,0,1-3.93-.262v.157c.144,0,.21.079.2.2L44,91.558c0,.1-.1.157-.275.131v.17c.55.066,1.1.144,1.664.17v-.144a.7.7,0,0,1-.21,0s-.079-.079-.066-.131l.157-1.769c.6,0,1.205.1,1.808.1a.31.31,0,0,1,.38.341h.17v-1.31h-.21c0,.079,0,.144-.1.157a.8.8,0,0,1-.288,0c-.59,0-1.166-.079-1.756-.118l.1-1.127c.472,0,.93.092,1.4.092h1.4a.642.642,0,0,1,.262,0,.223.223,0,0,1,.079.157Z" transform="translate(-8.113 -16.161)" fill="#4b4b4b"/>
        <path id="パス_3894" data-name="パス 3894" d="M55.266,87.659,55.03,86.48h-.144a.2.2,0,0,1,0,.17.5.5,0,0,1-.236.1,27.841,27.841,0,0,1-3.93.432v.17c.157,0,.223,0,.236.157l.223,4.153c0,.1-.079.157-.249.17v.2c.563,0,1.114-.079,1.677-.118v-.157a.576.576,0,0,1-.223,0,.17.17,0,0,1-.092-.118l-.144-1.769a16.7,16.7,0,0,0,1.795-.2.511.511,0,0,1,.288,0,.288.288,0,0,1,.144.249h.17l-.21-1.31h-.157a.157.157,0,0,1-.079.183,1.061,1.061,0,0,1-.275,0c-.576.079-1.166.17-1.756.2l-.092-1.127a10.2,10.2,0,0,0,1.4-.157c.472-.066.917-.131,1.389-.21a.393.393,0,0,1,.249,0,.157.157,0,0,1,.1.131Z" transform="translate(-9.412 -16.048)" fill="#4b4b4b"/>
        <path id="パス_3895" data-name="パス 3895" d="M61.712,85.772l-.445-1.127-.144.066a.2.2,0,0,1,0,.17.432.432,0,0,1-.223.144,29.177,29.177,0,0,1-3.681,1.127v.157a.183.183,0,0,1,.118,0,.21.21,0,0,1,0,.1l.969,4.048a.118.118,0,0,1,0,.131h-.1v.157a33.917,33.917,0,0,0,4.389-1.31.59.59,0,0,1,.223,0,.15.15,0,0,1,.144.1l.17-.066-.472-1.166-.157.066a.21.21,0,0,1,0,.2.393.393,0,0,1-.2.144c-.511.183-1.009.367-1.52.524l-.76.249-.773.223-.157-1.232c.59-.157,1.166-.341,1.742-.524a.6.6,0,0,1,.288,0c.079,0,.144.092.183.223h.157l-.472-1.31h-.157a.275.275,0,0,1,0,.275.55.55,0,0,1-.262.144c-.55.183-1.114.367-1.677.511l-.3-1.1.668-.183.668-.21c.459-.144.891-.314,1.31-.472a.485.485,0,0,1,.249,0,.17.17,0,0,1,.131.118Z" transform="translate(-10.618 -15.707)" fill="#4b4b4b"/>
        <path id="パス_3896" data-name="パス 3896" d="M68.174,82.534l-.655-1.009-.131.079a.2.2,0,0,1,0,.17.314.314,0,0,1-.183.183A27.289,27.289,0,0,1,63.8,83.765l.079.144h.1a.131.131,0,0,1,.092.092L65.8,87.774a.144.144,0,0,1,0,.144.17.17,0,0,1-.092.079l.066.157a34.286,34.286,0,0,0,4.048-2.162l.21-.1a.224.224,0,0,1,.17.079l.144-.092-.681-1.061-.144.092a.21.21,0,0,1,0,.2.563.563,0,0,1-.17.183c-.9.563-1.847,1.087-2.8,1.559l-.563-1.127c.55-.275,1.074-.55,1.6-.852a.6.6,0,0,1,.288-.092c.079,0,.144.066.223.183l.144-.092-.734-1.218-.131.079q.1.183,0,.275a.6.6,0,0,1-.21.183c-.511.288-1.035.563-1.559.825L65.1,83.988a25.023,25.023,0,0,0,2.463-1.31.655.655,0,0,1,.249-.092.157.157,0,0,1,.131.092Z" transform="translate(-11.839 -15.128)" fill="#4b4b4b"/>
        <path id="パス_3897" data-name="パス 3897" d="M43.246,17.027l-1.769,4.756a2.62,2.62,0,0,0-.183.956V33.391L20.778,49.531a1.546,1.546,0,0,0-.59,1.218v2.057a1.546,1.546,0,0,0,2.1,1.441L41.32,47v7.546L34.77,61.1a1.546,1.546,0,0,0-.459,1.087v1.1a1.546,1.546,0,0,0,2.122,1.428l7.926-3.157,7.861,3.184a1.533,1.533,0,0,0,2.149-1.454V62.174a1.533,1.533,0,0,0-.445-1.087l-6.551-6.551V46.977l19,7.245a1.533,1.533,0,0,0,2.083-1.415V50.75a1.507,1.507,0,0,0-.59-1.218L47.334,33.4V22.739a3,3,0,0,0-.17-.956l-1.782-4.756a1.14,1.14,0,0,0-2.135,0Z" transform="translate(-3.746 -3.022)" fill="#4b4b4b"/>
        <path id="パス_3898" data-name="パス 3898" d="M43,71.751A30.133,30.133,0,1,1,73.134,41.618,30.133,30.133,0,0,1,43,71.751Zm0-58.339a28.233,28.233,0,1,0,28.181,28.22A28.233,28.233,0,0,0,43,13.411Z" transform="translate(-2.388 -2.131)" fill="#4b4b4b"/>
        <path id="パス_3899" data-name="パス 3899" d="M40.614,79C18.2,79,0,61.287,0,39.5S18.2,0,40.614,0,81.227,17.726,81.227,39.5,62.886,79,40.614,79Zm0-77.035c-21.3,0-38.6,16.835-38.6,37.535s17.294,37.535,38.6,37.535,38.5-16.769,38.5-37.535S61.824,1.965,40.614,1.965Z" fill="#4b4b4b"/>
        <path id="パス_3900" data-name="パス 3900" d="M90.36,59.57,89.875,60.8c-.157.419-.354.812-.524,1.218.616.6,1.232,1.218,1.821,1.86-.865-.118-1.716-.236-2.555-.38-.21.393-.406.786-.642,1.153s-.432.76-.668,1.127c-.079-.878-.157-1.716-.288-2.62-.838-.157-1.664-.328-2.5-.524.747-.3,1.494-.655,2.24-1.022-.183-.825-.328-1.611-.563-2.384.668.524,1.31,1.074,1.965,1.625A11.8,11.8,0,0,0,90.36,59.57Z" transform="translate(-15.684 -10.991)" fill="#4b4b4b"/>
        <path id="パス_3901" data-name="パス 3901" d="M82.434,74.869c-.6.655-1.31,1.31-1.887,1.86.328.786.642,1.585.93,2.411-.734-.432-1.467-.878-2.188-1.31-.707.537-1.389,1.074-2.109,1.559.288-.812.524-1.638.747-2.45-.707-.485-1.415-.969-2.1-1.48h2.463c.1-.406.17-.8.236-1.205s.144-.8.2-1.205c.406.747.786,1.494,1.153,2.266l1.31-.144Z" transform="translate(-14.072 -13.555)" fill="#4b4b4b"/>
        <path id="パス_3902" data-name="パス 3902" d="M20.337,79.709c-.616-.629-1.192-1.31-1.756-1.978-.812.288-1.625.563-2.463.812.472-.721.956-1.428,1.441-2.122-.5-.721-1-1.441-1.441-2.188.406.157.786.328,1.192.472l1.218.406c.511-.681,1.035-1.31,1.572-2.031a7.762,7.762,0,0,1-.066,1.232v1.31c.786.223,1.611.38,2.384.55-.76.354-1.533.707-2.332,1.035a6.491,6.491,0,0,0,.092,1.31C20.271,78.975,20.285,79.277,20.337,79.709Z" transform="translate(-2.991 -13.561)" fill="#4b4b4b"/>
        <path id="パス_3903" data-name="パス 3903" d="M9.9,65.8c-.288-.838-.6-1.664-.825-2.515a22.815,22.815,0,0,1-2.62-.223c.721-.472,1.454-.943,2.188-1.389-.21-.852-.354-1.716-.5-2.62.642.6,1.218,1.205,1.887,1.742.734-.419,1.48-.838,2.24-1.232-.354.721-.721,1.467-1.035,2.24.655.511,1.31,1,1.978,1.441H10.656C10.368,64.136,10.132,64.961,9.9,65.8Z" transform="translate(-1.197 -10.958)" fill="#4b4b4b"/>
        <path id="パス_3904" data-name="パス 3904" d="M5.963,48.812l.092-1.31c0-.445.1-.878.144-1.31-.773-.419-1.546-.812-2.306-1.245.852-.144,1.7-.288,2.62-.406.144-.865.367-1.716.563-2.62.341.812.642,1.6,1.035,2.358.852-.1,1.7-.183,2.542-.262-.6.524-1.232,1.074-1.821,1.664a15.966,15.966,0,0,0,1.31,2.1c-.786-.288-1.585-.616-2.358-.969A19.4,19.4,0,0,0,5.963,48.812Z" transform="translate(-0.722 -7.779)" fill="#4b4b4b"/>
        <path id="パス_3905" data-name="パス 3905" d="M9.089,31.787,9.7,30.608c.2-.393.432-.773.642-1.153-.563-.668-1.1-1.31-1.611-2.031.838.2,1.677.406,2.5.629a13,13,0,0,1,.747-1.074c.262-.354.5-.721.786-1.048v2.555c.812.249,1.638.511,2.45.786-.786.223-1.546.5-2.345.786.1.838.17,1.625.328,2.424-.616-.59-1.218-1.192-1.795-1.821C10.621,31.014,9.888,31.381,9.089,31.787Z" transform="translate(-1.621 -4.812)" fill="#4b4b4b"/>
        <path id="パス_3906" data-name="パス 3906" d="M18.531,17.408c.668-.59,1.376-1.114,2.07-1.651-.249-.812-.472-1.651-.681-2.5.694.511,1.31,1.022,2.044,1.559l1.127-.694c.367-.236.76-.432,1.14-.642-.183.393-.354.773-.524,1.166l-.472,1.192c.668.55,1.31,1.114,1.952,1.677l-1.232-.131H22.724c-.275.773-.472,1.572-.668,2.345-.328-.773-.642-1.572-.93-2.371A17.19,17.19,0,0,0,18.531,17.408Z" transform="translate(-3.439 -2.46)" fill="#4b4b4b"/>
        <path id="パス_3907" data-name="パス 3907" d="M74.457,13.014c.681.576,1.31,1.192,1.952,1.795.773-.367,1.559-.721,2.371-1.048-.406.76-.812,1.507-1.232,2.253.563.668,1.14,1.31,1.664,2.031-.825-.262-1.677-.445-2.489-.629-.445.734-.9,1.454-1.31,2.175a22.489,22.489,0,0,0-.183-2.463c-.406-.079-.812-.131-1.218-.183l-1.205-.131c.721-.445,1.454-.852,2.2-1.31a8.223,8.223,0,0,0-.21-1.31C74.719,13.734,74.562,13.446,74.457,13.014Z" transform="translate(-13.51 -2.415)" fill="#4b4b4b"/>
        <path id="パス_3908" data-name="パス 3908" d="M86.17,25.738c.21.393.38.812.563,1.205s.367.812.524,1.218h2.62c-.668.55-1.31,1.074-2.031,1.6.131.419.275.825.393,1.31l.341,1.31a23.228,23.228,0,0,0-2.044-1.546c-.694.5-1.389.983-2.1,1.454.275-.747.576-1.546.786-2.332L84.192,29.3l-1.074-.576c.838-.131,1.69-.223,2.542-.314C85.777,27.467,85.974,26.616,86.17,25.738Z" transform="translate(-15.424 -4.776)" fill="#4b4b4b"/>
        <path id="パス_3909" data-name="パス 3909" d="M91.789,42.194v2.62c.8.314,1.611.642,2.4,1-.825.236-1.664.459-2.489.668a19.852,19.852,0,0,1-.314,2.62,21.093,21.093,0,0,0-1.31-2.227q-1.31.275-2.515.511c.563-.59,1.114-1.192,1.664-1.834-.5-.681-.93-1.31-1.467-1.965.825.21,1.651.459,2.45.721A16.132,16.132,0,0,0,91.789,42.194Z" transform="translate(-16.248 -7.83)" fill="#4b4b4b"/>
      </g>
    </g>
  </g>
</svg>
