<svg xmlns="http://www.w3.org/2000/svg" xmlns:xlink="http://www.w3.org/1999/xlink" width="127" height="83" viewBox="0 0 127 83">
  <defs>
    <clipPath id="clip-path">
      <rect id="長方形_605" data-name="長方形 605" width="127" height="83" transform="translate(474 3546.839)" fill="#fff" stroke="#707070" stroke-width="1"/>
    </clipPath>
  </defs>
  <g id="マスクグループ_13" data-name="マスクグループ 13" transform="translate(-474 -3546.839)" clip-path="url(#clip-path)">
    <g id="レイヤー_2" data-name="レイヤー 2" transform="translate(474 3569.258)">
      <g id="レイヤー_1" data-name="レイヤー 1">
        <path id="パス_3845" data-name="パス 3845" d="M4.462,8.19C3.483,4.6,3.063,1.458,0,1.341V0C1.732.059,3.464.166,5.2.225S8.807.059,10.617,0V1.292c-1.076,0-2.877,0-2.877,2.3,0,1.957,2.211,10.538,2.8,12.9l3.748,14.237,3.5-13c.665-2.75,2.759-11.214,2.759-13.679,0-2.808-1.478-2.75-2.877-2.75V0c1.4.059,2.8.166,4.2.225S24.463.059,25.744,0V1.292C22.506,1.233,21.918,6,20.96,9.785L13.484,38.162H12.378Z" fill="#4b4b4b"/>
        <path id="パス_3846" data-name="パス 3846" d="M33.918,10.656A48.23,48.23,0,0,0,33.547,3.2c-.479-1.908-1.957-1.908-3.17-1.908V0c1.771.059,3.542.166,5.313.225S39.408.059,41.247,0V1.292c-1.174,0-2.691,0-3.17,1.957a48.231,48.231,0,0,0-.323,7.407V26.469a48.289,48.289,0,0,0,.372,7.456c.479,1.908,1.957,1.908,3.17,1.908v1.282c-1.732,0-3.542-.166-5.3-.215s-3.718.166-5.568.215V35.833c1.184,0,2.691,0,3.17-1.908a48.289,48.289,0,0,0,.372-7.456Z" transform="translate(-4.485)" fill="#4b4b4b"/>
        <path id="パス_3847" data-name="パス 3847" d="M66.306,32.516c1.174,2.084,1.732,2.867,3.611,3.317v1.282c-1.106,0-2.211-.166-3.317-.215-.92,0-1.84.166-2.769.215l-1.722-3.249L55.993,22.32c-1.213-2.133-1.076-2.466-3.024-2.466v6.615a53.915,53.915,0,0,0,.333,7.456c.44,1.957,1.957,1.908,3.131,1.908v1.282c-1.693,0-3.425-.166-5.2-.215s-3.679.166-5.529.215V35.833c1.184,0,2.73,0,3.141-1.908a53.916,53.916,0,0,0,.333-7.456V10.656A53.817,53.817,0,0,0,48.82,3.2c-.411-1.957-1.957-1.908-3.141-1.908V0c2.162.059,4.276.166,6.37.225C53.6.166,55.181.059,56.727,0c4.2,0,8.435,1.458,8.435,9.257,0,6.057-3.014,9.139-6.664,9.638ZM52.969,18.337c4.609,0,7.955-.166,7.955-8.3,0-4.893-1.84-8.415-5.157-8.415a8.376,8.376,0,0,0-2.388.059c-.489.333-.411,1.4-.411,2.016Z" transform="translate(-6.745)" fill="#4b4b4b"/>
        <path id="パス_3848" data-name="パス 3848" d="M81.489,23.161v6.615c0,5.323.108,5.607,3.64,6.057v1.282c-1.81,0-3.581-.166-5.382-.215s-3.718.166-5.6.215V35.833c1.184,0,2.691,0,3.17-1.908a48.288,48.288,0,0,0,.372-7.456V10.656A48.229,48.229,0,0,0,77.32,3.2c-.479-1.908-1.957-1.908-3.17-1.908V0c1.771.059,3.5.166,5.294.225C81.4.166,83.24.059,85.158,0V1.292c-3.532.45-3.64.783-3.64,6.047v13.7c1.761-2.8,8.865-14.247,8.865-17.486,0-2.368-1.654-2.084-2.759-2.251V0c1.478.059,2.936.166,4.384.225C93.27.166,94.522.059,95.8,0V1.292c-2.016.059-2.5.783-3.718,3.141l-5.871,11.1,5.127,8.983c.431.832,4.305,8.572,6.028,10.48.744.842,1.292.724,2.172.842v1.282c-1.957,0-3.914-.166-5.871-.215s-3.728.166-5.607.215V35.833c.665,0,3.092.166,3.092-1.683,0-1.174-2.319-5.333-2.936-6.39l-4.462-8.19Z" transform="translate(-10.948)" fill="#4b4b4b"/>
        <path id="パス_3849" data-name="パス 3849" d="M106.509,10.656a48.23,48.23,0,0,0-.372-7.456c-.479-1.908-1.957-1.908-3.161-1.908V0c1.761.059,3.532.166,5.3.225S112,.059,113.838,0V1.292c-1.174,0-2.681,0-3.17,1.957a49.521,49.521,0,0,0-.362,7.456V26.469a49.58,49.58,0,0,0,.362,7.456c.489,1.908,1.957,1.908,3.17,1.908v1.282c-1.722,0-3.532-.166-5.294-.215s-3.728.166-5.568.215V35.833c1.174,0,2.681,0,3.161-1.908a48.288,48.288,0,0,0,.372-7.456Z" transform="translate(-15.205)" fill="#4b4b4b"/>
        <path id="パス_3850" data-name="パス 3850" d="M122.073,4.658c-1.145-2.466-2.035-3.307-4.012-3.366V0c1.174.059,2.309.166,3.493.225.979-.059,1.957-.166,2.936-.225l15.548,28.876h.068V13.3a74.014,74.014,0,0,0-.362-8.64c-.44-3.141-1.438-2.936-3.278-3.366V0c1.37.059,2.691.166,4.051.225S143.062.059,144.432,0V1.292c-1.36.225-2.309.059-2.8,2.466a84.157,84.157,0,0,0-.44,9.785V37.731h-1.106c-.812-1.507-1.615-3.073-2.427-4.648L123.247,6.507h-.068V25.343c0,2.074,0,6.282.548,8.19.626,2.182,1.84,2.074,3.2,2.3v1.282c-1.4,0-2.838-.166-4.227-.215s-2.73.166-4.09.215V35.833c1.429-.225,2.8-.333,3.17-2.75a66.782,66.782,0,0,0,.294-7.74Z" transform="translate(-17.432)" fill="#4b4b4b"/>
      </g>
    </g>
  </g>
</svg>
