<svg xmlns="http://www.w3.org/2000/svg" xmlns:xlink="http://www.w3.org/1999/xlink" width="121" height="79" viewBox="0 0 121 79">
  <defs>
    <clipPath id="clip-path">
      <rect id="長方形_605" data-name="長方形 605" width="121" height="79" transform="translate(832.175 3691)" fill="#fff" stroke="#707070" stroke-width="1"/>
    </clipPath>
  </defs>
  <g id="マスクグループ_17" data-name="マスクグループ 17" transform="translate(-832.175 -3691)" clip-path="url(#clip-path)">
    <g id="レイヤー_2" data-name="レイヤー 2" transform="translate(857.616 3691)">
      <g id="レイヤー_1" data-name="レイヤー 1">
        <path id="パス_3910" data-name="パス 3910" d="M66.344,7.226c-.84,0-10.626,1.293-16.263.194,0,0-6.257-1.125-8.972-3.154L35.008,0A26.075,26.075,0,0,1,29.63,4.046a42.389,42.389,0,0,1-8.041,2.922,87.754,87.754,0,0,1-10.975.659,38.123,38.123,0,0,1-7.679-.4S.207,7.2,0,8.325c0,0,0,10.562.621,20.684s2.909,22.067,9.993,32.642C17.5,74.256,34.762,79,34.762,79S46.035,75.122,50,71.114A49.125,49.125,0,0,0,63.784,53.378c2.676-6.05,4.628-13.419,5.611-25.247l.724-20.684S67.223,7.226,66.344,7.226Zm-.8,14.6c-.207,3.116-1.034,12.928-1.047,13.044-1.1,8.4-2.443,14.22-6.464,21.033C53.623,63.345,45.776,69.046,45.7,69.11a25.945,25.945,0,0,1-11.092,5.171h0s-3.878-1.293-6.257-2.314a45.168,45.168,0,0,1-9.773-6.852c-3.387-3-7.9-12.281-7.937-12.372A67.921,67.921,0,0,1,5.533,35.1C4.5,28.971,4.486,10.975,4.486,10.794h0l5.287.233,6.05.22c1.021,0,5.779-.892,5.83-.9a52.279,52.279,0,0,0,8.325-2.689,26.876,26.876,0,0,0,5.4-3.167h0L39.8,7.459C43.1,9.67,49.732,10.588,49.8,10.6a53.365,53.365,0,0,0,15.629,0H65.5v.065C65.542,10.652,65.749,18.706,65.542,21.822Z" fill="#4b4b4b"/>
        <path id="パス_3911" data-name="パス 3911" d="M33.743,40.238l-7.912-4.421-.375-2.857,1.151-.052L24.4,28.952,35.217,36Z" transform="translate(-4.527 -5.373)" fill="#4b4b4b"/>
        <path id="パス_3912" data-name="パス 3912" d="M50.3,40.349l7.925-4.421.362-2.857-1.151-.052,2.211-3.956-10.82,7.045Z" transform="translate(-9.06 -5.393)" fill="#4b4b4b"/>
        <path id="パス_3913" data-name="パス 3913" d="M47.56,54.648,58.42,51.571l-6.076,6.722-5.611-3.413-2.392.052-.1,22.52,5.029-.052.646-.646L49.862,60.5l3.956,2.159,3-1.706L54.7,72.708l5.016-4.473.97-5.158-3.128,2.172.323-1.293,3.271-3.309.129-1.2-3.633,2.534.271-1.332,3.917-4.008,2.857-16.353L48.44,49.5Z" transform="translate(-8.209 -7.476)" fill="#4b4b4b"/>
        <path id="パス_3914" data-name="パス 3914" d="M33.954,54.629,23.082,51.54l6.076,6.722,5.623-3.4,2.392.039.09,22.52-5.016-.052-.646-.646.052-16.25-3.969,2.159L24.7,60.938l2.12,11.738L21.8,68.2l-.97-5.158,3.128,2.172-.323-1.293-3.271-3.309-.142-1.2,3.646,2.534L23.6,60.615l-3.917-4.008L16.825,40.254l16.25,9.217Z" transform="translate(-3.122 -7.47)" fill="#4b4b4b"/>
        <path id="パス_3915" data-name="パス 3915" d="M32.408,80.712,29.835,78.5l-1.978-10.51,1.6.931L32.408,67.4Z" transform="translate(-5.169 -12.507)" fill="#4b4b4b"/>
        <path id="パス_3916" data-name="パス 3916" d="M52.778,80.68l2.586-2.211,1.978-10.5-1.616.918-2.947-1.525Z" transform="translate(-9.794 -12.501)" fill="#4b4b4b"/>
        <path id="パス_3917" data-name="パス 3917" d="M46.637,41.627l-2.573.013-1.732-4.809L40.5,41.64l-2.417-.013,2.482-6.166,3.646.039Z" transform="translate(-7.066 -6.58)" fill="#4b4b4b"/>
        <path id="パス_3918" data-name="パス 3918" d="M39.248,46.657l-1.125,3.128-.711-4.214Z" transform="translate(-6.943 -8.457)" fill="#4b4b4b"/>
        <path id="パス_3919" data-name="パス 3919" d="M46.651,46.387l1.125,3.128.711-4.214Z" transform="translate(-8.657 -8.406)" fill="#4b4b4b"/>
        <path id="パス_3920" data-name="パス 3920" d="M45.211,55.971l-5.908.039-.827-4.822,3.749-2.521,3.788,2.508Z" transform="translate(-7.14 -9.031)" fill="#4b4b4b"/>
        <path id="パス_3921" data-name="パス 3921" d="M31.455,40.921l.827,4.421-16.2-9.075L14.016,24.619l5.934,7.537H22.16l.827,3.7Z" transform="translate(-2.601 -4.568)" fill="#4b4b4b"/>
        <path id="パス_3922" data-name="パス 3922" d="M50.494,41.032l-.827,4.421,16.185-9.088L67.933,24.73l-5.947,7.524H59.776l-.827,3.7Z" transform="translate(-9.216 -4.589)" fill="#4b4b4b"/>
        <path id="パス_3923" data-name="パス 3923" d="M27.381,15.647l-.271.362a1.978,1.978,0,0,0,.491.427,1.926,1.926,0,0,0,1.189.414,1.008,1.008,0,0,0,.776-.323l.22.246L27.5,18.944a3.439,3.439,0,0,1,1.629.776,3.219,3.219,0,0,1,.672.853l.142.31a2.7,2.7,0,0,1,.194,1.06,3.477,3.477,0,0,1-.181,1.1,2.986,2.986,0,0,1-.853,1.189,5.068,5.068,0,0,1-2.779,1.293,2.663,2.663,0,0,1-.737-.116,1.978,1.978,0,0,1-.349-.142,4.809,4.809,0,0,1-.633-.323,4.641,4.641,0,0,0-1.874-.789,1.383,1.383,0,0,0-.53.116,2.947,2.947,0,0,0-1.008,1.293l-.284-.1a2.508,2.508,0,0,1,0-.259,6.373,6.373,0,0,1,.7-1.293,6.27,6.27,0,0,1,.4-.517,8.48,8.48,0,0,0,.737-.918c.1-.155.155-.284.181-.323a3.3,3.3,0,0,0,.09-.944l-1.06-.323v-.246l1.1-.763V18.323a1.683,1.683,0,0,0-.142-.53l-.556.452-.349.31-.271-.259-.207-.22-.246-.207c-.142-.129-.388-.336-.517-.336a.284.284,0,0,0-.181.09l-.168-.181.465-.491.284-.246c.233-.22.336-.388.452-.388s.116.065.181.1a7.756,7.756,0,0,1,1.293,1.034c.142-.129.284-.22.4-.349a2.766,2.766,0,0,0,.7-1.021h.168a7.756,7.756,0,0,1,.3,2.236v3.361a.569.569,0,0,1-.142.478,1.538,1.538,0,0,1-.4.246l-.414.22a4.266,4.266,0,0,0-.414.233l-.259.181h.452a5.352,5.352,0,0,1,1.694.44V18.569a8.78,8.78,0,0,0-.09-1.525c-.09-.517-.129-.892-.22-1.293l.349-.09q.09.414.155.776a6.824,6.824,0,0,0,.116.879l.362-.362.44-.478.31-.323.621-.659Zm-1.926,2.107v2.5l.491-.388c.246-.207.465-.414.672-.608s.233-.22.362-.336.491-.452.763-.724a2.741,2.741,0,0,1-.53-.155,3.581,3.581,0,0,1-1.293-.84Zm0,5.869.866.388.84.4a1.034,1.034,0,0,0,.44.129.957.957,0,0,0,.517-.207,1.887,1.887,0,0,0,.633-1.487,2.9,2.9,0,0,0-1.189-2.275,2.133,2.133,0,0,0-1.073-.375,1.538,1.538,0,0,0-1.034.5Z" transform="translate(-3.788 -2.875)" fill="#4b4b4b"/>
        <path id="パス_3924" data-name="パス 3924" d="M36.079,19.332c-.116.116-.155.155-.155.207a1.13,1.13,0,0,0,.375.4,4.1,4.1,0,0,0,1.151.556l-.944.944c-.181.181-.388.375-.53.543a.608.608,0,0,0-.129.129l-.388.4-.491.517v.737a1.732,1.732,0,0,0,.09.621.879.879,0,0,0,.659.375c.284,0,.53-.207.982-.7l.478-.517.233.207-2.224,2.456c-.349-.207-.7-.414-1.06-.608l-.9-.44c0-.116.155-.246.207-.375a3.568,3.568,0,0,0,.142-1.37V21.452a6.258,6.258,0,0,0-.116-.84L35.9,19.048Zm-1.1,3.193.323-.336a.3.3,0,0,0,.09-.09c.09-.078.194-.207.271-.284l.465-.478-1.151-.7Z" transform="translate(-6.165 -3.535)" fill="#4b4b4b"/>
        <path id="パス_3925" data-name="パス 3925" d="M43.609,20.34c-.271.116-.4.284-.414.711v3.193a2.5,2.5,0,0,0,0,.31s.09.3.284.3a.543.543,0,0,0,.3-.168l.452-.478.246.194L43,26.235l-.543-.284a1.293,1.293,0,0,1-.7-1.228l-1.293,1.525a5.843,5.843,0,0,0-1.5-.918c0-.116.1-.246.142-.362a4.448,4.448,0,0,0,.065-.582V22.771l1.138-.465a1.551,1.551,0,0,1-.9-.478,1.021,1.021,0,0,1,0-1.293,2.379,2.379,0,0,1,.918-.685l.569-.3a5,5,0,0,0,.724-.5l.517.362a5.688,5.688,0,0,0,1.474.633Zm-1.823,1.1a.918.918,0,0,0-.4-.9,1.525,1.525,0,0,0-.763-.194,1.2,1.2,0,0,0-.7.207.814.814,0,0,0-.349.633.763.763,0,0,0,.22.517.427.427,0,0,0,.181.129,1.293,1.293,0,0,0,.685.168,2.585,2.585,0,0,0,1.125-.246Zm0,.7-.763.233c-.233.09-.427.194-.478.323a2,2,0,0,0-.065.659,4.033,4.033,0,0,0,.078,1.112.5.5,0,0,0,.465.31.608.608,0,0,0,.427-.181,1.021,1.021,0,0,0,.336-.866Z" transform="translate(-7.231 -3.535)" fill="#4b4b4b"/>
        <path id="パス_3926" data-name="パス 3926" d="M47.776,23.87a.717.717,0,0,0,.4.776.892.892,0,0,0,.388.129.517.517,0,0,0,.271-.09,4.874,4.874,0,0,0,.789-.711l.3.246-1.862,2.03c-.3-.194-.608-.375-.9-.543s-.711-.362-1.06-.53A1.8,1.8,0,0,0,46.444,24V20.521a12.449,12.449,0,0,0,1.81-1.474,5.727,5.727,0,0,0,.982.452.783.783,0,0,1,.5.09.129.129,0,0,1,.078.129c0,.142-.1.233-.259.452s-.194.284-.284.414a2.585,2.585,0,0,1-.155.246s-.065.142-.142.142a6.231,6.231,0,0,1-.646-.207l-.556-.207Z" transform="translate(-8.554 -3.535)" fill="#4b4b4b"/>
        <path id="パス_3927" data-name="パス 3927" d="M55.713,24.852l-2.275,1.293-2.469-1.513c0-.116.168-.233.22-.349a3.219,3.219,0,0,0,.155-1.06V20.638a.53.53,0,0,1,0-.155c.078-.155.233-.207.362-.284l.388-.246,1.435-.9.646.259c.517.207,1.021.427,1.538.685Zm-2.986-.763.608.414.284.181c.246.142.349.22.491.22s.116,0,.22-.129V20.689l-.259-.129-.659-.22a1.37,1.37,0,0,0-.478-.155.362.362,0,0,0-.233.129Z" transform="translate(-9.458 -3.535)" fill="#4b4b4b"/>
        <path id="パス_3928" data-name="パス 3928" d="M63.448,20.146c-.582.246-.582.556-.582.814v3.671a.257.257,0,0,0,.271.271.569.569,0,0,0,.233-.065s.362-.31.582-.517l.22.246c-.155.155-.336.31-.478.465l-.181.181c-.142.155-.31.31-.452.478s-.31.349-.452.517a3.879,3.879,0,0,1-.595-.31c-.4-.271-.517-.44-.556-1.125V21.4a1.81,1.81,0,0,0-.1-.543c-.065-.1-.3-.4-.569-.4a.711.711,0,0,0-.259.065,1.293,1.293,0,0,0-.633.646,4.42,4.42,0,0,0,0,.672v2.379c0,.336,0,.633.284.633a.44.44,0,0,0,.259-.129l.155.246-.556.452a8.675,8.675,0,0,0-.814.763,3.206,3.206,0,0,0-1.215-1.008c.5-.465.491-.569.5-1.073V21.026a1.577,1.577,0,0,0,0-.427.284.284,0,0,0-.22-.129c-.142,0-.284.129-.556.336L57.54,20.6c.491-.517,1.021-1.021,1.525-1.525a1.4,1.4,0,0,1,.517.259c.4.271.362.427.362,1.034a1.823,1.823,0,0,0,0,.259l.569-.388a10.885,10.885,0,0,0,1.293-1.189,2.663,2.663,0,0,0,1.215.827.944.944,0,0,0,.388,0Z" transform="translate(-10.677 -3.535)" fill="#4b4b4b"/>
      </g>
    </g>
  </g>
</svg>
