<svg xmlns="http://www.w3.org/2000/svg" xmlns:xlink="http://www.w3.org/1999/xlink" width="71.099" height="40.731" viewBox="0 0 71.099 40.731">
  <defs>
    <clipPath id="clip-path">
      <rect id="長方形_130" data-name="長方形 130" width="71.099" height="40.731" fill="none"/>
    </clipPath>
  </defs>
  <g id="virkin_group" data-name="virkin group" transform="translate(200.164 114.368)">
    <g id="virkin_group-2" data-name="virkin group" transform="translate(-200.164 -114.368)" clip-path="url(#clip-path)">
      <path id="パス_923" data-name="パス 923" d="M10.52,34.109h-.39v-.195a.682.682,0,0,0-.39-.584l-.974-.39L7.5,32.648H6.235l-1.461.195a3.9,3.9,0,0,0-1.266.682,3.311,3.311,0,0,0-.974,1.169,4.383,4.383,0,0,0,0,3.409,3.214,3.214,0,0,0,.974,1.169,3.9,3.9,0,0,0,1.266.682l1.461.195,2.143-.39,1.558-.39V37.615H6.916a.779.779,0,0,0-.195.487h-.39V35.667h.39a.584.584,0,0,0,.195.39H12.37v.39h-.487a.39.39,0,0,0-.1.39v2.24a.292.292,0,0,0,.1.292h.292v.292l-1.364.779-1.461.487-1.558.584H6.235a8.765,8.765,0,0,1-2.532-.39A5.552,5.552,0,0,1,1.754,40.05,4.772,4.772,0,0,1,.488,38.394a5.941,5.941,0,0,1,0-4.48,4.87,4.87,0,0,1,1.266-1.753A5.649,5.649,0,0,1,3.7,31.09a8.279,8.279,0,0,1,2.532-.39H7.988l1.461.292,1.071.292h1.169Z" transform="translate(-0.001 -0.8)" fill="#080808"/>
      <path id="パス_924" data-name="パス 924" d="M22.518,30.8l1.753.195,1.364.584a2.532,2.532,0,0,1,.877.974,3.214,3.214,0,0,1,.292,1.461,2.63,2.63,0,0,1-.779,2.045,4.188,4.188,0,0,1-2.143.974l2.63,3.8.292.195h.39v.39h-3.7v-.39h.292v-.39l-.195-.39-2.24-3.117H18.427v3.6a.292.292,0,0,0,.1.292h.487v.39H15.7v-.39q.584,0,.584-.39V31.579c0-.195-.195-.39-.584-.39V30.8Zm-.487,4.772H23.2l.779-.292.39-.487a1.558,1.558,0,0,0,0-1.169l-.39-.487-.779-.292H18.524v3.019Z" transform="translate(-0.409 -0.802)" fill="#080808"/>
      <path id="パス_925" data-name="パス 925" d="M36.73,30.7a7.986,7.986,0,0,1,2.24.292,6.915,6.915,0,0,1,2.045.974,5.454,5.454,0,0,1,1.656,1.753,5.162,5.162,0,0,1,0,4.87,5.454,5.454,0,0,1-1.558,1.656,6.428,6.428,0,0,1-2.045.974,8.473,8.473,0,0,1-4.48,0,6.428,6.428,0,0,1-2.045-.974,5.454,5.454,0,0,1-1.558-1.656,5.162,5.162,0,0,1,0-4.87,5.454,5.454,0,0,1,1.558-1.656,6.915,6.915,0,0,1,2.045-.974,7.987,7.987,0,0,1,2.24-.292m0,1.851-1.558.195-1.364.682a3.6,3.6,0,0,0-.974,1.169,3.214,3.214,0,0,0,0,3.019,3.6,3.6,0,0,0,.974,1.071l1.364.682,1.558.195,1.558-.195,1.364-.682a3.6,3.6,0,0,0,.974-1.169,3.214,3.214,0,0,0,0-3.019,3.6,3.6,0,0,0-.974-1.169l-1.364-.682-1.558-.195" transform="translate(-0.791 -0.8)" fill="#080808"/>
      <path id="パス_926" data-name="パス 926" d="M49.611,31.19q-.487,0-.487.39v6.038a1.851,1.851,0,0,0,.779,1.753,5.854,5.854,0,0,0,4.675,0,1.85,1.85,0,0,0,.779-1.753V31.579c0-.195-.195-.39-.584-.39V30.8h3.214v.39q-.487,0-.487.39V37.52a4.869,4.869,0,0,1-.39,1.948,2.825,2.825,0,0,1-.779,1.266,4.188,4.188,0,0,1-1.656.584l-2.337.195L50,41.319a4.188,4.188,0,0,1-1.656-.584,2.824,2.824,0,0,1-1.071-1.266,4.967,4.967,0,0,1-.39-1.948V31.579c0-.195-.195-.39-.584-.39V30.8h3.311Z" transform="translate(-1.206 -0.802)" fill="#080808"/>
      <path id="パス_927" data-name="パス 927" d="M61.5,41.513v-.39c.487,0,.779-.1.779-.39V31.579c0-.195-.292-.39-.779-.39V30.8h7.11a5.552,5.552,0,0,1,3.019.682A2.727,2.727,0,0,1,72.7,34.014a2.727,2.727,0,0,1-1.071,2.435,5.552,5.552,0,0,1-3.019.682H64.519v3.6c0,.195.195.39.682.39v.39Zm7.3-6.233a2.337,2.337,0,0,0,1.169-.292,1.364,1.364,0,0,0,0-2.045A2.337,2.337,0,0,0,68.8,32.65H64.519v2.63Z" transform="translate(-1.602 -0.802)" fill="#080808"/>
      <path id="パス_928" data-name="パス 928" d="M22.428,10.421q0,.39.487.39v.39H19.8v-.39h.292a.292.292,0,0,0,.1-.292V2.337h-3.7a.39.39,0,0,0-.195.39H16V0h.39a.39.39,0,0,0,.195.39h9.642A.39.39,0,0,0,26.421,0h.39V2.824h-.39a.39.39,0,0,0-.195-.39h-3.8Z" transform="translate(-0.417)" fill="#080808"/>
      <path id="パス_929" data-name="パス 929" d="M38.855,1.182a.446.446,0,0,0-.487-.39V.5h3.117V.89h-.292a.292.292,0,0,0-.1.292v9.155a.292.292,0,0,0,.1.292h.292v.39H38.466v-.39q.487,0,.487-.39v-3.6H32.427v3.8a.292.292,0,0,0,.1.292h.292v.39H29.7v-.39a.344.344,0,0,0,.39-.39V1.182a.357.357,0,0,0-.39-.39V.5h3.019V.89h-.292a.292.292,0,0,0-.1.292V4.688h6.525Z" transform="translate(-0.774 -0.013)" fill="#080808"/>
      <path id="パス_930" data-name="パス 930" d="M55.534,2.632a.39.39,0,0,0-.195-.292H48.23V4.775h4.578c.195-.1.195-.292.195-.584h.39V7.21H53a.823.823,0,0,0-.195-.584H48.23v2.63h7.207a.487.487,0,0,0,.195-.39h.39v2.727h-.39a.506.506,0,0,0-.195-.39H45.6v-.39h.292a.292.292,0,0,0,.1-.292V1.171a.292.292,0,0,0-.1-.292H45.6V.49h9.74A.39.39,0,0,0,55.534.1h.39V2.632Z" transform="translate(-1.188 -0.003)" fill="#080808"/>
      <path id="パス_931" data-name="パス 931" d="M13.167,15.99a.682.682,0,0,0-.584.292l-.292.487L8.784,24.658l-.292.682v.487h.1v.39H5.472v-.39a.292.292,0,0,0,.195-.292l-.195-.39-.39-.779-3.6-7.792-.292-.292L.7,15.99V15.6H4.3v.39H4.011a.292.292,0,0,0-.1.292,1.364,1.364,0,0,0,.195.584l.39.877,2.532,5.552L9.563,17.84l.487-.974a1.558,1.558,0,0,0,.195-.584q0-.292-.584-.292V15.6h3.506Z" transform="translate(-0.018 -0.406)" fill="#080808"/>
      <path id="パス_932" data-name="パス 932" d="M15.7,25.924c.39,0,.487-.1.487-.39V16.379a.446.446,0,0,0-.487-.39V15.6h3.311v.39c-.39,0-.487.1-.487.39v9.155a.446.446,0,0,0,.487.39v.39H15.7Z" transform="translate(-0.409 -0.406)" fill="#080808"/>
      <path id="パス_933" data-name="パス 933" d="M29.415,15.7l1.753.195a3.9,3.9,0,0,1,1.364.584,2.532,2.532,0,0,1,.877.974,3.214,3.214,0,0,1,.292,1.461,2.63,2.63,0,0,1-.779,2.045,4.188,4.188,0,0,1-2.143.877l2.63,3.8.292.195h.39v.39h-3.7v-.39h.292v-.39l-.195-.39-2.24-3.117H25.324v3.6a.292.292,0,0,0,.1.292h.487v.39H22.5v-.39q.584,0,.584-.39V16.379q0-.39-.584-.39V15.6Zm-.487,4.772H30.1l.779-.292.39-.487a1.558,1.558,0,0,0,0-1.169l-.39-.487-.779-.292H25.422v3.019Z" transform="translate(-0.586 -0.406)" fill="#080808"/>
      <path id="パス_934" data-name="パス 934" d="M40.027,25.534a.292.292,0,0,0,.1.292h.292v.39H37.3v-.39q.487,0,.487-.39V16.379q0-.39-.487-.39V15.6h3.117v.39h-.292a.292.292,0,0,0-.1.292v3.8l4.188-3.117.487-.39.195-.292v-.195H44.7V15.7H48.7v.292a1.169,1.169,0,0,0-.682.292l-4.578,3.7,4.188,4.87.584.584.682.39v.39h-3.7v-.39h.292l-.292-.487L41.78,21.346,40.124,22.71Z" transform="translate(-0.972 -0.406)" fill="#080808"/>
      <path id="パス_935" data-name="パス 935" d="M51.3,25.924c.39,0,.487-.1.487-.39V16.379a.446.446,0,0,0-.487-.39V15.6h3.311v.39c-.39,0-.487.1-.487.39v9.155q0,.39.487.39v.39H51.3Z" transform="translate(-1.336 -0.406)" fill="#080808"/>
      <path id="パス_936" data-name="パス 936" d="M58.3,25.924a.344.344,0,0,0,.39-.39V16.379a.357.357,0,0,0-.39-.39V15.6h3.409v.39a.209.209,0,0,0-.195.195c0,.1.1.292.39.584l5.844,6.039V16.379a.446.446,0,0,0-.487-.39V15.6H70.28v.39c-.292,0-.39.1-.39.39v9.155a.344.344,0,0,0,.39.39v.39H67.066v-.39c.195,0,.292-.1.292-.195l-.292-.487L60.93,18.814v6.72a.446.446,0,0,0,.487.39v.39H58.3Z" transform="translate(-1.519 -0.406)" fill="#080808"/>
    </g>
  </g>
</svg>
