<svg xmlns="http://www.w3.org/2000/svg" xmlns:xlink="http://www.w3.org/1999/xlink" width="76.792" height="43.992" viewBox="0 0 76.792 43.992">
  <defs>
    <clipPath id="clip-path">
      <rect id="長方形_130" data-name="長方形 130" width="76.792" height="43.992" fill="none"/>
    </clipPath>
  </defs>
  <g id="virkin_group" data-name="virkin group" transform="translate(200.164 114.368)">
    <g id="virkin_group-2" data-name="virkin group" transform="translate(-200.164 -114.368)" clip-path="url(#clip-path)">
      <path id="パス_923" data-name="パス 923" d="M11.358,34.382h-.421v-.21a.736.736,0,0,0-.421-.631l-1.052-.421L8.1,32.8H6.73l-1.578.21a4.208,4.208,0,0,0-1.368.736,3.577,3.577,0,0,0-1.052,1.262,4.734,4.734,0,0,0,0,3.682,3.471,3.471,0,0,0,1.052,1.262,4.208,4.208,0,0,0,1.368.736l1.578.21,2.314-.421,1.683-.421V38.169H7.466a.842.842,0,0,0-.21.526H6.835v-2.63h.421a.631.631,0,0,0,.21.421h5.891v.421h-.526a.421.421,0,0,0-.105.421v2.419a.316.316,0,0,0,.105.316h.316v.316l-1.473.842-1.578.526-1.683.631H6.73a9.467,9.467,0,0,1-2.735-.421,6,6,0,0,1-2.1-1.157A5.154,5.154,0,0,1,.523,39.01a6.417,6.417,0,0,1,0-4.839,5.26,5.26,0,0,1,1.368-1.894,6.1,6.1,0,0,1,2.1-1.157A8.942,8.942,0,0,1,6.73,30.7H8.623l1.578.316,1.157.316h1.262Z" transform="translate(0.003 1.595)" fill="#fff"/>
      <path id="パス_924" data-name="パス 924" d="M23.064,30.8l1.894.21,1.473.631a2.735,2.735,0,0,1,.947,1.052,3.471,3.471,0,0,1,.316,1.578,2.84,2.84,0,0,1-.842,2.209,4.523,4.523,0,0,1-2.314,1.052l2.84,4.1.316.21h.421v.421h-4v-.421h.316v-.421L24.221,41,21.8,37.638H18.645V41.53a.316.316,0,0,0,.105.316h.526v.421H15.7v-.421q.631,0,.631-.421V31.642c0-.21-.21-.421-.631-.421V30.8Zm-.526,5.155H23.8l.842-.316.421-.526a1.683,1.683,0,0,0,0-1.262l-.421-.526-.842-.316H18.751V36.27Z" transform="translate(0.816 1.6)" fill="#fff"/>
      <path id="パス_925" data-name="パス 925" d="M37.239,30.7a8.626,8.626,0,0,1,2.419.316,7.469,7.469,0,0,1,2.209,1.052,5.891,5.891,0,0,1,1.788,1.894,5.575,5.575,0,0,1,0,5.26,5.891,5.891,0,0,1-1.683,1.788,6.943,6.943,0,0,1-2.209,1.052,9.152,9.152,0,0,1-4.839,0,6.943,6.943,0,0,1-2.209-1.052,5.891,5.891,0,0,1-1.683-1.788,5.575,5.575,0,0,1,0-5.26,5.891,5.891,0,0,1,1.683-1.788,7.469,7.469,0,0,1,2.209-1.052,8.626,8.626,0,0,1,2.419-.316m0,2-1.683.21-1.473.736a3.892,3.892,0,0,0-1.052,1.262,3.471,3.471,0,0,0,0,3.261,3.892,3.892,0,0,0,1.052,1.157l1.473.736,1.683.21,1.683-.21,1.473-.736a3.892,3.892,0,0,0,1.052-1.262,3.471,3.471,0,0,0,0-3.261A3.892,3.892,0,0,0,40.5,33.645l-1.473-.736-1.683-.21" transform="translate(1.578 1.595)" fill="#fff"/>
      <path id="パス_926" data-name="パス 926" d="M49.877,31.221q-.526,0-.526.421v6.522a2,2,0,0,0,.842,1.894,6.322,6.322,0,0,0,5.049,0,2,2,0,0,0,.842-1.893V31.642c0-.21-.21-.421-.631-.421V30.8h3.471v.421q-.526,0-.526.421v6.417a5.259,5.259,0,0,1-.421,2.1,3.051,3.051,0,0,1-.842,1.368,4.523,4.523,0,0,1-1.788.631l-2.525.21-2.525-.21a4.523,4.523,0,0,1-1.788-.631,3.051,3.051,0,0,1-1.157-1.368,5.365,5.365,0,0,1-.421-2.1V31.642c0-.21-.21-.421-.631-.421V30.8h3.577Z" transform="translate(2.405 1.6)" fill="#fff"/>
      <path id="パス_927" data-name="パス 927" d="M61.5,42.372v-.421c.526,0,.842-.105.842-.421V31.642c0-.21-.316-.421-.842-.421V30.8h7.679a6,6,0,0,1,3.261.736A2.945,2.945,0,0,1,73.6,34.272,2.946,2.946,0,0,1,72.44,36.9a6,6,0,0,1-3.261.736H64.761V41.53c0,.21.21.421.736.421v.421Zm7.89-6.732a2.525,2.525,0,0,0,1.262-.316,1.473,1.473,0,0,0,0-2.209A2.525,2.525,0,0,0,69.39,32.8H64.761v2.84Z" transform="translate(3.195 1.599)" fill="#fff"/>
      <path id="パス_928" data-name="パス 928" d="M22.943,11.256q0,.421.526.421V12.1H20.1v-.421h.316a.316.316,0,0,0,.105-.316V2.525h-4a.421.421,0,0,0-.21.421H16V0h.421a.421.421,0,0,0,.21.421H27.045A.421.421,0,0,0,27.256,0h.421V3.051h-.421a.421.421,0,0,0-.21-.421h-4.1Z" transform="translate(0.831)" fill="#fff"/>
      <path id="パス_929" data-name="パス 929" d="M39.588,1.236a.481.481,0,0,0-.526-.421V.5h3.366V.921h-.316a.316.316,0,0,0-.105.316v9.888a.316.316,0,0,0,.105.316h.316v.421H39.168V11.44q.526,0,.526-.421V7.127H32.645v4.1a.316.316,0,0,0,.105.316h.316v.421H29.7v-.421a.372.372,0,0,0,.421-.421V1.236A.385.385,0,0,0,29.7.816V.5h3.261V.921h-.316a.316.316,0,0,0-.105.316V5.023h7.048Z" transform="translate(1.543 0.026)" fill="#fff"/>
      <path id="パス_930" data-name="パス 930" d="M56.33,2.835a.421.421,0,0,0-.21-.316H48.44v2.63h4.944c.21-.105.21-.316.21-.631h.421V7.779h-.421a.889.889,0,0,0-.21-.631H48.44v2.84h7.784a.526.526,0,0,0,.21-.421h.421v2.945h-.421a.547.547,0,0,0-.21-.421H45.6v-.421h.316a.316.316,0,0,0,.105-.316V1.257a.316.316,0,0,0-.105-.316H45.6V.521H56.119A.421.421,0,0,0,56.33.1h.421V2.835Z" transform="translate(2.369 0.005)" fill="#fff"/>
      <path id="パス_931" data-name="パス 931" d="M14.165,16.021a.736.736,0,0,0-.631.316l-.316.526L9.431,25.383l-.316.736v.526h.105v.421H5.855v-.421a.316.316,0,0,0,.21-.316l-.21-.421-.421-.842L1.542,16.652l-.316-.316L.7,16.021V15.6H4.592v.421H4.277a.316.316,0,0,0-.105.316,1.473,1.473,0,0,0,.21.631l.421.947,2.735,6,2.735-5.891.526-1.052a1.683,1.683,0,0,0,.21-.631q0-.316-.631-.316V15.6h3.787Z" transform="translate(0.036 0.81)" fill="#fff"/>
      <path id="パス_932" data-name="パス 932" d="M15.7,26.751c.421,0,.526-.105.526-.421V16.442a.481.481,0,0,0-.526-.421V15.6h3.577v.421c-.421,0-.526.105-.526.421V26.33a.481.481,0,0,0,.526.421v.421H15.7Z" transform="translate(0.816 0.81)" fill="#fff"/>
      <path id="パス_933" data-name="パス 933" d="M29.969,15.705l1.894.21a4.208,4.208,0,0,1,1.473.631,2.735,2.735,0,0,1,.947,1.052,3.471,3.471,0,0,1,.316,1.578,2.84,2.84,0,0,1-.842,2.209,4.523,4.523,0,0,1-2.314.947l2.84,4.1.316.21h.421v.421h-4v-.421h.316v-.421l-.21-.421-2.419-3.366H25.551V26.33a.316.316,0,0,0,.105.316h.526v.421H22.5v-.421q.631,0,.631-.421V16.442q0-.421-.631-.421V15.6Zm-.526,5.155h1.262l.842-.316.421-.526a1.683,1.683,0,0,0,0-1.262l-.421-.526-.842-.316H25.656v3.261Z" transform="translate(1.169 0.81)" fill="#fff"/>
      <path id="パス_934" data-name="パス 934" d="M40.245,26.33a.316.316,0,0,0,.105.316h.316v.421H37.3v-.421q.526,0,.526-.421V16.442q0-.421-.526-.421V15.6h3.366v.421h-.316a.316.316,0,0,0-.105.316v4.1l4.523-3.366.526-.421.21-.316v-.21h-.21v-.421h4.313v.316a1.262,1.262,0,0,0-.736.316l-4.944,4,4.523,5.26.631.631.736.421v.421h-4v-.421h.316l-.316-.526-3.682-4.313-1.788,1.473Z" transform="translate(1.938 0.81)" fill="#fff"/>
      <path id="パス_935" data-name="パス 935" d="M51.3,26.751c.421,0,.526-.105.526-.421V16.442a.481.481,0,0,0-.526-.421V15.6h3.577v.421c-.421,0-.526.105-.526.421V26.33q0,.421.526.421v.421H51.3Z" transform="translate(2.665 0.81)" fill="#fff"/>
      <path id="パス_936" data-name="パス 936" d="M58.3,26.751a.372.372,0,0,0,.421-.421V16.442a.385.385,0,0,0-.421-.421V15.6h3.682v.421a.226.226,0,0,0-.21.21c0,.105.105.316.421.631L68.5,23.384V16.442a.481.481,0,0,0-.526-.421V15.6h3.261v.421c-.316,0-.421.105-.421.421V26.33a.372.372,0,0,0,.421.421v.421H67.768v-.421c.21,0,.316-.105.316-.21l-.316-.526L61.14,19.071V26.33a.481.481,0,0,0,.526.421v.421H58.3Z" transform="translate(3.028 0.81)" fill="#fff"/>
    </g>
  </g>
</svg>
